<svg xmlns="http://www.w3.org/2000/svg" width="90.914" height="90.914" viewBox="0 0 90.914 90.914">
  <g id="Grupo_1114854" data-name="Grupo 1114854" transform="translate(-1123.312 -1359.322)">
    <g id="Grupo_1105800" data-name="Grupo 1105800" transform="translate(1123.313 1359.322)">
      <rect id="Rect치ngulo_400898" data-name="Rect치ngulo 400898" width="90.914" height="90.914" rx="45.457" transform="translate(0 0)" fill="#fff" opacity="0.859"/>
      <rect id="Rect치ngulo_400907" data-name="Rect치ngulo 400907" width="90.914" height="90.914" rx="45.457" transform="translate(0 0)" fill="none"/>
    </g>
    <g id="Layer_x0020_1" transform="translate(580.238 1371.964)">
      <path id="Trazado_900982" data-name="Trazado 900982" d="M922.1,5597.123a32.2,32.2,0,0,1-14.755-3.243c-4.086-2.154-6.344-5.08-6.344-8.22a.665.665,0,0,1,.668-.66h40.869a.665.665,0,0,1,.668.66c0,3.14-2.258,6.065-6.344,8.22A32.21,32.21,0,0,1,922.1,5597.123Zm-19.731-10.8c.31,2.377,2.266,4.626,5.6,6.384,7.791,4.118,20.486,4.118,28.277,0,3.331-1.757,5.286-4.007,5.6-6.384Z" transform="translate(-334.321 -5538.858)" fill-rule="evenodd"/>
      <path id="Trazado_900983" data-name="Trazado 900983" d="M607.89,4835.345H567.673a3.673,3.673,0,1,1,0-7.345H607.89a3.673,3.673,0,1,1,0,7.345Zm-40.217-6.018a2.345,2.345,0,1,0,0,4.69H607.89a2.345,2.345,0,1,0,0-4.69Z" transform="translate(0 -4787.876)" fill-rule="evenodd"/>
      <path id="Trazado_900984" data-name="Trazado 900984" d="M648.725,41.452a.666.666,0,0,1-.652-.763c.032-.231,2.886-18.936,3.148-28.881-1.312,6.28-3.379,16.646-4.579,24.922-.207,1.479-.382,2.87-.517,4.126a.668.668,0,0,1-.708.6h-.04a.668.668,0,0,1-.66-.763L645.562,35c.024-.159-.008-7.56-.3-13.944l-.072-1.487a80.547,80.547,0,0,0-1.2-11.606c-.541,7.25-1.828,26.146-1.089,32.752a.662.662,0,0,1-.58.731.651.651,0,0,1-.731-.58c-.938-8.339,1.208-34.772,1.3-35.892a.661.661,0,0,1,1.121-.421c.676.66,1.574,2.512,2.2,10.43a24.877,24.877,0,0,0,.66-5.485.661.661,0,0,1,1.312-.159l.994,5.835c1.01-4.961,1.781-8.5,1.8-8.586a.661.661,0,0,1,1.288,0c1.391,6.209-2.711,33.158-2.886,34.3A.666.666,0,0,1,648.725,41.452Zm-36.99,0a.652.652,0,0,1-.652-.564c-.175-1.145-4.285-28.094-2.894-34.3a.666.666,0,0,1,1.3,0c.016.072,1.137,5.2,2.441,11.757-.087-6.455-.024-11.3-.024-11.408a.661.661,0,0,1,1.161-.421c1.312,1.5,2.274,5.453,2.949,10.152.668-5.565,1.272-9.9,1.336-10.319a.662.662,0,0,1,1.312.183,58.338,58.338,0,0,0,.032,10.549c.167-2.965.318-5.406.453-7.282.1-1.51.207-2.679.294-3.466.127-1.216.2-1.828.835-1.892a.716.716,0,0,1,.763.612c.286,1.169.731,5.3,1.121,9.309.048-.485.1-.954.143-1.4a87.405,87.405,0,0,1,1.654-10.7.661.661,0,0,1,1.3.064l2.425,17.624c.874-6.932,1.8-12.855,1.884-13.363a.662.662,0,0,1,1.312.04c.016.127.66,6.169,1.375,13.26l2.17-13.729a.661.661,0,0,1,1.3-.048,74.089,74.089,0,0,1,1.3,10.446c.819-5.175,1.518-8.951,1.542-9.039a.662.662,0,0,1,1.3-.024c2.743,12.354.755,33.158.739,33.365a.663.663,0,0,1-1.32-.127c.016-.191,1.63-17.1-.072-29.31-1.161,6.741-3.466,21.146-3.466,29.374a.66.66,0,0,1-1.32,0,144.126,144.126,0,0,1,1.622-17.744c-.207-5.143-.533-9.428-.946-12.672l-2.321,14.715c.62,6.415,1.2,12.743,1.343,15.661a.661.661,0,1,1-1.32.072c-.1-2.123-.437-6.042-.859-10.493L630.258,40.9a.664.664,0,0,1-1.312-.207l2.48-15.637c-.469-4.786-.962-9.611-1.328-13.1-1.153,8.037-3.148,23.2-2.631,28.778a.663.663,0,1,1-1.32.119c-.3-3.235.2-9.444.9-15.7l-2.56-18.626a142.336,142.336,0,0,0-1.041,34.215.667.667,0,0,1-.66.715.659.659,0,0,1-.66-.6,151.966,151.966,0,0,1-.493-17.736c-.008-.064-.644-7.473-1.216-12.719-.262,3.8-.564,9.388-.874,15.494a.4.4,0,0,1-.008.167c-.238,4.81-.469,9.937-.684,14.762a.653.653,0,0,1-.66.636.665.665,0,0,1-.66-.692c.111-2.631.374-8.522.692-14.81-.334-2.79-.668-6-.882-9.134-.93,7.807-1.964,18.054-1.757,23.276.024.207.048.421.072.628a8.421,8.421,0,0,1-2.663.135c-.453-4.333-.723-9.508-.882-14.484-.994-5.445-2.091-10.843-2.87-14.572.262,9.945,3.116,28.658,3.148,28.889A.666.666,0,0,1,611.736,41.452Zm2.528-1.272a.265.265,0,0,1,0-.079,144.612,144.612,0,0,1,1.089-17.569,68.786,68.786,0,0,0-2.146-12.783c-.024,6.01.048,20.446,1.065,30.566A.729.729,0,0,1,614.264,40.18Zm32.252-20.534c.135,2.6.231,5.509.286,7.894.533-2.981,1.1-5.986,1.654-8.745l-.763-4.476C647.247,16.76,646.651,19.113,646.515,19.646Z" transform="translate(-43.554 0)" fill-rule="evenodd"/>
      <path id="Trazado_900985" data-name="Trazado 900985" d="M1112.47,5752H1073c.31,2.377,2.266,4.626,5.6,6.383,7.791,4.118,20.486,4.118,28.277,0C1110.2,5756.626,1112.16,5754.377,1112.47,5752Z" transform="translate(-504.954 -5704.531)" fill="#b05f3b" fill-rule="evenodd"/>
      <path id="Trazado_900986" data-name="Trazado 900986" d="M733.345,4999.69h40.217a2.345,2.345,0,0,0,0-4.69H733.345a2.345,2.345,0,0,0,0,4.69Z" transform="translate(-165.672 -4953.548)" fill="#ffd08c" fill-rule="evenodd"/>
      <path id="Trazado_900987" data-name="Trazado 900987" d="M5431.016,1266c-1.312,6.28-3.378,16.646-4.579,24.922-.167,1.2-.318,2.337-.437,3.394h1.956C5428.433,1291.113,5430.778,1274.983,5431.016,1266Z" transform="translate(-4823.349 -1254.193)" fill="#00a859" fill-rule="evenodd"/>
      <path id="Trazado_900988" data-name="Trazado 900988" d="M5465.286,1595.22c.533-2.981,1.1-5.986,1.654-8.745l-.763-4.476c-.445,2.441-1.042,4.794-1.177,5.326C5465.135,1589.926,5465.23,1592.835,5465.286,1595.22Z" transform="translate(-4862.039 -1567.68)" fill="#77bf3f" fill-rule="evenodd"/>
      <path id="Trazado_900989" data-name="Trazado 900989" d="M4984.83,809.037c.024-.159-.008-7.56-.3-13.944l-.071-1.487a80.559,80.559,0,0,0-1.2-11.606c-.532,7.051-1.757,25.089-1.145,32.164h1.963Z" transform="translate(-4382.823 -774.04)" fill="#00a859" fill-rule="evenodd"/>
      <path id="Trazado_900990" data-name="Trazado 900990" d="M4112.585,1245.706c.271-3.116,1.4-17.791-.127-28.706-1.129,6.558-3.347,20.4-3.458,28.706Z" transform="translate(-3516.819 -1205.582)" fill="#77bf3f" fill-rule="evenodd"/>
      <path id="Trazado_900991" data-name="Trazado 900991" d="M3736.646,1115.747a151.573,151.573,0,0,1,1.622-17.076c-.207-5.143-.533-9.428-.946-12.672L3735,1100.715c.58,5.986,1.121,11.9,1.312,15.033Z" transform="translate(-3145.792 -1075.623)" fill="#00a859" fill-rule="evenodd"/>
      <path id="Trazado_900992" data-name="Trazado 900992" d="M3059.781,1312.173l2.385-15.073c-.469-4.786-.962-9.611-1.327-13.1-1.113,7.767-3.013,22.179-2.679,28.173Z" transform="translate(-2474.292 -1272.049)" fill="#77bf3f" fill-rule="evenodd"/>
      <path id="Trazado_900993" data-name="Trazado 900993" d="M2495.864,634.6a110.43,110.43,0,0,1,.954-14.977L2494.258,601a142.189,142.189,0,0,0-1.1,33.6Z" transform="translate(-1913.326 -594.479)" fill="#00a859" fill-rule="evenodd"/>
      <path id="Trazado_900994" data-name="Trazado 900994" d="M1992.18,1117.731a154.443,154.443,0,0,1-.429-17.012c-.008-.064-.644-7.473-1.216-12.719-.262,3.8-.564,9.388-.874,15.494a.4.4,0,0,1-.008.167c-.223,4.579-.453,9.452-.652,14.071Z" transform="translate(-1413.672 -1077.608)" fill="#77bf3f" fill-rule="evenodd"/>
      <path id="Trazado_900995" data-name="Trazado 900995" d="M1572.643,1919.308c.127-2.862.374-8.347.668-14.174-.334-2.79-.668-6-.882-9.134-.93,7.807-1.964,18.054-1.757,23.276a.047.047,0,0,1,.008.032Z" transform="translate(-998.642 -1879.184)" fill="#00a859" stroke="#00a859" stroke-width="3" fill-rule="evenodd"/>
      <path id="Trazado_900996" data-name="Trazado 900996" d="M1275.6,1037.352a144.6,144.6,0,0,1,1.089-17.569,68.787,68.787,0,0,0-2.146-12.783c-.024,5.97.04,20.264,1.042,30.375h.016Z" transform="translate(-704.886 -997.251)" fill="#77bf3f" fill-rule="evenodd"/>
      <path id="Trazado_900997" data-name="Trazado 900997" d="M779.681,1293.324c-.405-4.182-.66-9.055-.811-13.753-.994-5.445-2.091-10.843-2.87-14.572.239,8.983,2.592,25.121,3.069,28.324Z" transform="translate(-210.315 -1253.2)" fill="#00a859" fill-rule="evenodd"/>
    </g>
  </g>
</svg>
