<svg xmlns="http://www.w3.org/2000/svg" width="47" height="47" viewBox="0 0 47 47">
  <g id="Grupo_1114859" data-name="Grupo 1114859" transform="translate(-1039.051 -2044)">
    <rect id="Rectángulo_400898" data-name="Rectángulo 400898" width="47" height="47" rx="23.5" transform="translate(1039.051 2044)" fill="#f5c87f"/>
    <g id="Grupo_1113730" data-name="Grupo 1113730" transform="translate(1021.596 2084.222) rotate(-90)">
      <g id="Grupo_1113728" data-name="Grupo 1113728" transform="translate(0.65 26.651)">
        <path id="Trazado_901094" data-name="Trazado 901094" d="M18.452,52.255a3.9,3.9,0,1,0,0,7.8,2.447,2.447,0,0,1,2.44,2.44v2.111h4.39V59.9a2.447,2.447,0,0,0-2.44-2.44h7.588a5.852,5.852,0,0,1,8.05-4.063,5.2,5.2,0,0,0-5.075-6.34H29.83a3.9,3.9,0,0,0,0-7.8,2.447,2.447,0,0,1-2.44-2.44V36H23v3.412a2.447,2.447,0,0,0,2.44,2.44H15.2a5.2,5.2,0,0,0,0,10.4Z" transform="translate(-10 -36.001)" fill="#ffbdbc" fill-rule="evenodd"/>
        <path id="Trazado_901095" data-name="Trazado 901095" d="M333.7,301.851a5.852,5.852,0,1,0-11.641.856h0a5.852,5.852,0,0,0,11.641-.856Zm-6.113-1.19a1.3,1.3,0,1,1-1.3-1.3A1.3,1.3,0,0,1,327.59,300.662Z" transform="translate(-301.715 -279.096)" fill="#c193dc" fill-rule="evenodd"/>
        <circle id="Elipse_12229" data-name="Elipse 12229" cx="1.3" cy="1.3" r="1.3" transform="translate(23.091 20.457) rotate(-7.936)" fill="#ff7b79"/>
      </g>
      <g id="Grupo_1113729" data-name="Grupo 1113729" transform="translate(0 26.001)">
        <path id="Trazado_901096" data-name="Trazado 901096" d="M165.542,33.153H172.7a.65.65,0,1,0,0-1.3h-2.44a1.792,1.792,0,0,1-1.79-1.79V26.651a.65.65,0,0,0-1.3,0v3.412a3.073,3.073,0,0,0,.572,1.79h-2.2a.65.65,0,1,0,0,1.3Z" transform="translate(-154.171 -26.001)"/>
        <path id="Trazado_901097" data-name="Trazado 901097" d="M104.655,43.677a5.85,5.85,0,0,0-5.8-6.623h-.394a4.549,4.549,0,0,0-3.182-7.8,1.792,1.792,0,0,1-1.79-1.79v-.811a.65.65,0,0,0-1.3,0v.811a3.094,3.094,0,0,0,3.09,3.09,3.251,3.251,0,0,1,0,6.5H80.65a.65.65,0,1,0,0,1.3h18.2a4.556,4.556,0,0,1,4.551,4.551q0,.129-.007.257a6.505,6.505,0,0,0-8.016,4.294H85.852a.65.65,0,0,0,0,1.3h2.44a1.792,1.792,0,0,1,1.79,1.79v4.712a.65.65,0,1,0,1.3,0V50.547a3.073,3.073,0,0,0-.572-1.79h4.307q-.032.321-.032.65a6.5,6.5,0,1,0,9.571-5.73Zm-3.069,10.932a5.2,5.2,0,1,1,5.2-5.2A5.207,5.207,0,0,1,101.586,54.608Z" transform="translate(-74.799 -26.001)"/>
        <path id="Trazado_901098" data-name="Trazado 901098" d="M445.381,401.981h0a.65.65,0,1,0,.651.65A.65.65,0,0,0,445.381,401.981Z" transform="translate(-415.816 -377.536)"/>
        <path id="Trazado_901099" data-name="Trazado 901099" d="M442.4,359a.65.65,0,0,0-.65-.65h0a.65.65,0,1,0,.651.65Z" transform="translate(-412.424 -336.741)"/>
        <path id="Trazado_901100" data-name="Trazado 901100" d="M397.289,415.363h0a.65.65,0,1,0,.651.65A.65.65,0,0,0,397.289,415.363Z" transform="translate(-370.851 -390.048)"/>
        <path id="Trazado_901101" data-name="Trazado 901101" d="M359.93,337.7a1.95,1.95,0,1,0,1.951,1.951A1.953,1.953,0,0,0,359.93,337.7Zm0,2.6a.65.65,0,1,1,.65-.65A.651.651,0,0,1,359.93,340.3Z" transform="translate(-334.704 -317.436)"/>
        <path id="Trazado_901102" data-name="Trazado 901102" d="M9.1,134.362a3.251,3.251,0,0,1,0-6.5H21.13a.65.65,0,1,0,0-1.3H5.852a4.551,4.551,0,0,1-.291-9.093.65.65,0,0,0-.083-1.3,5.851,5.851,0,0,0,.373,11.691h.069a4.549,4.549,0,0,0,3.182,7.8,1.792,1.792,0,0,1,1.79,1.79v2.111a.65.65,0,1,0,1.3,0v-2.111a3.094,3.094,0,0,0-3.09-3.09Z" transform="translate(0 -110.306)"/>
        <path id="Trazado_901103" data-name="Trazado 901103" d="M120.543,117.3a.65.65,0,0,0,0-1.3h0a.65.65,0,0,0,0,1.3Z" transform="translate(-112.098 -110.149)"/>
      </g>
    </g>
  </g>
</svg>
