<svg xmlns="http://www.w3.org/2000/svg" width="47" height="47" viewBox="0 0 47 47">
  <g id="Grupo_1114860" data-name="Grupo 1114860" transform="translate(-1039.051 -2107)">
    <rect id="Rectángulo_400898" data-name="Rectángulo 400898" width="47" height="47" rx="23.5" transform="translate(1039.051 2107)" fill="#f5c87f"/>
    <g id="Grupo_1113731" data-name="Grupo 1113731" transform="translate(1047.596 2113.171)">
      <path id="Trazado_901104" data-name="Trazado 901104" d="M18.3,66.864S16.778,56.726,19.82,53.178c1.014,9.631-1.014,9.124,1.521,13.686,2.028-8.618,1.014-20.783,1.014-20.783S25.4,56.219,24.382,65.85" transform="translate(-15.257 -37.785)" fill="#83d816"/>
      <path id="Trazado_901105" data-name="Trazado 901105" d="M15.368,64.465a.507.507,0,0,1-.5-.432c-.063-.423-1.519-10.41,1.638-14.091a.507.507,0,0,1,.889.277,45.294,45.294,0,0,1,.23,8.038,7.465,7.465,0,0,0,.588,4.2c1.589-8.311.717-19.121.707-19.236a.507.507,0,0,1,.991-.188c.031.1,3.059,10.347,2.046,19.968a.507.507,0,1,1-1.008-.106A51.85,51.85,0,0,0,20.167,48.7,67.785,67.785,0,0,1,18.9,64.074a.507.507,0,0,1-.937.13,8.744,8.744,0,0,1-1.356-6,42.408,42.408,0,0,0-.086-6.389c-1.828,4.036-.669,11.981-.655,12.069a.508.508,0,0,1-.426.577A.537.537,0,0,1,15.368,64.465Z" transform="translate(-12.327 -34.878)"/>
      <path id="Trazado_901106" data-name="Trazado 901106" d="M54.612,32.494s4.652-13.207,4.055-19.769c-.507-5.576-2.028-7.6-2.028-7.6S61.709,9.176,60.7,20.835s-1.521,11.152-1.521,11.152,4.562-10.138,3.548-19.262,1.521,11.659.507,16.221c2.535-7.6,2.535-7.1,2.535-7.1s.507,7.6-.507,10.138,3.041-7.6,2.535-14.193,2.028,8.01,2.028,13.179c0,1.014.507-15.207,3.041-18.248,0,8.111-2.028,15.714-.507,18.755" transform="translate(-46.501 -2.908)" fill="#83d816"/>
      <path id="Trazado_901107" data-name="Trazado 901107" d="M51.7,30.093a.507.507,0,0,1-.478-.675c.046-.131,4.608-13.178,4.028-19.555-.488-5.37-1.914-7.326-1.928-7.346a.507.507,0,0,1,.722-.7c.215.173,5.269,4.361,4.243,16.154-.184,2.113-.35,3.837-.5,5.243a37.724,37.724,0,0,0,1.618-12.208c-.053-.592-.1-1.129-.148-1.594-.073-.66-.122-1.118-.146-1.441-.02-.182-.035-.306-.043-.365l.024,0c0-.384.069-.426.223-.515a.509.509,0,0,1,.553.03c.045.033.1.071.166.384l.04,0c0,.035.02.212.057.563.141.974.339,3,.637,7.28.194,2.769.294,5.06.3,6.862,1.315-3.863,1.426-3.841,1.861-3.771a.517.517,0,0,1,.429.507c.01.137.129,1.973.128,4.122a28.584,28.584,0,0,0,.888-8.139c-.134-1.745-.084-1.95.209-2.139a.541.541,0,0,1,.536-.02c.222.121.526.286,1.406,6.293.125.85.238,1.679.339,2.475.492-5.324,1.317-10.387,2.695-12.041a.507.507,0,0,1,.9.325,90.249,90.249,0,0,1-.627,9.354c-.416,4.021-.775,7.493.066,9.175a.507.507,0,0,1-.907.454c-.973-1.947-.618-5.383-.168-9.733.218-2.107.458-4.425.565-6.819-.877,2.926-1.562,8.3-1.943,15.423-.007.145-.015.278-.029.395h0c-.042.35-.134.551-.519.553a.55.55,0,0,1-.495-.553,79.671,79.671,0,0,0-1.059-10.061A49.318,49.318,0,0,1,63.1,28.3a6.056,6.056,0,0,1-.28.965c-.192.479-.343.854-.808.686s-.318-.612-.22-.9q.175-.526.34-1.043a34.291,34.291,0,0,0,.321-6.649c-.365,1.035-.892,2.569-1.65,4.842a.507.507,0,0,1-.976-.27,37.148,37.148,0,0,0,.114-7.464,50.109,50.109,0,0,1-3,10.324c-.194.663-.349.719-.486.769a.536.536,0,0,1-.55-.119.507.507,0,0,1-.1-.566c.006-.013.093-.209.237-.56a90.333,90.333,0,0,0,1.241-10.428c.5-5.71-.505-9.558-1.614-11.963a28.7,28.7,0,0,1,.6,3.851c.6,6.6-3.89,19.44-4.082,19.984A.509.509,0,0,1,51.7,30.093Z" transform="translate(-43.593)"/>
      <path id="Trazado_901108" data-name="Trazado 901108" d="M32.307,184.641H3.414a3.668,3.668,0,0,1,3.281-2.028H29.027a3.667,3.667,0,0,1,3.28,2.028Z" transform="translate(-2.907 -154.041)" fill="#997843"/>
      <path id="Trazado_901109" data-name="Trazado 901109" d="M29.4,182.242H.507a.507.507,0,0,1-.453-.733A4.152,4.152,0,0,1,3.788,179.2H26.121a4.152,4.152,0,0,1,3.734,2.308.507.507,0,0,1-.454.733ZM1.466,181.228H28.442a3.142,3.142,0,0,0-2.322-1.014H3.788A3.143,3.143,0,0,0,1.466,181.228Z" transform="translate(0 -151.135)"/>
    </g>
  </g>
</svg>
