<svg xmlns="http://www.w3.org/2000/svg" width="90.914" height="90.914" viewBox="0 0 90.914 90.914">
  <g id="Grupo_1114850" data-name="Grupo 1114850" transform="translate(6265.893 7393.516)">
    <g id="Grupo_1113577" data-name="Grupo 1113577" transform="translate(-6265.893 -7393.516)">
      <path id="Trazado_874925" data-name="Trazado 874925" d="M45.457,0A45.457,45.457,0,0,1,90.914,45.457h0A45.457,45.457,0,0,1,0,45.457H0A45.457,45.457,0,0,1,45.457,0Z" transform="translate(0 0)" fill="#f5c87f" opacity="0.859"/>
      <path id="Trazado_874923" data-name="Trazado 874923" d="M45.457,0A45.457,45.457,0,0,1,90.914,45.457h0A45.457,45.457,0,0,1,0,45.457H0A45.457,45.457,0,0,1,45.457,0Z" transform="translate(0 0)" fill="none"/>
    </g>
    <g id="Grupo_1113745" data-name="Grupo 1113745" transform="translate(-6246.505 -7375.001)">
      <path id="Trazado_901197" data-name="Trazado 901197" d="M48.21,48.578,49.052,57h-4.21l-.253.025-.168-1.751L44,51.1V42.684A5.336,5.336,0,0,0,47.789,41h.421Z" transform="translate(-6.954 -6.48)" fill="#b8b8b7"/>
      <path id="Trazado_901198" data-name="Trazado 901198" d="M16.052,51.911l.842,4.21H11.842l-.337.034-.084-.918L11,51.069V45.6a5.494,5.494,0,0,1,2.863-4.816l.505.185v.842A4.992,4.992,0,0,0,15.589,45.1l-.084.076L15.21,47.7Z" transform="translate(-1.739 -6.445)" fill="#b8b8b7"/>
      <path id="Trazado_901199" data-name="Trazado 901199" d="M11.858,58.21l-.337.034-.084-.918L11.1,54h4.968l.842,4.21Z" transform="translate(-1.754 -8.535)" fill="#5d5d72"/>
      <path id="Trazado_901200" data-name="Trazado 901200" d="M44.874,59.2l-.253.025-.168-1.751L44.2,54.992h4.041l.421-.042.421,4.252Z" transform="translate(-6.986 -8.685)" fill="#5d5d72"/>
      <path id="Trazado_901201" data-name="Trazado 901201" d="M31.979,37.393H13.456v-.842l-.505-.185a5.494,5.494,0,0,0-2.863,4.816v5.473l.421,4.168-.421.042H5.878l-.539-.042.539-7.535-.269-5.961L5.23,29.007l.648-.034H9.246a2.522,2.522,0,0,0,2.526-2.526V24.764A2.53,2.53,0,0,1,14.3,22.238a2.522,2.522,0,0,0,2.526-2.526V12.976h3.368l.825-.126.017.126c0,15.155,17.681,9.261,17.681,9.261l.143-.1A6.009,6.009,0,0,0,41.24,24.2l.059.017a2.37,2.37,0,0,0-.059.547,2.522,2.522,0,0,0,2.526,2.526h2.526l-3.368,7.578a7.268,7.268,0,0,1-1.263,1.684,5.336,5.336,0,0,1-3.789,1.684v8.419l.421,4.168-.421.042h-4.21l-.539-.042.539-7.535Z" transform="translate(-0.827 -2.031)" fill="#eaeaea"/>
      <path id="Trazado_901202" data-name="Trazado 901202" d="M31.543,36.68c-1.1-.116-2.037-1.905-3.368-1.684-4.715.783-14.052.842-15.046,5.641a5.1,5.1,0,0,1,1.069-.775l.505.185v.842H33.227a38.467,38.467,0,0,1-1.684-4.21" transform="translate(-2.075 -5.528)" fill="#b8b8b7"/>
      <path id="Trazado_901203" data-name="Trazado 901203" d="M49.434,29.033a2.522,2.522,0,0,1-2.526-2.526,2.37,2.37,0,0,1,.059-.547l-.059-.017a6.009,6.009,0,0,1-2.383-2.063l-.143.1a25.271,25.271,0,0,1-3.292.783c.269,1.709,2.12,3.318,1.608,5.111a39.065,39.065,0,0,0-.583,8.783s0,.008,0,.011a1.388,1.388,0,0,0,1.176,1.273l.248.036a5.336,5.336,0,0,0,3.789-1.684,7.268,7.268,0,0,0,1.263-1.684l3.368-7.578Z" transform="translate(-6.494 -3.774)" fill="#b8b8b7"/>
      <path id="Trazado_901204" data-name="Trazado 901204" d="M40.836,18.56a5.88,5.88,0,0,0,.985,3.267l-.143.1S24,27.822,24,12.667l-.017-.126L34.1,10.983l.109-.093c1.2,1.6,3.452,3.376,6.3.017l.328.076.463.219a6,6,0,0,0-.463,2.307Z" transform="translate(-3.79 -1.721)" fill="#5d5d72"/>
      <path id="Trazado_901205" data-name="Trazado 901205" d="M44.476,21.83l-.143.1a25.271,25.271,0,0,1-3.292.783,26.455,26.455,0,0,1,.674-10.482,6.755,6.755,0,0,0,1.448-1.322l.328.076.463.219a6,6,0,0,0-.463,2.307v5.052a5.88,5.88,0,0,0,.985,3.267Z" transform="translate(-6.445 -1.724)" fill="#464656"/>
      <circle id="Elipse_12253" data-name="Elipse 12253" cx="1.5" cy="1.5" r="1.5" transform="translate(21.942 47.942)" fill="#85ddff"/>
      <path id="Trazado_901206" data-name="Trazado 901206" d="M10.557,58.868l.337,3.334H5l.3-4.252.539.042h4.21l.421-.042Z" transform="translate(-0.79 -9.159)" fill="#5d5d72"/>
      <path id="Trazado_901207" data-name="Trazado 901207" d="M61.894,7s0,5.894-5.894,1.684A11.648,11.648,0,0,1,61.894,7Z" transform="translate(-8.851 -1.106)" fill="#5d5d72"/>
      <path id="Trazado_901208" data-name="Trazado 901208" d="M55.342,24.076a2.525,2.525,0,0,1-.606,4.976h-4.21A2.522,2.522,0,0,1,48,26.526a2.37,2.37,0,0,1,.059-.547A2.534,2.534,0,0,1,50.526,24h4.21A2.392,2.392,0,0,1,55.342,24.076Zm.236,2.45a.842.842,0,1,0-.842.842A.844.844,0,0,0,55.578,26.526Zm-4.21,0a.842.842,0,1,0-.842.842A.844.844,0,0,0,51.368,26.526Z" transform="translate(-7.586 -3.793)" fill="#e07a7a"/>
      <path id="Trazado_901209" data-name="Trazado 901209" d="M56.894,12.894v5.052a6.106,6.106,0,0,1-.278,1.8l-.564-.118L53.8,18.5A5.053,5.053,0,0,1,51,13.98V7A5.889,5.889,0,0,1,56.894,12.894Z" transform="translate(-8.061 -1.106)" fill="#5d5d72"/>
      <path id="Trazado_901210" data-name="Trazado 901210" d="M54.945,19.629l.564.118a5.785,5.785,0,0,1-.775,1.566l-.025.076a2.392,2.392,0,0,0-.606-.076h-4.21a2.534,2.534,0,0,0-2.467,1.979l-.059-.017a6.009,6.009,0,0,1-2.383-2.063A5.88,5.88,0,0,1,44,17.945V12.894a6,6,0,0,1,.463-2.307A5.906,5.906,0,0,1,49.894,7v6.98a5.053,5.053,0,0,0,2.8,4.521Z" transform="translate(-6.954 -1.106)" fill="#eaeaea"/>
      <path id="Trazado_901211" data-name="Trazado 901211" d="M43.641,59.7l.253,2.5H38l.3-4.252.539.042h4.21l.421-.042Z" transform="translate(-6.006 -9.159)" fill="#5d5d72"/>
      <path id="Trazado_901212" data-name="Trazado 901212" d="M42.763,9.722c-.168.236-.337.446-.514.648L35,8.763C38.8,5.437,42.763,9.722,42.763,9.722Z" transform="translate(-5.532 -1.185)" fill="#eaeaea"/>
      <path id="Trazado_901213" data-name="Trazado 901213" d="M35,9l7.249,1.608c-2.846,3.359-5.094,1.583-6.3-.017A8.809,8.809,0,0,1,35,9Z" transform="translate(-5.532 -1.422)" fill="#e07a7a"/>
      <path id="Trazado_901214" data-name="Trazado 901214" d="M15,42H25.1a5.051,5.051,0,0,1-8.883,3.292A4.992,4.992,0,0,1,15,42Z" transform="translate(-2.371 -6.638)" fill="#e07a7a"/>
      <path id="Trazado_901215" data-name="Trazado 901215" d="M25.138,42a5.051,5.051,0,0,1-8.883,3.292,4.982,4.982,0,0,1-1.036-1.928,2.739,2.739,0,0,0,.194.244A5.046,5.046,0,0,0,24,42Z" transform="translate(-2.406 -6.638)" fill="#d85959"/>
      <path id="Trazado_901216" data-name="Trazado 901216" d="M16.787,13v6.736a2.522,2.522,0,0,1-2.526,2.526,2.53,2.53,0,0,0-2.526,2.526v1.684A2.522,2.522,0,0,1,9.21,29H5.842l-.648.034L5,24.787A11.792,11.792,0,0,1,16.787,13Z" transform="translate(-0.79 -2.055)" fill="#5d5d72"/>
      <path id="Trazado_901217" data-name="Trazado 901217" d="M1,1H4.368V4.368H1Z" transform="translate(-0.158 -0.158)" fill="#f5a323"/>
      <path id="Trazado_901218" data-name="Trazado 901218" d="M1,37l2.526,4.21L1,44.578Z" transform="translate(-0.158 -5.848)" fill="#5d5d72"/>
      <circle id="Elipse_12254" data-name="Elipse 12254" cx="1" cy="1" r="1" transform="translate(41.942 21.942)"/>
      <circle id="Elipse_12255" data-name="Elipse 12255" cx="1" cy="1" r="1" transform="translate(45.942 21.942)"/>
      <path id="Trazado_901219" data-name="Trazado 901219" d="M58.417,5.526a12.054,12.054,0,0,0-3.863.66,5.14,5.14,0,0,0,.5-2.344.842.842,0,0,0-1.437-.6c-.948.946-2.7,2.279-3.614,2.279a.818.818,0,0,0-.413.124,6.579,6.579,0,0,0-2.54,0,.823.823,0,0,0-.414-.124c-.918,0-2.666-1.333-3.614-2.279a.842.842,0,0,0-1.437.6,4,4,0,0,0,1.856,3.79,6.906,6.906,0,0,0-.466.548c-1.7-1.659-5.361-3.666-8.68-.763a.822.822,0,0,0-.085.1.8.8,0,0,0-.059.071.833.833,0,0,0-.12.269s0,.005,0,.008,0,.008,0,.012a.836.836,0,0,0-.005.29.709.709,0,0,0,.027.1.8.8,0,0,0,.03.117c.066.151,1.653,3.693,4.427,4a3.553,3.553,0,0,0,.389.021,4.347,4.347,0,0,0,2.769-1.122,6.661,6.661,0,0,0-.079.975.842.842,0,0,0,1.684,0,5.056,5.056,0,0,1,4.21-4.976v6.064a5.863,5.863,0,0,0,3.258,5.271l2.056,1.028c-.037.07-.081.136-.121.2-.047,0-.093-.014-.141-.014h-4.21a3.356,3.356,0,0,0-2.868,1.626,5.077,5.077,0,0,1-2.184-4.152V15.629a.842.842,0,0,0-1.684,0v1.684a6.759,6.759,0,0,0,3.375,5.819c0,.025-.008.049-.008.075a3.371,3.371,0,0,0,3.368,3.368h4.21a3.361,3.361,0,0,0,1.789-6.21,6.7,6.7,0,0,0,.737-3.051V12.262a6.711,6.711,0,0,0-.335-2.087,4.442,4.442,0,0,0,1.358.234A2.864,2.864,0,0,0,57.4,10.1c1.805-.93,1.857-3.447,1.857-3.731a.841.841,0,0,0-.842-.842ZM52.524,24.891h-4.21a1.684,1.684,0,0,1,0-3.368h4.21a1.684,1.684,0,0,1,0,3.368ZM40.59,8.466l-3.346-.743A4.6,4.6,0,0,1,40.59,8.466Zm-1.9,2.249a3.406,3.406,0,0,1-2.08-1.409l3.78.84A2.459,2.459,0,0,1,38.686,10.715Zm12.8,6.4a4.188,4.188,0,0,1-2.327-3.765V7.286a5.055,5.055,0,0,1,4.21,4.976v5.052a5.18,5.18,0,0,1-.054.716ZM56.629,8.6c-.525.269-1.364.1-2.425-.48a11.018,11.018,0,0,1,3.252-.864A1.991,1.991,0,0,1,56.629,8.6Z" transform="translate(-5.374 -0.474)"/>
      <path id="Trazado_901220" data-name="Trazado 901220" d="M28.368,55.207V52.526a.838.838,0,0,0-.247-.6l-1.684-1.684a.842.842,0,1,0-1.191,1.191l1.437,1.437v2.332a2.526,2.526,0,1,0,1.684,0Zm-.842,3.213a.842.842,0,1,1,.842-.842A.842.842,0,0,1,27.526,58.419Z" transform="translate(-3.951 -7.902)"/>
      <path id="Trazado_901221" data-name="Trazado 901221" d="M.842,5.052H7.229l4.805,4.805a.842.842,0,0,0,1.191-1.191L8.173,3.614a.838.838,0,0,0-.6-.247H5.052V.842A.841.841,0,0,0,4.21,0H.842A.841.841,0,0,0,0,.842V4.21a.841.841,0,0,0,.842.842Zm.842-3.368H3.368V3.368H1.684Z"/>
      <path id="Trazado_901222" data-name="Trazado 901222" d="M14.842,1.684h6.736a.842.842,0,1,0,0-1.684H14.842a.842.842,0,0,0,0,1.684Z" transform="translate(-2.213 0)"/>
      <path id="Trazado_901223" data-name="Trazado 901223" d="M14.842,5.684H18.21A.842.842,0,1,0,18.21,4H14.842a.842.842,0,0,0,0,1.684Z" transform="translate(-2.213 -0.632)"/>
      <path id="Trazado_901224" data-name="Trazado 901224" d="M47.842,16.526a.841.841,0,0,0,.842-.842v-.842a.842.842,0,1,0-1.684,0v.842A.841.841,0,0,0,47.842,16.526Z" transform="translate(-7.428 -2.213)"/>
      <path id="Trazado_901225" data-name="Trazado 901225" d="M53.842,14a.841.841,0,0,0-.842.842v.842a.842.842,0,1,0,1.684,0v-.842A.841.841,0,0,0,53.842,14Z" transform="translate(-8.377 -2.213)"/>
      <path id="Trazado_901226" data-name="Trazado 901226" d="M27.784,36.2H14.734a5.479,5.479,0,0,0,5.473-5.473V26.936a.842.842,0,0,0-1.684,0v3.789a3.793,3.793,0,0,1-3.789,3.789,6.321,6.321,0,0,0-6.315,6.315l0,5.557.328,3.284H5.415l.477-6.676a.759.759,0,0,0,0-.1L5.282,29.462H8.419a3.371,3.371,0,0,0,3.368-3.368V24.41a1.686,1.686,0,0,1,1.684-1.684,3.371,3.371,0,0,0,3.368-3.368V13.465h2.526l.032,0c.158,3.558,1.313,6.264,3.465,8.03a12.3,12.3,0,0,0,7.862,2.356,24.906,24.906,0,0,0,4.8-.5A.842.842,0,1,0,35.2,21.7c-2.833.566-8.063,1.121-11.267-1.507-1.8-1.476-2.753-3.828-2.86-6.977l6-.924a.842.842,0,0,0-.257-1.665L19.3,11.781H16a12.611,12.611,0,0,0-3.609.524.842.842,0,0,0,.241,1.649.86.86,0,0,0,.241-.035,10.855,10.855,0,0,1,2.285-.419v5.86a1.686,1.686,0,0,1-1.684,1.684A3.371,3.371,0,0,0,10.1,24.41v1.684a1.686,1.686,0,0,1-1.684,1.684H5.2L5.052,24.41a10.961,10.961,0,0,1,4.691-8.984.834.834,0,0,0,.319-.918.777.777,0,0,0,.041-.2.841.841,0,0,0-.842-.842H4.21A4.215,4.215,0,0,0,0,17.675V40.407a.842.842,0,0,0,1.516.505l2.453-3.27.24,5.281L3.37,54.661a.842.842,0,0,0,.839.9H10.1a.843.843,0,0,0,.838-.926L10.7,52.194h4.459a.842.842,0,0,0,.825-1.007L14.322,42.9l.113-.957a5.906,5.906,0,0,0,2.4.927v.907a.842.842,0,1,0,1.684,0v-.909a5.843,5.843,0,0,0,2.177-.775l.6.6A.842.842,0,0,0,22.486,41.5l-.474-.474a5.869,5.869,0,0,0,1.5-3.14h4.277a.842.842,0,0,0,0-1.684Zm-26.1,1.684V35.869l.671,1.117ZM3.369,24.448,3.907,36.3,1.684,32.6V17.675A2.529,2.529,0,0,1,4.21,15.149H7.427A12.663,12.663,0,0,0,3.369,24.448Zm1.745,29.43.18-2.526H8.92l.253,2.526Zm5.413-3.368-.254-2.526h3.35l.505,2.526Zm7.154-9.261a4.228,4.228,0,0,1-3.647-2.106.842.842,0,0,0-1.457.844,5.911,5.911,0,0,0,.334.5l-.276,2.349a.815.815,0,0,0,.011.264l.64,3.2H10.1V40.828a4.611,4.611,0,0,1,1.062-2.947H21.806a4.218,4.218,0,0,1-4.125,3.368Z" transform="translate(0 -1.677)"/>
      <path id="Trazado_901227" data-name="Trazado 901227" d="M50.058,32.072a.842.842,0,0,0-1.111.428l-2.228,5.015a5.975,5.975,0,0,1-3.132,2.723L44.912,35.6a.842.842,0,0,0-1.62-.461l-1.684,5.894a.794.794,0,0,0-.009.118.989.989,0,0,0-.022.113l0,8.5.328,3.284H38.573l.477-6.676a.853.853,0,0,0-.029-.291l-1.684-5.894c0-.014-.015-.024-.02-.039s0-.029-.008-.043L35.624,35.9a.842.842,0,0,0-1.564.625l1.667,4.168,1.632,5.71-.831,11.639a.844.844,0,0,0,.84.9h5.894a.843.843,0,0,0,.838-.926l-.161-1.6h3.533a.843.843,0,0,0,.838-.926l-.838-8.335V39.577a.852.852,0,0,0-.026-.131,7.661,7.661,0,0,0,.8-1.212l2.245-5.052a.842.842,0,0,0-.428-1.111Zm-4.27,8.949,0,6.217.328,3.284H43.346l-.085-.841V42.036A5.9,5.9,0,0,0,45.788,41.021ZM38.272,57.258l.18-2.526h3.625l.253,2.526Zm5.5-2.526-.254-2.526h2.773l.253,2.526Z" transform="translate(-5.374 -5.058)"/>
    </g>
  </g>
</svg>
