<svg xmlns="http://www.w3.org/2000/svg" width="85" height="85" viewBox="0 0 85 85">
  <g id="Grupo_1114869" data-name="Grupo 1114869" transform="translate(-180 -739)">
    <g id="Grupo_1098742" data-name="Grupo 1098742" transform="translate(180 739)">
      <rect id="Rect치ngulo_400898" data-name="Rect치ngulo 400898" width="85" height="85" rx="42.5" transform="translate(0 0)" fill="#f5c87f" opacity="0.859"/>
      <rect id="Rect치ngulo_400907" data-name="Rect치ngulo 400907" width="85" height="85" rx="42.5" transform="translate(0 0)" fill="none"/>
    </g>
    <g id="Grupo_1114868" data-name="Grupo 1114868" transform="translate(192.946 752.088)">
      <g id="Grupo_1114867" data-name="Grupo 1114867" transform="translate(1.644 2.469)">
        <path id="Trazado_906742" data-name="Trazado 906742" d="M156.463,282.223v7.632h-6.678V301.3h11.448V282.223Zm0,0" transform="translate(-133.568 -250.742)" fill="#a0d468"/>
        <path id="Trazado_906743" data-name="Trazado 906743" d="M45.785,250.223H64.865v11.448H45.785Zm0,0" transform="translate(-41.969 -222.558)" fill="#a0d468"/>
        <path id="Trazado_906744" data-name="Trazado 906744" d="M309.785,268.348v-14.31h.9a28.982,28.982,0,0,0,14.367-3.816,8.576,8.576,0,0,1-1.717,5.152l-1.144,1.526,6.678-.954-1.584,2.108a8.959,8.959,0,0,1-3.186,2.662l5.724,2.862-5.724,2.862a8.968,8.968,0,0,1,3.186,2.662l1.584,2.108-6.678-.954,1.144,1.526a8.576,8.576,0,0,1,1.717,5.151,29.018,29.018,0,0,0-6.935-2.843,28.645,28.645,0,0,0-7.431-.973h-.9Zm0,0" transform="translate(-274.488 -222.558)" fill="#a0d468"/>
        <path id="Trazado_906745" data-name="Trazado 906745" d="M22.371,38.257H17.6v-.9a28.987,28.987,0,0,0-3.816-14.367,8.576,8.576,0,0,1,5.151,1.717l1.526,1.144-.954-6.678,2.108,1.584a8.968,8.968,0,0,1,2.662,3.186l2.862-5.724L30,23.947a8.959,8.959,0,0,1,2.662-3.186l2.108-1.584-.954,6.678,1.526-1.144A8.574,8.574,0,0,1,40.5,22.993a29.017,29.017,0,0,0-2.843,6.935,28.626,28.626,0,0,0-.973,7.431v.9Zm0,0" transform="translate(-13.785 -18.224)" fill="#a0d468"/>
      </g>
      <path id="Trazado_906746" data-name="Trazado 906746" d="M251.509,258.223a1.914,1.914,0,0,0-1.908,1.908,1.908,1.908,0,0,0-3.816,0v20.987a1.908,1.908,0,1,0,3.816,0,1.908,1.908,0,1,0,3.816,0V260.131A1.914,1.914,0,0,0,251.509,258.223Zm0,0" transform="translate(-216.476 -227.135)" fill="#ecc19c"/>
      <path id="Trazado_906747" data-name="Trazado 906747" d="M44.68,190.039a1.908,1.908,0,1,0,0-3.816H23.693a1.908,1.908,0,1,0,0,3.816,1.908,1.908,0,0,0,0,3.816H44.68a1.908,1.908,0,0,0,0-3.816Zm0,0" transform="translate(-19.187 -163.721)" fill="#ecc19c"/>
      <path id="Trazado_906748" data-name="Trazado 906748" d="M55.2,48.439a10.023,10.023,0,0,0-2-2l5.905-2.952L53.2,40.537a10.038,10.038,0,0,0,2-2l2.964-3.951-6.688.955a9.612,9.612,0,0,0,1.681-5.408V28.49l-1.427.816a28.057,28.057,0,0,1-13.836,3.688,2.86,2.86,0,0,0-4.77-2.129A2.86,2.86,0,0,0,28.355,33H25.493V31.088a2.86,2.86,0,0,0,2.131-4.77,2.86,2.86,0,0,0-2.129-4.77A28.057,28.057,0,0,1,29.183,7.712L30,6.285H28.355a9.606,9.606,0,0,0-5.409,1.682L23.9,1.277,19.95,4.24a10.033,10.033,0,0,0-2,2L15,.336,12.047,6.241a10,10,0,0,0-2-2L6.1,1.277l.956,6.689A9.608,9.608,0,0,0,1.644,6.285H0L.816,7.712A28.062,28.062,0,0,1,4.5,21.548a2.861,2.861,0,0,0-2.13,4.77,2.861,2.861,0,0,0,2.132,4.77V42.535h12.4V53.983H28.355a2.861,2.861,0,0,0,4.77,2.132,2.861,2.861,0,0,0,4.77-2.13,28.062,28.062,0,0,1,13.836,3.688l1.427.816V56.845a9.613,9.613,0,0,0-1.682-5.409l6.689.955ZM28.355,34.9v1.908H25.493V34.9Zm-2.862,3.816h2.862v1.908H25.493Zm-1.908,1.908H21.677v-9.54h1.908Zm-11.448-9.54v9.54H10.23v-9.54Zm1.908,0h1.908v9.54H14.046Zm3.816,9.54v-9.54H19.77v9.54ZM6.223,9.719l3.37,2.527L8.639,5.568l.266.2a8.129,8.129,0,0,1,2.38,2.852l.853,1.706L15,4.6l2.862,5.724.854-1.707A8.118,8.118,0,0,1,21.1,5.767l.266-.2-.954,6.678,3.368-2.527a7.689,7.689,0,0,1,2.891-1.335,29.978,29.978,0,0,0-3.08,13.165H20.723v-.377A10.368,10.368,0,0,1,22.471,15.4l-1.587-1.058a12.275,12.275,0,0,0-2.068,6.83v.377H15.954V12.962H14.046v8.586H11.184v-.377a12.275,12.275,0,0,0-2.068-6.83L7.528,15.4a10.376,10.376,0,0,1,1.748,5.772v.377H6.412A29.972,29.972,0,0,0,3.332,8.383,7.688,7.688,0,0,1,6.223,9.719ZM3.552,28.226a.956.956,0,0,1,.954-.954H17.862V25.364H4.506a.954.954,0,0,1,0-1.908H25.493a.954.954,0,1,1,0,1.908H19.77v1.908h5.724a.954.954,0,1,1,0,1.908H4.506A.955.955,0,0,1,3.552,28.226Zm2.862,2.862H8.322v9.54H6.414ZM28.355,42.535v1.908h-9.54V42.535Zm-9.54,3.816h9.54v1.908h-9.54Zm0,5.724V50.167h9.54v1.908Zm17.171,1.908a.954.954,0,1,1-1.908,0V48.259H32.171v5.724a.954.954,0,0,1-1.908,0V33a.954.954,0,1,1,1.908,0V46.351h1.908V33a.954.954,0,0,1,1.908,0ZM47.2,48.9l2.527,3.368a7.678,7.678,0,0,1,1.335,2.891,29.984,29.984,0,0,0-13.164-3.08V49.213h.377a10.384,10.384,0,0,1,5.772,1.748L45.1,49.373a12.28,12.28,0,0,0-6.83-2.068h-.377V44.443h8.586V42.535H37.895V39.673h.377a12.28,12.28,0,0,0,6.83-2.068l-1.058-1.587a10.38,10.38,0,0,1-5.772,1.748h-.377V34.9a29.973,29.973,0,0,0,13.164-3.08,7.666,7.666,0,0,1-1.335,2.891L47.2,38.08l6.678-.954-.2.267a8.12,8.12,0,0,1-2.851,2.379l-1.708.855,5.725,2.862-5.725,2.862,1.708.854a8.133,8.133,0,0,1,2.852,2.379l.2.267Zm0,0"/>
    </g>
  </g>
</svg>
