<svg xmlns="http://www.w3.org/2000/svg" width="85" height="85" viewBox="0 0 85 85">
  <g id="Grupo_1114866" data-name="Grupo 1114866" transform="translate(-305.051 -3376)">
    <circle id="Elipse_12201" data-name="Elipse 12201" cx="42.5" cy="42.5" r="42.5" transform="translate(305.051 3376)" fill="#f5c87f"/>
    <g id="Grupo_1113803" data-name="Grupo 1113803" transform="translate(320.051 3389)">
      <g id="Grupo_1113801" data-name="Grupo 1113801" transform="translate(0.82 1.168)">
        <path id="Trazado_901358" data-name="Trazado 901358" d="M61.178,366.144h-53a.681.681,0,0,1-.681-.681v-16.31H61.86v16.31A.681.681,0,0,1,61.178,366.144Z" transform="translate(-7.501 -312.133)" fill="#e9a89e"/>
        <path id="Trazado_901359" data-name="Trazado 901359" d="M7.5,349.153H61.859v2.025H7.5Z" transform="translate(-7.5 -312.133)" fill="#bd8580"/>
        <path id="Trazado_901360" data-name="Trazado 901360" d="M225.026,78.685c.767-.04,1.02-2.8,1.753-3.2,1.909-.991,2.46-3,2.27-5.1-.028-.449-.1-.962-.12-1.412a17.941,17.941,0,0,1,.439-5.549,11.762,11.762,0,0,1,4.506-6.87,10.252,10.252,0,0,1,3.816-1.66,1.185,1.185,0,0,1,.578,2.3,7.732,7.732,0,0,0-2.791,1.48c-2.777,2.3-3.438,6.093-3,9.519.093.749.259,1.514.354,2.262a9.89,9.89,0,0,1-.618,5.062,9.208,9.208,0,0,1-6.313,5.091,8.78,8.78,0,0,1-1.24.24c-3.09.114-3.706-2.062-.632-2.422Z" transform="translate(-198.545 -50.035)" fill="#6ce79a"/>
        <path id="Trazado_901361" data-name="Trazado 901361" d="M313.2,54.895a10.25,10.25,0,0,0-3.816,1.66,10.525,10.525,0,0,0-2.594,2.615,4.6,4.6,0,0,0,1.915,1.845l.291.148a7.916,7.916,0,0,1,1.991-2.491,7.733,7.733,0,0,1,2.791-1.48,1.185,1.185,0,0,0-.578-2.3Z" transform="translate(-274.057 -50.036)" fill="#00d8a2"/>
        <path id="Trazado_901362" data-name="Trazado 901362" d="M230.921,229.037a4.472,4.472,0,0,0-2.272-4.117,3.991,3.991,0,0,1-1.871,2.013c-.733.4-.986,3.163-1.753,3.2l-1-.26c-3.074.359-2.458,2.535.632,2.421a8.779,8.779,0,0,0,1.24-.24A9.93,9.93,0,0,0,230.921,229.037Z" transform="translate(-198.544 -201.487)" fill="#00d8a2"/>
        <ellipse id="Elipse_12270" data-name="Elipse 12270" cx="3.898" cy="2.741" rx="3.898" ry="2.741" transform="translate(23.737 31.12) rotate(-68.156)" fill="#ffe270"/>
        <path id="Trazado_901363" data-name="Trazado 901363" d="M224.069,287.948a13.183,13.183,0,0,0,.88-6.717,3.554,3.554,0,0,0-5.876-2.134l-1.024.907s-3.118,4.2-3.181,8.634a9.776,9.776,0,0,1-.78,3.679,2.126,2.126,0,0,0,2.52,2.885A11.9,11.9,0,0,0,224.069,287.948Z" transform="translate(-191.338 -248.938)" fill="#ff982a"/>
        <path id="Trazado_901364" data-name="Trazado 901364" d="M160.2,265.607c.062-4.431,3.181-8.634,3.181-8.634l-.114-1.363a3.554,3.554,0,0,0-5.724-2.513,13.184,13.184,0,0,0-4,5.467c-2.048,5.113-.807,10.07,2.18,12.436a2.121,2.121,0,0,0,3.161-.62A9.958,9.958,0,0,0,160.2,265.607Z" transform="translate(-136.669 -225.906)" fill="#ffab56"/>
        <g id="Grupo_1113800" data-name="Grupo 1113800" transform="translate(0 32.485)">
          <path id="Trazado_901365" data-name="Trazado 901365" d="M61.859,312.221H7.5v-3.854a.681.681,0,0,1,.681-.681h53a.681.681,0,0,1,.681.681Z" transform="translate(-7.5 -307.685)" fill="#6ce79a"/>
          <path id="Trazado_901366" data-name="Trazado 901366" d="M7.5,308.366v1.344H61.859v-1.344a.681.681,0,0,0-.681-.681h-53A.681.681,0,0,0,7.5,308.366Z" transform="translate(-7.5 -307.685)" fill="#00d8a2"/>
        </g>
        <path id="Trazado_901367" data-name="Trazado 901367" d="M318.3,27.531l1.648.337,2.335-.929,3.129-2.886,1.712-3.347-.772-1.062c-2.669.456-5.616.361-8.156,2.269a2.617,2.617,0,0,0-1.012,2.507l.25,1.553A2.616,2.616,0,0,0,318.3,27.531Z" transform="translate(-283.286 -18.662)" fill="#6ce79a"/>
        <path id="Trazado_901368" data-name="Trazado 901368" d="M335.716,11.656a20.8,20.8,0,0,1-5.951,7.46,2.6,2.6,0,0,1-2.1.428,2.612,2.612,0,0,0,.527.356l1.381.7a2.609,2.609,0,0,0,2.721-.209,21.414,21.414,0,0,0,6.769-9.371.259.259,0,0,0-.368-.316A9.4,9.4,0,0,1,335.716,11.656Z" transform="translate(-292.647 -10.676)" fill="#00d8a2"/>
      </g>
      <g id="Grupo_1113802" data-name="Grupo 1113802" transform="translate(0 0)">
        <path id="Trazado_901369" data-name="Trazado 901369" d="M55.179,497H.82a.82.82,0,0,0,0,1.641H55.179a.82.82,0,0,0,0-1.641Z" transform="translate(0 -442.641)"/>
        <path id="Trazado_901370" data-name="Trazado 901370" d="M64.221,421.513a.82.82,0,0,0,.091,1.156l.722.617a.82.82,0,0,0,1.065-1.248l-.722-.617A.821.821,0,0,0,64.221,421.513Z" transform="translate(-57.022 -375.155)"/>
        <path id="Trazado_901371" data-name="Trazado 901371" d="M375.829,397.833a.82.82,0,1,0,1.065-1.248l-.722-.617a.82.82,0,0,0-1.065,1.248Z" transform="translate(-333.824 -352.485)"/>
        <path id="Trazado_901372" data-name="Trazado 901372" d="M115.978,438.141a.818.818,0,0,0,.593-.253l1.156-1.208a.82.82,0,1,0-1.185-1.134l-1.156,1.208a.82.82,0,0,0,.592,1.387Z" transform="translate(-102.563 -387.683)"/>
        <path id="Trazado_901373" data-name="Trazado 901373" d="M56,369.093a.82.82,0,0,0-1.16.025l-1.156,1.208a.82.82,0,0,0,1.185,1.134l1.156-1.208A.82.82,0,0,0,56,369.093Z" transform="translate(-47.611 -328.521)"/>
        <path id="Trazado_901374" data-name="Trazado 901374" d="M274.9,459.273a.818.818,0,0,0,.593-.253l1.156-1.208a.82.82,0,0,0-1.185-1.134l-1.156,1.208a.82.82,0,0,0,.592,1.387Z" transform="translate(-244.1 -406.503)"/>
        <path id="Trazado_901375" data-name="Trazado 901375" d="M400.274,454.59a.82.82,0,0,0,0-1.641h-1.781a.82.82,0,0,0,0,1.641Z" transform="translate(-354.178 -403.408)"/>
        <path id="Trazado_901376" data-name="Trazado 901376" d="M467.458,441.947a.821.821,0,0,0,.741-.467l.482-1.007a.82.82,0,1,0-1.48-.708l-.482,1.007a.821.821,0,0,0,.739,1.175Z" transform="translate(-415.6 -391.252)"/>
        <path id="Trazado_901377" data-name="Trazado 901377" d="M193.817,460.534a.821.821,0,0,0,.766-1.114l-.385-1.006a.82.82,0,1,0-1.532.587l.385,1.006A.821.821,0,0,0,193.817,460.534Z" transform="translate(-171.544 -407.807)"/>
        <path id="Trazado_901378" data-name="Trazado 901378" d="M29.25,452.555a.817.817,0,0,0,.472-.15l.807-.57a.82.82,0,0,0-.946-1.34l-.807.57a.82.82,0,0,0,.474,1.491Z" transform="translate(-25.319 -401.089)"/>
        <path id="Trazado_901379" data-name="Trazado 901379" d="M443.306,391.407a.82.82,0,1,0,0-1.641h-.626a.82.82,0,0,0,0,1.641Z" transform="translate(-393.532 -347.136)"/>
        <path id="Trazado_901380" data-name="Trazado 901380" d="M330.426,448.819a.82.82,0,1,0,0-1.641H329.8a.82.82,0,1,0,0,1.641Z" transform="translate(-292.998 -398.269)"/>
        <path id="Trazado_901381" data-name="Trazado 901381" d="M.82,34.473H55.179a.82.82,0,0,0,0-1.641H35.141a4.258,4.258,0,0,0-2.171-2.716,8.8,8.8,0,0,0,2.181-2.942,3.205,3.205,0,0,1,2.19-.161.82.82,0,0,0,.434-1.582,5.647,5.647,0,0,0-2-.148,10.706,10.706,0,0,0,.235-2.176.82.82,0,0,0-.814-.827h-.007a.82.82,0,0,0-.82.814,8.415,8.415,0,0,1-.633,3.226l-.008.018a6.957,6.957,0,0,1-1.432,2.154,3.874,3.874,0,0,0-1.126-2.649,6.473,6.473,0,0,0,.975-4.388,19.422,19.422,0,0,1,.3-6.7,11.7,11.7,0,0,1,2.325-4.683,3.445,3.445,0,0,0,.868.844c-2.032,2.93-1.949,6.542-1.7,8.512.024.193.054.4.1.655a.82.82,0,1,0,1.619-.262c-.038-.234-.065-.423-.087-.6a14.556,14.556,0,0,1-.115-1.617,2.817,2.817,0,0,1,2.472-.554.82.82,0,0,0,.7-1.484,3.679,3.679,0,0,0-3.057.109A8.714,8.714,0,0,1,37.1,11.687l.277.142a3.449,3.449,0,0,0,1.569.38,3.4,3.4,0,0,0,2-.654,22.155,22.155,0,0,0,7.312-10.48A.82.82,0,0,0,47.006.15a10.735,10.735,0,0,1-5.023,1.435,26.427,26.427,0,0,0-3.043.495.82.82,0,0,0,.386,1.594,25.24,25.24,0,0,1,2.856-.461,18.86,18.86,0,0,0,3.768-.724,20.272,20.272,0,0,1-5.969,7.738,1.778,1.778,0,0,1-1.862.139c-1.465-.748-1.407-.717-1.472-.755a.835.835,0,0,0,.049-.125c.345-1.16,2.51-2.072,3.242-2.3a.82.82,0,0,0-.485-1.567,8.562,8.562,0,0,0-3.74,2.3l-.181-1.127a1.771,1.771,0,0,1,.668-1.7c.135-.1.276-.2.428-.3a.82.82,0,1,0-.9-1.375c-.186.121-.358.242-.525.369a3.409,3.409,0,0,0-1.3,3.268l.206,1.283a12.43,12.43,0,0,0-2.074,2.868A3.331,3.331,0,0,0,29.973,9.95a.82.82,0,0,0-.289,1.615,1.839,1.839,0,0,1,1.479,1.7q-.179.537-.315,1.091a18.577,18.577,0,0,0-.48,5.49,4.985,4.985,0,0,0-1.257-.427.82.82,0,0,0-.274,1.618,2.712,2.712,0,0,1,1.7,1.073,4.441,4.441,0,0,1-.889,3.014,4.176,4.176,0,0,0-3.824,2.123l-.108-.052a4.3,4.3,0,0,0-4.339.375.82.82,0,0,0,.945,1.341,2.674,2.674,0,0,1,2.7-.229A2.714,2.714,0,0,1,26.6,30.939l.089,1.066c-.127.186-.313.467-.532.827h-7.1a12.84,12.84,0,0,1,1.129-1.767.82.82,0,1,0-1.3-.995,14.626,14.626,0,0,0-1.654,2.761H.82a.82.82,0,1,0,0,1.64Zm27.292-1.641a9.516,9.516,0,0,1,.987-.892,2.709,2.709,0,0,1,2.77-.52A2.674,2.674,0,0,1,33.4,32.833ZM29.7,26.82c.792.317,1.145,1.5.874,2.795a4.322,4.322,0,0,0-2.368.935,4.333,4.333,0,0,0-1.069-2.309C27.834,27.118,28.909,26.5,29.7,26.82Z" transform="translate(0 0)"/>
        <path id="Trazado_901382" data-name="Trazado 901382" d="M55.179,341.653H.82a.82.82,0,0,0,0,1.641H15.864a12.408,12.408,0,0,0,.088,1.341H14.607a.82.82,0,0,0-.695.384l-1.13,1.8a.82.82,0,1,0,1.389.872l.889-1.415h1.209a10.28,10.28,0,0,0,1.14,2.681l-1.211.886a.82.82,0,1,0,.969,1.324l1.221-.894a8.028,8.028,0,0,0,.974.915,2.943,2.943,0,0,0,3.642.006,2.988,2.988,0,0,0,.3.415,2.939,2.939,0,0,0,1.192.825v.793a.82.82,0,1,0,1.641,0v-.677q.083-.017.165-.04a10.346,10.346,0,0,0,3.247-1.566l.683.652a.82.82,0,0,0,1.134-1.186l-.535-.512a14.012,14.012,0,0,0,2.559-3.235l.681.869a.82.82,0,0,0,1.291-1.012,15.01,15.01,0,0,0-1.17-1.464,15.161,15.161,0,0,0,.623-1.761H55.179a.82.82,0,1,0,0-1.64Zm-33.743,8.5a1.294,1.294,0,0,1-1.055-.255,6.625,6.625,0,0,1-1.189-1.231v0l-.009-.012a9.2,9.2,0,0,1-1.678-5.364h6.206a11.673,11.673,0,0,0-.18,1.848,9.089,9.089,0,0,1-1.212,4.38A1.3,1.3,0,0,1,21.436,350.158Zm11.355-6a11.147,11.147,0,0,1-6.916,6.769,1.305,1.305,0,0,1-1.566-1.73,10.55,10.55,0,0,0,.863-4.031,10.263,10.263,0,0,1,.209-1.871H33.1Q32.962,343.729,32.791,344.157Z" transform="translate(0 -304.285)"/>
      </g>
    </g>
  </g>
</svg>
