<svg xmlns="http://www.w3.org/2000/svg" width="59.664" height="48.931" viewBox="0 0 59.664 48.931">
  <path id="Trazado_906738" data-name="Trazado 906738" d="M58.772,82.375H56.027a28.477,28.477,0,0,1,3.526-13.206.864.864,0,0,0-1.4-1.009A42.826,42.826,0,0,0,53.4,73.38c.092-6.639,2.234-12.59,4.378-18.769a.865.865,0,0,0-1.517-.831c-3.295,4.505-6.422,9.012-8.348,14.294A54.274,54.274,0,0,0,39.569,53.78a1.029,1.029,0,0,0-1.539,0,75.827,75.827,0,0,0-4.493,6.314L33,57.6a.874.874,0,1,0-1.708.37l.95,4.392a44.236,44.236,0,0,0-2.556,5.718,44.183,44.183,0,0,0-2.552-5.711l2.658-11.328.694,3.206a.874.874,0,1,0,1.708-.37L30.677,46.88c-.31-1.162-1.475-1.045-1.7-.015L25.857,60.14a70.53,70.53,0,0,0-4.216-5.952.955.955,0,0,0-1.871,0A52.289,52.289,0,0,0,11.73,68.074,54.214,54.214,0,0,0,3.382,53.78a.871.871,0,0,0-1.517.831C4.159,60.727,6.15,66.747,6.243,73.38A47.728,47.728,0,0,0,1.492,68.16c-.822-.832-1.739.333-1.4,1.009A29.238,29.238,0,0,1,3.619,82.375H.874A.874.874,0,0,0,0,83.248V92.36a2.624,2.624,0,0,0,2.621,2.621H11.3a.874.874,0,1,0,0-1.747H2.621a.875.875,0,0,1-.874-.874V87.742H40.835a.874.874,0,1,0,0-1.747H1.747V84.122H57.9v1.872H44.642a.874.874,0,0,0,0,1.747H57.9V92.36a.875.875,0,0,1-.874.874H15.111a.874.874,0,1,0,0,1.747H57.024a2.624,2.624,0,0,0,2.621-2.621V83.248a.874.874,0,0,0-.874-.874Zm-53.406,0v0a27.957,27.957,0,0,0-1.622-9.35,26.067,26.067,0,0,1,5.03,9.352H5.366Zm3.917-3.7a27.8,27.8,0,0,0-1.337-2.668A44.012,44.012,0,0,0,5.689,59.905a42.521,42.521,0,0,1,5.13,10.945A44.179,44.179,0,0,0,9.283,78.679Zm6.525.82.359,2.875H10.8a42.867,42.867,0,0,1,6.966-22.463A44.479,44.479,0,0,0,15.808,79.5Zm5.763,2.875H17.928a49.538,49.538,0,0,1,2.778-25.4,46.894,46.894,0,0,1,3.49,16.4,45.486,45.486,0,0,0-4.751-5.22c-.965-.963-1.883.071-1.4,1.009a28.66,28.66,0,0,1,3.526,13.206Zm1.747,0v0a27.956,27.956,0,0,0-1.621-9.35,26.068,26.068,0,0,1,5.03,9.352H23.319Zm3.917-3.7A27.8,27.8,0,0,0,25.9,76.011a44,44,0,0,0-2.257-16.1,42.683,42.683,0,0,1,5.128,10.946A44.161,44.161,0,0,0,27.236,78.678Zm3.585,3.7H28.755a42.771,42.771,0,0,1,6.968-22.468,43.979,43.979,0,0,0-2.256,16.1A27.8,27.8,0,0,0,30.82,82.375Zm5.225,0-1.274,0H32.637a26.065,26.065,0,0,1,5.03-9.352,27.952,27.952,0,0,0-1.622,9.35Zm6.058-3.09-.386,3.092H37.793A29.974,29.974,0,0,1,41.32,69.169c.444-.909-.488-1.86-1.4-1.009a37.68,37.68,0,0,0-4.75,5.218A47.868,47.868,0,0,1,38.8,56.605c2.846,7.272,4.281,14.861,3.3,22.678Zm3.138,3.092H43.478c1.053-7.594.855-15.139-1.6-22.471A42.521,42.521,0,0,1,47,70.851,44.2,44.2,0,0,0,45.242,82.375Zm3.812,0H46.989a42.79,42.79,0,0,1,6.968-22.47A44.007,44.007,0,0,0,51.7,76.011,27.814,27.814,0,0,0,49.054,82.375Zm5.226,0-3.409,0a26.065,26.065,0,0,1,5.03-9.352A27.952,27.952,0,0,0,54.279,82.373Z" transform="translate(0 -46.05)"/>
</svg>
