<svg xmlns="http://www.w3.org/2000/svg" width="90.914" height="90.914" viewBox="0 0 90.914 90.914">
  <g id="Grupo_1114853" data-name="Grupo 1114853" transform="translate(-807.439 -1359.322)">
    <g id="Grupo_1105799" data-name="Grupo 1105799" transform="translate(807.439 1359.322)">
      <rect id="Rect치ngulo_400898" data-name="Rect치ngulo 400898" width="90.914" height="90.914" rx="45.457" transform="translate(0 0)" fill="#fff" opacity="0.859"/>
      <rect id="Rect치ngulo_400907" data-name="Rect치ngulo 400907" width="90.914" height="90.914" rx="45.457" transform="translate(0 0)" fill="none"/>
    </g>
    <g id="Grupo_1113703" data-name="Grupo 1113703" transform="translate(827.447 1379.33)">
      <g id="Grupo_1113701" data-name="Grupo 1113701" transform="translate(0.746 0.746)">
        <path id="Trazado_900975" data-name="Trazado 900975" d="M43.971,36.984l3.713.4-3.152-19.3a1.01,1.01,0,0,0-.716.3c.526-.84-.238-2.133-1.233-2.912s-2.413-1.021-3.107-.326c.414-.864-.323-2.142-1.415-2.825a2.874,2.874,0,0,0-3.212-.126c.325-.8-.468-1.919-1.814-2.485a3.346,3.346,0,0,0-3.507.228c0-.755-1.038-1.466-2.152-1.695-1.054-.217-2.128-.382-3.23-.5A44.456,44.456,0,0,0,19.369,7.5a1.563,1.563,0,0,0-.432.062c.7,1.011.62,2.274,1.746,3.712,2.923,3.733,23.288,25.711,23.288,25.711Z" transform="translate(-17.8 -7.5)" fill="#ffe07d"/>
        <path id="Trazado_900976" data-name="Trazado 900976" d="M37.723,21.047q-.884-.826-1.741-1.591a2.94,2.94,0,0,0-1.751-.812,14.718,14.718,0,0,0-.678,5.477A68.55,68.55,0,0,0,35.4,35.956q-.854-.21-1.725-.4c-.566-.509-1.2-1.1-1.8-1.7,0,0-17.569-18.289-20.492-22.022-1.126-1.438-2.041-2.7-2.74-3.712A1.57,1.57,0,0,0,7.5,9.629c0,1.35,2.814,11.2,21.03,29.412h9.941Z" transform="translate(-7.5 -8.06)" fill="#ffd064"/>
        <path id="Trazado_900977" data-name="Trazado 900977" d="M58.441,69.465,57.207,82.013l-7.462,1.011L48,77.483S30.426,59.194,27.5,55.461c.512,6.261,1.91,14.481,15.132,27.7s18.419,15.86,24.618,15.86c1.843,0,4.991-1.522,6.752-2.73a19.81,19.81,0,0,0,.917-5.353l-.114-2.1c-.586-5.064-3.635-9.625-13.57-19.743Z" transform="translate(-25.514 -50.693)" fill="#bce097"/>
        <path id="Trazado_900978" data-name="Trazado 900978" d="M28.473,56.986c3.81-2.383,11.954-3.95,11.954-3.95,7.293,2.384,13.261,5.707,16.481,8.927a18.2,18.2,0,0,0-.114-2.1c-3.245-3.185-9.158-6.459-16.367-8.816,0,0,.943-7.949,2.8-10.927q-1.075-1.095-2.259-2.278l-.538-.535q-1.388-1.374-2.7-2.6l-.194,15.489q.318,1.248.674,2.459l-4.949-.863-.972-.972q-1.184-1.184-2.3-2.31c-2.1-.344-4.251-.595-6.42-.736A14.76,14.76,0,0,0,19.8,48c-7.8-9.031-9.8-15.26-10.315-21.521C8.115,24.73,7.5,23.7,7.5,23.285c0,11.747,3.778,19.547,16.126,31.9C36.85,68.4,41.334,71.123,47.747,71.123c2.645,0,6.614-1.1,7.335-1.825a5.845,5.845,0,0,0,.907-1.982,21.229,21.229,0,0,1-6.752,1.736c-5.838,0-10.078-1.773-20.766-12.066Z" transform="translate(-7.5 -21.716)" fill="#9cd169"/>
        <g id="Grupo_1113700" data-name="Grupo 1113700" transform="translate(0 0)">
          <path id="Trazado_900979" data-name="Trazado 900979" d="M40.426,292.566a69.382,69.382,0,0,0-16.887-3.28A14.632,14.632,0,0,0,8.8,298.931a22.945,22.945,0,0,0-1.3,7.746l.806-.806A45.425,45.425,0,0,1,40.426,292.566Z" transform="translate(-7.5 -261.246)" fill="#dcefc9"/>
          <path id="Trazado_900980" data-name="Trazado 900980" d="M292.742,36.37A45.264,45.264,0,0,1,305.824,8.354l.854-.854a22.945,22.945,0,0,0-7.746,1.3,14.632,14.632,0,0,0-9.644,14.738,68.685,68.685,0,0,0,1.988,12.437Z" transform="translate(-261.246 -7.5)" fill="#dcefc9"/>
        </g>
      </g>
      <g id="Grupo_1113702" data-name="Grupo 1113702" transform="translate(0 0)">
        <path id="Trazado_900981" data-name="Trazado 900981" d="M40.993,50.9c-6.7,0-11.346-2.961-23.537-15.055q-.445.173-.887.356A44.3,44.3,0,0,0,2.126,45.85l-.854.854A.746.746,0,0,1,0,46.177a23.843,23.843,0,0,1,1.289-7.838,15.221,15.221,0,0,1,6.042-7.774,15.468,15.468,0,0,1,3.48-1.719A46.779,46.779,0,0,1,2.5,16.164,35.163,35.163,0,0,1,0,2.322V2.315A2.317,2.317,0,0,1,2.315,0,44.92,44.92,0,0,1,7.172.245C8.3.367,9.413.54,10.472.758a4.059,4.059,0,0,1,2.353,1.336,4.7,4.7,0,0,1,3.444.174,3.916,3.916,0,0,1,2.2,2.057,4.241,4.241,0,0,1,2.932.611,3.9,3.9,0,0,1,1.8,2.325,4,4,0,0,1,2.787.872,4.369,4.369,0,0,1,1.652,2.46,2.929,2.929,0,0,1,1.161.351,15.452,15.452,0,0,1,1.763-3.611,15.22,15.22,0,0,1,7.774-6.042A23.839,23.839,0,0,1,46.176,0,.746.746,0,0,1,46.7,1.273l-.854.854a44.559,44.559,0,0,0-6.488,8.233.746.746,0,1,1-1.272-.779,46.057,46.057,0,0,1,6.221-8.017A21.928,21.928,0,0,0,38.827,2.7a13.743,13.743,0,0,0-7.019,5.455,13.907,13.907,0,0,0-1.842,4.091.745.745,0,0,1-.044.168,14,14,0,0,0-.391,4.346,66.209,66.209,0,0,0,.829,6.965.738.738,0,0,1,.02.115q.467,2.679,1.153,5.346a46.372,46.372,0,0,1,5.029-16.91.746.746,0,1,1,1.321.691,44.118,44.118,0,0,0-2.038,4.493c1.4,1.411,2.627,2.672,3.746,3.847a.746.746,0,0,1-1.08,1.028c-.979-1.029-2.042-2.123-3.233-3.329a44.8,44.8,0,0,0-2.394,12.027,53.129,53.129,0,0,1,14.76,6.912.746.746,0,0,1-.863,1.216,48.863,48.863,0,0,0-11.6-5.79q-.808-.289-1.631-.56A44.262,44.262,0,0,0,19,35.274c6.039,5.965,9.994,9.394,13.137,11.4a15.018,15.018,0,0,0,8.856,2.735c2.729,0,6.358-1.157,6.808-1.606h0c.45-.45,1.606-4.08,1.606-6.808,0-5.769-2.821-9.872-8.748-16.359a.746.746,0,1,1,1.1-1.006c3.691,4.04,5.943,7.021,7.3,9.666a15.824,15.824,0,0,1,1.838,7.7c0,2.665-1.108,6.927-2.043,7.863,0,0,0,0,0,0-.936.936-5.2,2.043-7.863,2.043ZM15.824,29.5A13.9,13.9,0,0,0,2.7,38.827a21.932,21.932,0,0,0-1.134,5.484,46.035,46.035,0,0,1,27.6-12.779,69.148,69.148,0,0,0-9.43-1.737.746.746,0,1,1,.166-1.482q1.764.2,3.532.49c-4.343-4.363-8.178-8.3-11.418-11.729A.746.746,0,0,1,13.1,16.05l.3.312,2.96-2.96q-1.519-1.436-2.827-2.642l-2.78,2.78.316.34A.746.746,0,0,1,9.973,14.9a127.768,127.768,0,0,1-8.4-9.667,31.287,31.287,0,0,0,2.3,10.365c1.674,4.047,4.384,8.12,8.516,12.8a15.52,15.52,0,0,1,4.458-.349.746.746,0,1,1-.1,1.488q-.469-.031-.934-.031Zm10.192-.222c1.436.292,2.861.628,4.264,1q-.571-2.128-1.007-4.272l-.342-.342-3.263,3.263.347.348Zm-4.123-4.15q1.326,1.344,2.723,2.746l3.26-3.26Q26.45,23.2,25.129,21.893ZM18.143,21.3q1.308,1.345,2.7,2.765l3.22-3.22q-1.445-1.42-2.766-2.7Zm8.041-.463q1.278,1.26,2.616,2.592-.379-2.306-.6-4.61Zm-11.76-3.4q1.285,1.347,2.68,2.789l3.126-3.126q-1.475-1.426-2.792-2.678Zm7.931-.353q1.344,1.305,2.766,2.7l2.618-2.618a4.251,4.251,0,0,0-1.123-1.764,3.413,3.413,0,0,0-1.6-.984Zm-3.863-3.715q1.346,1.281,2.792,2.678L23.832,13.5a4.413,4.413,0,0,0-1.34-1.649,3.011,3.011,0,0,0-1.677-.8Zm7.689-.111a6.415,6.415,0,0,1,1.456,1.06,5.693,5.693,0,0,1,.409.427,15.334,15.334,0,0,1,.338-2.32,2.546,2.546,0,0,0-.611-.31.485.485,0,0,0-.483.034l0,0ZM25.07,14.375h0ZM7.14,9.571c.759.856,1.62,1.809,2.6,2.873L12.429,9.75C11.361,8.774,10.4,7.916,9.547,7.164Zm14.891.266a5.865,5.865,0,0,1,1.41.868,7.44,7.44,0,0,1,1.5,1.689l1.213-1.212a.479.479,0,0,0,.029-.172,2.659,2.659,0,0,0-1.115-1.7c-.805-.63-1.784-.724-2.121-.386Zm-7.447-.131q1.348,1.245,2.827,2.643l2.174-2.174a4.081,4.081,0,0,0-1.4-1.614,2.956,2.956,0,0,0-1.778-.678ZM17.67,6.619a5.735,5.735,0,0,1,1.383.728,6.33,6.33,0,0,1,1.636,1.722l1.09-1.09a.584.584,0,0,0,.013-.125A2.366,2.366,0,0,0,20.61,6.2a2.252,2.252,0,0,0-2.289-.231l-.005.005ZM10.6,6.107Q11.945,7.289,13.484,8.7l1.659-1.659a4.026,4.026,0,0,0-1.551-1.41A2.868,2.868,0,0,0,11.613,5.1ZM3.657,5.475c.631.789,1.445,1.766,2.5,2.973L8.419,6.183c-1.227-1.055-2.21-1.859-3-2.472Zm9.31-1.732a6.493,6.493,0,0,1,1.357.584,6.067,6.067,0,0,1,1.9,1.629l.9-.9V5.05c0-.357-.5-1.014-1.432-1.408a2.717,2.717,0,0,0-2.686.063ZM6.484,2.649Q7.795,3.677,9.476,5.126l2.15-2.15a2.668,2.668,0,0,0-1.454-.757c-.9-.186-1.845-.337-2.807-.451Zm5.139,2.439h0ZM1.491,2.294A7.263,7.263,0,0,0,2.737,4.287l2.7-2.7c-.992-.066-2.024-.1-3.119-.1a.825.825,0,0,0-.823.8Z" transform="translate(0 0)"/>
      </g>
    </g>
  </g>
</svg>
