<svg xmlns="http://www.w3.org/2000/svg" width="90.914" height="90.914" viewBox="0 0 90.914 90.914">
  <g id="Grupo_1114855" data-name="Grupo 1114855" transform="translate(6873.611 10248.678)">
    <g id="Grupo_1108928" data-name="Grupo 1108928" transform="translate(-6873.611 -10248.678)">
      <rect id="Rectángulo_400898" data-name="Rectángulo 400898" width="90.914" height="90.914" rx="45.457" transform="translate(0 0)" fill="#fff" opacity="0.859"/>
      <rect id="Rectángulo_400907" data-name="Rectángulo 400907" width="90.914" height="90.914" rx="45.457" transform="translate(0 0)" fill="none"/>
    </g>
    <g id="Artwork" transform="translate(-6865.691 -10250.258)">
      <path id="Trazado_900998" data-name="Trazado 900998" d="M58.5,229.988a22.792,22.792,0,0,0-7.425-9.466.77.77,0,0,0-.18-.1l-8.773-3.265a8.334,8.334,0,0,0-1.411-.089c-14.2.037-17.837-.106-18.522.164l-8.011,3.175a.766.766,0,0,0-.163.089,22.771,22.771,0,0,0-7.454,9.488.76.76,0,0,0,.7,1.062H57.806a.76.76,0,0,0,.7-1.062Z" transform="translate(-0.095 -155.473)" fill="#35a17d"/>
      <path id="Trazado_900999" data-name="Trazado 900999" d="M58.441,230.721A.76.76,0,0,0,58.5,230c-.192-.443-.4-.876-.611-1.3-24.662-.354-31.514-8.284-33.307-11.616h-.232a12.393,12.393,0,0,0-2.161.164l-8.01,3.177a.766.766,0,0,0-.163.089A22.771,22.771,0,0,0,6.564,230a.76.76,0,0,0,.7,1.062H57.806a.76.76,0,0,0,.635-.343Z" transform="translate(-0.095 -155.487)" fill="#2c9471"/>
      <rect id="Rectángulo_405226" data-name="Rectángulo 405226" width="5.26" height="15.225" rx="2.63" transform="translate(17.738 55.03)" fill="#c9c9c9"/>
      <path id="Trazado_901000" data-name="Trazado 901000" d="M172.278,182.111a.76.76,0,0,0-.6-.181l-4.071.55a.76.76,0,0,0-.658.753V197.4a.76.76,0,0,0,.76.76h4.071a.76.76,0,0,0,.76-.76V182.683a.76.76,0,0,0-.26-.571Z" transform="translate(-125.72 -127.957)" fill="#c9c9c9"/>
      <path id="Trazado_901001" data-name="Trazado 901001" d="M259.4,25.2a.76.76,0,0,1-.222-1.049,6.171,6.171,0,0,0,.525-4.691.76.76,0,1,1,1.468-.392,7.7,7.7,0,0,1-.718,5.912A.76.76,0,0,1,259.4,25.2Z" transform="translate(-197.834 -0.003)" fill="#995f53"/>
      <path id="Trazado_901002" data-name="Trazado 901002" d="M208.13,24.978a7.7,7.7,0,0,1-.719-5.911.76.76,0,1,1,1.468.392,6.172,6.172,0,0,0,.525,4.692.76.76,0,1,1-1.274.828Z" transform="translate(-157.173 -0.005)" fill="#995f53"/>
      <path id="Trazado_901003" data-name="Trazado 901003" d="M86.909,84.161l-10.4-8.846a.76.76,0,0,0-.814-.109c-4.8,2.242-12.9,2.735-24.768,1.5-4.883-.506-8.307.253-10.177,2.256a5.435,5.435,0,0,0-1.414,4.3,30.8,30.8,0,0,0,2.2,9.359c1.107,2.82.215,4.518-.731,6.316a8.9,8.9,0,0,0-1.357,4.264v10.638a.76.76,0,0,0,.76.76h4.071a.76.76,0,0,0,.76-.76V103.615l6.5-5.406c1.764.829,8.315,3.378,19.547,1.848v13.729a.76.76,0,0,0,.76.76h4.071a.76.76,0,0,0,.758-.7l1.051-13.953c2.1-.3,7.957-2.279,9.454-15.062a.76.76,0,0,0-.262-.667Z" transform="translate(-25.779 -44.346)" fill="#dcddde"/>
      <path id="Trazado_901004" data-name="Trazado 901004" d="M265.873,34.963c-4.707-.653-6.6,1.847-6.674,1.953a.76.76,0,0,0-.1.724l1.346,3.467a.76.76,0,0,0,1.051.4,9.454,9.454,0,0,0,5-5.61.76.76,0,0,0-.632-.937Z" transform="translate(-197.834 -12.808)" fill="#ffc4b8"/>
      <path id="Trazado_901005" data-name="Trazado 901005" d="M264.113,41.52a.76.76,0,0,1-1.051-.4l-.674-1.735c3.569-1.145,4.512-3.277,4.752-4.514a11.154,11.154,0,0,1,1.346.106.76.76,0,0,1,.633.937A9.459,9.459,0,0,1,264.113,41.52Z" transform="translate(-200.446 -12.818)" fill="#f7b6a8"/>
      <path id="Trazado_901006" data-name="Trazado 901006" d="M191.087,36.916c-.078-.107-1.967-2.607-6.674-1.953a.76.76,0,0,0-.633.937,9.455,9.455,0,0,0,5,5.61.76.76,0,0,0,1.051-.4l1.346-3.467A.76.76,0,0,0,191.087,36.916Z" transform="translate(-138.881 -12.807)" fill="#ffc4b8"/>
      <path id="Trazado_901007" data-name="Trazado 901007" d="M6.51,112.835a.76.76,0,0,1,.624-.874,5.544,5.544,0,0,0,3.264-2.225c1.105-1.615,1.381-3.875.819-6.717-1.819-9.2,4.118-12.619,4.371-12.76a.76.76,0,1,1,.74,1.327c-.227.129-5.216,3.075-3.621,11.139.647,3.274.286,5.931-1.075,7.9a6.989,6.989,0,0,1-4.249,2.837.76.76,0,0,1-.874-.624Z" transform="translate(-0.095 -56.112)" fill="#8895a3"/>
      <path id="Trazado_901008" data-name="Trazado 901008" d="M217.413,49.455a8.987,8.987,0,0,0-10.214,0c-.42-3.655-2.645-5.173-2.114-9.521.51-4.184,4.931-5.157,7.221-5.087,2.29-.067,6.711.9,7.223,5.087C220.061,44.288,217.834,45.8,217.413,49.455Z" transform="translate(-155.516 -12.8)" fill="#efefef"/>
      <path id="Trazado_901009" data-name="Trazado 901009" d="M225.333,96.422c-.172,1.485.267,3.83-1.563,5.58a5.444,5.444,0,0,1-7.088,0c-1.82-1.74-1.395-4.135-1.563-5.578A8.987,8.987,0,0,1,225.333,96.422Z" transform="translate(-163.436 -59.767)" fill="#ffc4b8"/>
      <g id="Grupo_1113706" data-name="Grupo 1113706" transform="translate(13.525 31.701)">
        <path id="Trazado_901010" data-name="Trazado 901010" d="M53.031,88.691c.7-.888,2.045-1.016,3.267-1.8,1.421-.915.952-2.867.975-4.535-2.558-.088-3.3-.2-6.344-.514-4.883-.506-8.307.253-10.177,2.256a5.435,5.435,0,0,0-1.414,4.3,27.152,27.152,0,0,0,.94,5.532,7.605,7.605,0,0,1,6.212-.736c1.377.443,2.666,1.123,4.219.172,1.884-1.154,1.354-3.444,2.322-4.675Z" transform="translate(-39.304 -81.177)" fill="#8895a3"/>
        <path id="Trazado_901011" data-name="Trazado 901011" d="M129.63,147.665a3.653,3.653,0,0,0-1.072-3.009c-1.5-1.481-3.858-1.563-4.489-3.257-.428-1.15.095-2.877-.765-4.26a3,3,0,0,0-4.547-.374c-1.456,1.287-1.78,2.793-4.377,10.391A41.744,41.744,0,0,0,129.63,147.665Z" transform="translate(-98.087 -123.626)" fill="#8895a3"/>
        <path id="Trazado_901012" data-name="Trazado 901012" d="M157.317,88.53c.423-1.348.371-2.23.553-9.193A38.59,38.59,0,0,1,147.1,80.655a8.368,8.368,0,0,1,1.955,2.139c1.085,1.9.965,4.7,2.383,6.773C153.171,92.1,156.281,91.83,157.317,88.53Z" transform="translate(-123.7 -79.337)" fill="#8895a3"/>
        <path id="Trazado_901013" data-name="Trazado 901013" d="M219.019,146.857c-2.727-.119-4.658-.181-7.249-.176a2.074,2.074,0,0,0-2.331,1.576c-.824,2.611,1.277,4.645,3.228,7.1,2-.893,4.679-3.094,6.352-8.5Z" transform="translate(-172.37 -132.064)" fill="#8895a3"/>
      </g>
      <path id="Trazado_901014" data-name="Trazado 901014" d="M188.78,41.52a.76.76,0,0,0,1.051-.4l.673-1.735c-3.569-1.145-4.512-3.277-4.751-4.514a11.16,11.16,0,0,0-1.346.106.76.76,0,0,0-.633.937A9.465,9.465,0,0,0,188.78,41.52Z" transform="translate(-138.876 -12.818)" fill="#f7b6a8"/>
      <path id="Trazado_901015" data-name="Trazado 901015" d="M224.744,101.335a13.381,13.381,0,0,1-6.392-5.575,9.053,9.053,0,0,0-3.234,1.391c.168,1.445-.264,3.831,1.563,5.578C218.79,104.734,223.273,104.576,224.744,101.335Z" transform="translate(-163.435 -60.494)" fill="#f7b6a8"/>
      <path id="Trazado_901016" data-name="Trazado 901016" d="M207.2,51.045a9.055,9.055,0,0,1,3.234-1.391c-2.77-4.855-1.717-10.6-1.159-12.781a5.539,5.539,0,0,0-4.189,4.651c-.533,4.365,1.691,5.849,2.113,9.521Z" transform="translate(-155.515 -14.388)" fill="#e8e8e8"/>
      <path id="Trazado_901017" data-name="Trazado 901017" d="M68.565,22.483a.76.76,0,0,0-.525-.327,8.664,8.664,0,0,0-4.558.454,8.007,8.007,0,0,0-.149-3.548.76.76,0,1,0-1.468.392,6.408,6.408,0,0,1-.162,3.922,9.653,9.653,0,0,0-9.833,0,6.409,6.409,0,0,1-.164-3.928.76.76,0,1,0-1.468-.392,8.009,8.009,0,0,0-.149,3.548,8.664,8.664,0,0,0-4.558-.453.76.76,0,0,0-.633.937,9.365,9.365,0,0,0,4.59,5.389,9,9,0,0,0,.347,2.415c-4.8,2.211-12.881,2.691-24.688,1.468-4.508-.467-7.77.146-9.716,1.819-.662.393-6.057,3.9-4.311,12.725.562,2.843.286,5.1-.819,6.717A5.543,5.543,0,0,1,7.04,55.849a.76.76,0,1,0,.25,1.5,6.989,6.989,0,0,0,4.249-2.837c1.36-1.967,1.722-4.624,1.075-7.9a11.8,11.8,0,0,1,.912-8.171,31.432,31.432,0,0,0,2.23,9.836c1.9,4.824-2.088,6.454-2.088,10.58v6.361a22.864,22.864,0,0,0-7.2,9.3.76.76,0,0,0,.7,1.062H57.711a.76.76,0,0,0,.7-1.062,22.853,22.853,0,0,0-7.2-9.3l.73-9.674c2.086-.295,7.876-2.254,9.422-14.806a6.6,6.6,0,0,0,.469-2.688,11.6,11.6,0,0,1,1.152-5.082,11.132,11.132,0,0,0,1.11-4.493,9.348,9.348,0,0,0,4.579-5.382.76.76,0,0,0-.107-.611ZM46.71,23.573a5.718,5.718,0,0,1,3.851,1.035,5.081,5.081,0,0,0-.938,2.177A8.251,8.251,0,0,1,46.71,23.573Zm-.533,10.086C46,39.4,46.045,39.935,45.725,40.8c-.589,1.6-2.062,1.693-3.045.47-1.5-1.862-.684-4.439-3.457-6.8a41.386,41.386,0,0,0,6.954-.818Zm-15.678.68A2.941,2.941,0,0,1,29.233,37.1c-.912.586-2.337.781-3.212,1.9-1.045,1.329-.745,3.334-1.651,3.889-.667.408-1.743-.125-2.8-.466a7.8,7.8,0,0,0-5.882.483,24.72,24.72,0,0,1-.622-4.173A3.878,3.878,0,0,1,16.1,35.636C18.874,32.705,24.931,33.989,30.5,34.338Zm26.022,39.72H8.354a21.38,21.38,0,0,1,5.313-6.9V69.5a.76.76,0,0,0,.76.76h7.812A.76.76,0,0,0,23,69.5V63.17c1.094-.09,17.983-.049,18.231-.04v6.31a.76.76,0,0,0,.76.76h8.142a.76.76,0,0,0,.757-.7l.185-2.458a21.335,21.335,0,0,1,5.448,7.02Zm-30.769-20.2c4.377,2.058,10.626,2.529,15.476,2.247v5.5c-.186-.007-17.086-.048-18.231.038V56.156Zm17,14.817V56c.823-.072,1.671-.165,2.552-.285V68.681Zm1.075-14.32a41.573,41.573,0,0,1-12.329-.343c2.21-5.525,2.877-8.865,5.328-8.5,1.674.248.73,2.35,1.428,4,.93,2.2,3.7,2.349,4.951,3.447a1.712,1.712,0,0,1,.622,1.394ZM19.257,68.736V59.269l2.222-1.849V68.736Zm32.008-14.66a.761.761,0,0,0-.793.7l-1.047,13.9H46.819V54.834a.76.76,0,0,0-.874-.751c-.2.03-.391.055-.586.083A3.323,3.323,0,0,0,44.2,51.822c-1.483-1.295-3.933-1.427-4.551-2.892-.415-.984.106-2.573-.79-3.843a2.658,2.658,0,0,0-1.815-1.074,3.71,3.71,0,0,0-2.733.728c-1.513,1.179-1.884,2.672-4.319,8.948A18.017,18.017,0,0,1,26.025,52.3a.76.76,0,0,0-.86.077l-7.153,5.953a.76.76,0,0,0-.273.584v9.823H15.186V58.858c0-3.471,4.153-5.612,1.983-11.135a33.413,33.413,0,0,1-1.1-3.3c4.163-2.44,6.648,1.255,9.095-.243,1.639-1,1.261-3.241,2.051-4.245.561-.713,1.8-.89,2.841-1.557a4.449,4.449,0,0,0,1.975-3.95q2.581.126,4.873.11c.2.352,1.554,1.024,2.3,2.136,1.056,1.579.866,3.778,2.3,5.556a3.144,3.144,0,0,0,5.655-.9c.418-1.137.366-1.775.557-8.052a19.068,19.068,0,0,0,2.631-.942q.13.32.26.633a11.6,11.6,0,0,1,1.152,5.082c-.074,5.572,5.089,6.337,7.743,4.807a27.624,27.624,0,0,1-.961,3.733l-5.367-.274c-1.3-.066-2.161.273-2.572,1.577-.786,2.49,1.111,4.308,2.22,5.855a4.513,4.513,0,0,1-1.55.327Zm3.02-12.951a4.341,4.341,0,0,1-1.015-3.31,5.656,5.656,0,0,1,7.04,0C60.279,43.027,55.666,42.454,54.285,41.124Zm-.1,11.913c-1.162-1.514-2.079-2.557-2.229-3.648-.063-.456.051-1.281.343-1.478a1.614,1.614,0,0,1,.791-.077l4.874.249a11.157,11.157,0,0,1-3.779,4.954Zm7.394-20.652a14.9,14.9,0,0,0-1.136,3.685,7.123,7.123,0,0,0-7.3,0A14.906,14.906,0,0,0,52,32.385a8.878,8.878,0,0,1-.926-5.065c.342-2.8,2.932-3.642,5.738-3.753.213-.005,5.218-.113,5.689,3.753a8.877,8.877,0,0,1-.926,5.065Zm2.378-5.606a5.075,5.075,0,0,0-.941-2.176,5.693,5.693,0,0,1,3.842-1.03A8.3,8.3,0,0,1,63.957,26.778Z"/>
    </g>
  </g>
</svg>
