<svg xmlns="http://www.w3.org/2000/svg" width="90.914" height="90.914" viewBox="0 0 90.914 90.914">
  <g id="Grupo_1114856" data-name="Grupo 1114856" transform="translate(6557.738 10248.678)">
    <g id="Grupo_1108929" data-name="Grupo 1108929" transform="translate(-6557.738 -10248.678)">
      <rect id="Rect치ngulo_400898" data-name="Rect치ngulo 400898" width="90.914" height="90.914" rx="45.457" transform="translate(0 0)" fill="#fff" opacity="0.859"/>
      <rect id="Rect치ngulo_400907" data-name="Rect치ngulo 400907" width="90.914" height="90.914" rx="45.457" transform="translate(0 0)" fill="none"/>
    </g>
    <g id="Grupo_1113716" data-name="Grupo 1113716" transform="translate(-6543.36 -10248.831)">
      <g id="Grupo_1113714" data-name="Grupo 1113714" transform="translate(0.896 17.966)">
        <g id="Grupo_1113707" data-name="Grupo 1113707" transform="translate(36.73 8.253)">
          <path id="Trazado_901018" data-name="Trazado 901018" d="M326.192,106.781h-3.151a8.048,8.048,0,0,1-8.048-8.048V95.582a1.911,1.911,0,0,1,1.911-1.911h3.151a8.048,8.048,0,0,1,8.048,8.048v3.151A1.911,1.911,0,0,1,326.192,106.781Z" transform="translate(-314.993 -93.671)" fill="#9be69d"/>
          <path id="Trazado_901019" data-name="Trazado 901019" d="M325.5,106.779h-2.456a8.047,8.047,0,0,1-8.047-8.047V95.581A1.911,1.911,0,0,1,316.9,93.67h2.456a1.91,1.91,0,0,0-1.911,1.911v3.152A8.047,8.047,0,0,0,325.5,106.779Z" transform="translate(-314.994 -93.67)" fill="#6fd7a3"/>
          <path id="Trazado_901020" data-name="Trazado 901020" d="M378.062,101.721v15.262a1.833,1.833,0,1,0,3.665,0v-10.2h1.4a8.048,8.048,0,0,0,8.048-8.048v-3.15a1.911,1.911,0,0,0-1.911-1.911H386.11A8.048,8.048,0,0,0,378.062,101.721Z" transform="translate(-370.528 -93.673)" fill="#9be69d"/>
          <path id="Trazado_901021" data-name="Trazado 901021" d="M387.977,93.673a8.048,8.048,0,0,0-8.048,8.047v16.754h-1.867V101.72a8.047,8.047,0,0,1,8.047-8.047Z" transform="translate(-370.528 -93.673)" fill="#6fd7a3"/>
        </g>
        <g id="Grupo_1113708" data-name="Grupo 1113708" transform="translate(20.276 8.254)">
          <path id="Trazado_901022" data-name="Trazado 901022" d="M177.248,101.721v15.262a1.833,1.833,0,0,0,3.665,0v-10.2h1.4a8.048,8.048,0,0,0,8.048-8.048v-3.15a1.911,1.911,0,0,0-1.911-1.911H185.3A8.048,8.048,0,0,0,177.248,101.721Z" transform="translate(-177.248 -93.673)" fill="#9be69d"/>
          <path id="Trazado_901023" data-name="Trazado 901023" d="M187.163,93.673a8.048,8.048,0,0,0-8.048,8.047v16.754h-1.867V101.72a8.047,8.047,0,0,1,8.047-8.047Z" transform="translate(-177.248 -93.673)" fill="#6fd7a3"/>
        </g>
        <path id="Trazado_901024" data-name="Trazado 901024" d="M66.866,267.506v1.578l-30.8,5.013L7.5,269.084v-1.578a5.1,5.1,0,0,1,5.1-5.1H61.766A5.1,5.1,0,0,1,66.866,267.506Z" transform="translate(-7.5 -233.998)" fill="#9be69d"/>
        <path id="Trazado_901025" data-name="Trazado 901025" d="M39.063,273.609l-3,.489L7.5,269.084v-1.578a5.1,5.1,0,0,1,5.1-5.1h5.783a5.1,5.1,0,0,0-5.1,5.1v1.578Z" transform="translate(-7.5 -233.998)" fill="#6fd7a3"/>
        <path id="Trazado_901026" data-name="Trazado 901026" d="M66.866,318.306v15.1a5.1,5.1,0,0,1-5.1,5.1H12.6a5.1,5.1,0,0,1-5.1-5.1v-15.1Z" transform="translate(-7.5 -283.22)" fill="#d1a08f"/>
        <path id="Trazado_901027" data-name="Trazado 901027" d="M18.382,338.508H12.6a5.1,5.1,0,0,1-5.1-5.1v-15.1h5.783v15.1A5.1,5.1,0,0,0,18.382,338.508Z" transform="translate(-7.5 -283.221)" fill="#c68d7a"/>
        <g id="Grupo_1113709" data-name="Grupo 1113709" transform="translate(12.514 35.086)">
          <path id="Trazado_901028" data-name="Trazado 901028" d="M120.024,318.305v8.75l-3.355,1.752-1.348-1.535a1.747,1.747,0,1,0-2.625,2.305l1.958,2.229.875,2.684a1.747,1.747,0,1,0,3.322-1.083l-.5-1.526,3.667-1.625,4.472,1.023v2.669a1.747,1.747,0,0,0,3.494,0V332.7l.11.054a1.747,1.747,0,0,0,1.547-3.133l-2.631-1.3-.011,0a1.744,1.744,0,0,0-.373-.133l-4.938-1.13V318.3h-3.665Z" transform="translate(-112.261 -318.305)" fill="#bc7c63"/>
        </g>
        <g id="Grupo_1113710" data-name="Grupo 1113710" transform="translate(36.501 35.086)">
          <path id="Trazado_901029" data-name="Trazado 901029" d="M320.838,318.305v8.75l-3.355,1.752-1.348-1.535a1.747,1.747,0,1,0-2.625,2.305l1.958,2.229.875,2.684a1.747,1.747,0,1,0,3.322-1.083l-.5-1.526,3.667-1.625,4.472,1.023v2.669a1.747,1.747,0,0,0,3.494,0V332.7l.11.054a1.747,1.747,0,0,0,1.547-3.133l-2.631-1.3-.011,0a1.744,1.744,0,0,0-.373-.133l-4.938-1.13V318.3h-3.665Z" transform="translate(-313.075 -318.305)" fill="#bc7c63"/>
        </g>
        <g id="Grupo_1113713" data-name="Grupo 1113713" transform="translate(1.754)">
          <path id="Trazado_901030" data-name="Trazado 901030" d="M25.751,55.529H37.877a3.568,3.568,0,0,0,3.568-3.568V28.142a3.568,3.568,0,0,0-3.568-3.568H25.751a3.568,3.568,0,0,0-3.568,3.568V51.961A3.568,3.568,0,0,0,25.751,55.529Z" transform="translate(-22.183 -24.574)" fill="#f5f8f9"/>
          <g id="Grupo_1113711" data-name="Grupo 1113711" transform="translate(3.05 5.581)">
            <circle id="Elipse_12218" data-name="Elipse 12218" cx="2.038" cy="2.038" r="2.038" fill="#fe646f"/>
          </g>
          <g id="Grupo_1113712" data-name="Grupo 1113712" transform="translate(3.257 12.594)">
            <path id="Trazado_901031" data-name="Trazado 901031" d="M51.539,130.007a4.181,4.181,0,0,0-2.092,3.623q0,.1,0,.192a2.092,2.092,0,0,0,4.175,0q0-.1,0-.192A4.181,4.181,0,0,0,51.539,130.007Z" transform="translate(-49.447 -130.007)" fill="#c8effe"/>
          </g>
          <circle id="Elipse_12219" data-name="Elipse 12219" cx="2.583" cy="2.583" r="2.583" transform="translate(2.765 21.93)" fill="#ffe177"/>
        </g>
      </g>
      <g id="Grupo_1113715" data-name="Grupo 1113715" transform="translate(0 17.07)">
        <path id="Trazado_901032" data-name="Trazado 901032" d="M57.568,45.983a.9.9,0,0,0-.719,1.641,4.2,4.2,0,0,1,2.517,3.851v.682H13.177v-2.34h5.167a4.471,4.471,0,0,0,4.031-2.545h30.7a.9.9,0,0,0,0-1.792H49.721V40.226h.5a8.954,8.954,0,0,0,8.944-8.944V28.131a2.81,2.81,0,0,0-2.807-2.806H53.208a8.9,8.9,0,0,0-5.256,1.714,8.941,8.941,0,0,0-5.263-1.714H39.537a2.81,2.81,0,0,0-2.807,2.807v3.151a8.958,8.958,0,0,0,7.533,8.831V45.48H25.733V40.226h.5a8.954,8.954,0,0,0,8.944-8.944V28.131a2.81,2.81,0,0,0-2.807-2.806H29.221a8.975,8.975,0,0,0-6.412,2.714v-6.5a4.47,4.47,0,0,0-4.465-4.465H6.217a4.47,4.47,0,0,0-4.464,4.465v4a.9.9,0,0,0,1.792,0v-4a2.676,2.676,0,0,1,2.672-2.673H18.344a2.676,2.676,0,0,1,2.673,2.673V45.353a2.676,2.676,0,0,1-2.673,2.672H6.217a2.675,2.675,0,0,1-2.672-2.672V29.714a.9.9,0,0,0-1.792,0v15.64a4.439,4.439,0,0,0,.3,1.606A5.98,5.98,0,0,0,0,51.475v16.68a6,6,0,0,0,6,6H17.131a.9.9,0,1,0,0-1.792H6a4.208,4.208,0,0,1-4.2-4.2V53.948h9.593v4.44a.9.9,0,1,0,1.792,0v-4.44h7.1v7.311l-2.25,1.175-.53-.6.634-1.7A.9.9,0,0,0,16.45,59.5l-.437,1.173a2.641,2.641,0,0,0-2.843,4.241l1.337,1.523-.609.485a.9.9,0,0,0,1.116,1.4l.335-.267.475,1.457a2.643,2.643,0,0,0,5.025-1.638l-.247-.757,2.655-1.176,3.485.8V68.7a2.643,2.643,0,0,0,5.286,0v-.119a2.643,2.643,0,0,0,1.158-5.013l-1.282-.633.6-.421a.9.9,0,0,0-1.026-1.469l-1.47,1.027-.036-.009-4.242-.97V59.429l2.19-.489a.9.9,0,0,0-.39-1.749l-1.8.4V53.948h18.53v7.311l-2.25,1.175-.53-.6.634-1.7a.9.9,0,0,0-1.679-.625L40,60.675a2.641,2.641,0,0,0-2.843,4.241L38.5,66.439l-.609.485A.9.9,0,0,0,39,68.325l.335-.267.475,1.457a2.643,2.643,0,0,0,5.025-1.638l-.247-.757,2.655-1.176,3.485.8V68.7a2.643,2.643,0,0,0,5.286,0v-.119a2.643,2.643,0,0,0,1.158-5.013l-1.282-.633.6-.421a.9.9,0,1,0-1.026-1.469L54,62.068l-.036-.009-4.242-.97V59.429l2.19-.489a.9.9,0,0,0-.39-1.749l-1.8.4V53.948h9.646V68.155a4.208,4.208,0,0,1-4.2,4.2H21.312a.9.9,0,1,0,0,1.792H55.163a6,6,0,0,0,6-6V51.475a6,6,0,0,0-3.59-5.492Zm-19.047-14.7V28.131a1.016,1.016,0,0,1,1.015-1.015h3.151a7.151,7.151,0,0,1,3.893,1.152,8.907,8.907,0,0,0-2.317,6v4.025A7.163,7.163,0,0,1,38.522,31.282Zm7.533,2.985a7.16,7.16,0,0,1,7.153-7.151h3.151a1.016,1.016,0,0,1,1.015,1.014v3.151a7.161,7.161,0,0,1-7.153,7.153h-1.4a.9.9,0,0,0-.9.9v6.15H46.055V34.268ZM29.221,27.116h3.151a1.016,1.016,0,0,1,1.015,1.014v3.151a7.161,7.161,0,0,1-7.153,7.153h-1.4a.9.9,0,0,0-.9.9v6.15H22.806c0-.042,0-.084,0-.127V31.1A7.18,7.18,0,0,1,29.221,27.116ZM1.792,52.157v-.682a4.193,4.193,0,0,1,1.249-2.99,4.45,4.45,0,0,0,3.177,1.332h5.168v2.34ZM24.638,62.675l4.939,1.13a.856.856,0,0,1,.182.065l.024.011.015.007,2.6,1.283a.851.851,0,0,1-.378,1.614.842.842,0,0,1-.376-.088l-.11-.054a.9.9,0,0,0-1.293.8V68.7a.851.851,0,0,1-1.7,0V66.027a.9.9,0,0,0-.7-.873l-4.472-1.023a.9.9,0,0,0-.563.054L19.138,65.81a.9.9,0,0,0-.489,1.1l.5,1.526a.851.851,0,1,1-1.618.528l-.875-2.684a.9.9,0,0,0-.179-.313l-1.958-2.229A.851.851,0,1,1,15.8,62.61l1.348,1.535a.9.9,0,0,0,1.088.2L21.587,62.6a.9.9,0,0,0,.481-.794V53.949h1.874V61.8a.9.9,0,0,0,.7.873Zm23.987,0,4.939,1.13a.856.856,0,0,1,.182.065l.024.011.015.007,2.6,1.283A.851.851,0,0,1,56,66.785a.842.842,0,0,1-.376-.088l-.11-.054a.9.9,0,0,0-1.293.8V68.7a.851.851,0,0,1-1.7,0V66.027a.9.9,0,0,0-.7-.873l-4.472-1.023a.9.9,0,0,0-.563.054L43.125,65.81a.9.9,0,0,0-.489,1.1l.5,1.526a.851.851,0,1,1-1.618.528l-.875-2.684a.9.9,0,0,0-.179-.313L38.5,63.734a.851.851,0,1,1,1.279-1.123l1.348,1.535a.9.9,0,0,0,1.088.2L45.574,62.6a.9.9,0,0,0,.481-.794V53.949h1.874V61.8a.9.9,0,0,0,.7.873Z" transform="translate(0 -17.07)"/>
        <path id="Trazado_901033" data-name="Trazado 901033" d="M43.147,39.013a.9.9,0,0,0-.9.9v2.2a2.934,2.934,0,1,0,1.792,0v-2.2A.9.9,0,0,0,43.147,39.013Zm0,7.037a1.142,1.142,0,1,1,1.142-1.142A1.144,1.144,0,0,1,43.147,46.05Z" transform="translate(-35.41 -36.392)"/>
        <path id="Trazado_901034" data-name="Trazado 901034" d="M45.383,122.628a.9.9,0,0,0-.9,0,5.1,5.1,0,0,0-2.539,4.4q0,.117.005.233a2.988,2.988,0,0,0,5.965,0q.005-.116.005-.233A5.1,5.1,0,0,0,45.383,122.628Zm.744,4.55a1.2,1.2,0,0,1-2.385,0c0-.05,0-.1,0-.152a3.3,3.3,0,0,1,1.2-2.535,3.3,3.3,0,0,1,1.2,2.535C46.131,127.077,46.13,127.127,46.127,127.178Z" transform="translate(-36.936 -109.913)"/>
        <path id="Trazado_901035" data-name="Trazado 901035" d="M41.311,207.624a3.479,3.479,0,1,0-3.479-3.479A3.483,3.483,0,0,0,41.311,207.624Zm0-5.167a1.687,1.687,0,1,1-1.687,1.687A1.689,1.689,0,0,1,41.311,202.458Z" transform="translate(-33.313 -178.736)"/>
        <path id="Trazado_901036" data-name="Trazado 901036" d="M105.424,75.817h5.5a.9.9,0,1,0,0-1.792h-5.5a.9.9,0,1,0,0,1.792Z" transform="translate(-92.042 -67.222)"/>
        <path id="Trazado_901037" data-name="Trazado 901037" d="M105.424,148.44h5.5a.9.9,0,1,0,0-1.792h-5.5a.9.9,0,1,0,0,1.792Z" transform="translate(-92.042 -131.17)"/>
        <path id="Trazado_901038" data-name="Trazado 901038" d="M105.424,224.522h5.5a.9.9,0,1,0,0-1.792h-5.5a.9.9,0,1,0,0,1.792Z" transform="translate(-92.042 -198.164)"/>
      </g>
    </g>
  </g>
</svg>
