<svg xmlns="http://www.w3.org/2000/svg" width="90.914" height="90.914" viewBox="0 0 90.914 90.914">
  <g id="Grupo_1114857" data-name="Grupo 1114857" transform="translate(6241.865 10248.678)">
    <g id="Grupo_1108930" data-name="Grupo 1108930" transform="translate(-6241.865 -10248.678)">
      <rect id="Rect치ngulo_400898" data-name="Rect치ngulo 400898" width="90.914" height="90.914" rx="45.457" transform="translate(0 0)" fill="#fff" opacity="0.859"/>
      <rect id="Rect치ngulo_400907" data-name="Rect치ngulo 400907" width="90.914" height="90.914" rx="45.457" transform="translate(0 0)" fill="none"/>
    </g>
    <g id="Grupo_1113720" data-name="Grupo 1113720" transform="translate(-6249.552 -10232.671)">
      <g id="Grupo_1113717" data-name="Grupo 1113717" transform="translate(25.659 0.923)">
        <path id="Trazado_901039" data-name="Trazado 901039" d="M92.389,183.008a13.305,13.305,0,0,1,1.294-5.742,4.547,4.547,0,1,0-1.07,8.189A13.426,13.426,0,0,1,92.389,183.008Z" transform="translate(-80.007 -155.767)" fill="#5b92f2"/>
        <circle id="Elipse_12220" data-name="Elipse 12220" cx="5.624" cy="5.624" r="5.624" transform="translate(0 42.479)" fill="#5b92f2"/>
        <circle id="Elipse_12221" data-name="Elipse 12221" cx="13.36" cy="13.36" r="13.36" transform="translate(12.382 13.881)" fill="#ff7956"/>
        <path id="Trazado_901040" data-name="Trazado 901040" d="M207.055,120.349a13.37,13.37,0,0,0-3.639.5c.348-.028.7-.044,1.056-.044a12.779,12.779,0,1,1-2.25,25.36,13.361,13.361,0,1,0,4.833-25.818Z" transform="translate(-181.313 -106.468)" fill="#ff3f62"/>
        <path id="Trazado_901041" data-name="Trazado 901041" d="M289.734,72.282,278.5,83.75A2.035,2.035,0,0,0,281.4,86.6l11.249-11.48a5.644,5.644,0,0,1-2.918-2.836Z" transform="translate(-247.696 -64.313)" fill="#e5ecf5"/>
        <circle id="Elipse_12222" data-name="Elipse 12222" cx="5.624" cy="5.624" r="5.624" transform="translate(41.526 0)" fill="#94b7f7"/>
        <path id="Trazado_901042" data-name="Trazado 901042" d="M406.788,7.5a5.637,5.637,0,0,0-1.23.137,5.624,5.624,0,0,1,0,10.976A5.624,5.624,0,1,0,406.788,7.5Z" transform="translate(-359.638 -7.5)" fill="#5b92f2"/>
        <path id="Trazado_901043" data-name="Trazado 901043" d="M82.9,295.318c-.031.028-.063.055-.093.086L73.3,305.112A2.035,2.035,0,0,0,76.2,307.96l9.513-9.708c.043-.044.083-.09.121-.137A13.437,13.437,0,0,1,82.9,295.318Z" transform="translate(-67.736 -259.915)" fill="#cad8eb"/>
        <path id="Trazado_901044" data-name="Trazado 901044" d="M297.691,296.615l-10.249-12.577a2.034,2.034,0,1,0-3.154,2.57L294.6,299.257A7.243,7.243,0,0,1,297.691,296.615Z" transform="translate(-252.884 -249.365)" fill="#e5ecf5"/>
        <circle id="Elipse_12223" data-name="Elipse 12223" cx="7.217" cy="7.217" r="7.217" transform="translate(40.536 46.621)" fill="#feef8f"/>
        <path id="Trazado_901045" data-name="Trazado 901045" d="M411.691,386.518a7.251,7.251,0,0,0-1.23.107,7.216,7.216,0,0,1,0,14.222,7.217,7.217,0,1,0,1.23-14.328Z" transform="translate(-363.938 -339.897)" fill="#fcad42"/>
        <circle id="Elipse_12224" data-name="Elipse 12224" cx="3.394" cy="3.394" r="3.394" transform="translate(25.742 3.161)" fill="#ff7956"/>
        <path id="Trazado_901046" data-name="Trazado 901046" d="M262.778,34.246a3.394,3.394,0,0,0-3.682-.817,3.394,3.394,0,0,1,0,6.326,3.394,3.394,0,0,0,3.681-5.509Z" transform="translate(-231.191 -30.038)" fill="#ff3f62"/>
        <circle id="Elipse_12225" data-name="Elipse 12225" cx="3.948" cy="3.948" r="3.948" transform="translate(6.535 4.14)" fill="#feef8f"/>
        <path id="Trazado_901047" data-name="Trazado 901047" d="M111.535,42.376a3.948,3.948,0,0,0-4.083-1.023,3.949,3.949,0,0,1,0,7.5,3.948,3.948,0,0,0,4.082-6.482Z" transform="translate(-98.2 -37.018)" fill="#fcad42"/>
        <circle id="Elipse_12226" data-name="Elipse 12226" cx="3.394" cy="3.394" r="3.394" transform="translate(48.183 29.991)" fill="#94b7f7"/>
        <path id="Trazado_901048" data-name="Trazado 901048" d="M446.057,253.862a3.394,3.394,0,0,0-4.135-2.436,3.43,3.43,0,0,0-.381.123,3.393,3.393,0,0,1,0,6.324,3.393,3.393,0,0,0,4.516-4.012Z" transform="translate(-391.195 -221.326)" fill="#5b92f2"/>
        <circle id="Elipse_12227" data-name="Elipse 12227" cx="3.394" cy="3.394" r="3.394" transform="translate(20.457 46.621)" fill="#ff3f62"/>
      </g>
      <g id="Grupo_1113719" data-name="Grupo 1113719" transform="translate(24.736 0)">
        <path id="Trazado_901049" data-name="Trazado 901049" d="M73.412,48.466a6.3,6.3,0,0,1,6.269,5.714l1.837-.168a8.136,8.136,0,0,0-10.762-6.945l-8.17-10.026a14.252,14.252,0,0,0,2.355-4.335l7.978,1.676a4.349,4.349,0,0,0,.137,1,4.321,4.321,0,0,0,4.171,3.238,4.317,4.317,0,1,0-1.073-8.5,4.288,4.288,0,0,0-2.638,1.988,4.393,4.393,0,0,0-.233.458l-7.869-1.654A14.278,14.278,0,0,0,63.4,20.413L70.858,12.8A6.55,6.55,0,0,0,79.21,7.929l-1.8-.388A4.7,4.7,0,1,1,77.48,6l1.833-.211A6.547,6.547,0,1,0,66.618,8.673l-7.392,7.544a14.125,14.125,0,0,0-4.537-1.956l.379-2.478a4.292,4.292,0,1,0-1.824-.276l-.375,2.45a14.555,14.555,0,0,0-1.469-.077,14.406,14.406,0,0,0-2.532.224l.325,1.816a12.56,12.56,0,0,1,2.207-.195,12.331,12.331,0,0,1,6.508,1.837L55.8,19.714a2.957,2.957,0,0,0,4.225,4.139l2.043-2.085a12.439,12.439,0,0,1-.679,13.8l-.456-.56a2.957,2.957,0,0,0-4.585,3.736l.49.6a12.439,12.439,0,1,1-9.354-22.995L46.9,14.6A14.3,14.3,0,0,0,43.2,16.467L39.768,12.26a4.869,4.869,0,1,0-3.734,1.62h.11a4.842,4.842,0,0,0,2.155-.5l3.457,4.243a14.26,14.26,0,0,0-2.826,3.566A5.47,5.47,0,1,0,37.561,31.7a14.221,14.221,0,0,0,2.058,4.529l-6.408,6.54a6.547,6.547,0,1,0,4.255,4.108L43.9,40.311a14.187,14.187,0,0,0,5.4,1.979l-.363,4.369a4.313,4.313,0,1,0,1.839.152l.363-4.37c.087,0,.173,0,.26,0a14.274,14.274,0,0,0,6.631-1.632L66.249,50.9a8.14,8.14,0,1,0,15.2,5.183l-1.821-.3a6.3,6.3,0,1,1-6.212-7.318Zm1.694-15.413a2.471,2.471,0,1,1-.264,1.873A2.455,2.455,0,0,1,75.106,33.053ZM52.324,7.422a2.471,2.471,0,1,1,.685,1.763A2.455,2.455,0,0,1,52.324,7.422Zm6.384,15.139a1.112,1.112,0,1,1-1.589-1.556l10.4-10.612a6.6,6.6,0,0,0,1.594,1.551ZM36.075,12.035a3.026,3.026,0,1,1,2.158-.839h0a3,3,0,0,1-2.158.839Zm.833,17.858a3.626,3.626,0,1,1,1.23-7.037,14.315,14.315,0,0,0-.916,7.022c-.1.009-.209.015-.314.015ZM51.98,50.937a2.471,2.471,0,1,1-2.471-2.471A2.474,2.474,0,0,1,51.98,50.937ZM35.985,49.026a4.7,4.7,0,1,1-4.7-4.7c.13,0,.259.007.387.017L30.56,45.474a2.957,2.957,0,0,0,4.225,4.139l1.162-1.186a4.775,4.775,0,0,1,.039.6Zm-2.518-.7a1.112,1.112,0,1,1-1.589-1.556L40.77,37.69a14.426,14.426,0,0,0,1.609,1.536ZM57.778,37.583a1.112,1.112,0,1,1,1.724-1.4L69.05,47.894a8.2,8.2,0,0,0-1.7,1.438Z" transform="translate(-24.736 0)"/>
        <g id="Grupo_1113718" data-name="Grupo 1113718" transform="translate(16.326 19.369)">
          <path id="Trazado_901050" data-name="Trazado 901050" d="M159.3,165.941l-1.844-.069a10.359,10.359,0,0,1,.273-2l1.8.427A8.5,8.5,0,0,0,159.3,165.941Zm.765-3.216-1.676-.771a10.375,10.375,0,0,1,1.02-1.746l1.495,1.082A8.535,8.535,0,0,0,160.068,162.725Zm1.94-2.681-1.258-1.35a10.417,10.417,0,0,1,1.6-1.225l.974,1.567A8.577,8.577,0,0,0,162.008,160.044Z" transform="translate(-157.459 -157.469)" fill="#fff"/>
        </g>
      </g>
    </g>
  </g>
</svg>
