<svg xmlns="http://www.w3.org/2000/svg" width="47" height="47" viewBox="0 0 47 47">
  <g id="Grupo_1114858" data-name="Grupo 1114858" transform="translate(-1039.051 -1983)">
    <rect id="Rectángulo_400898" data-name="Rectángulo 400898" width="47" height="47" rx="23.5" transform="translate(1039.051 1983)" fill="#f5c87f"/>
    <g id="Grupo_1113727" data-name="Grupo 1113727" transform="translate(1045.306 1947.172)">
      <g id="Grupo_1113721" data-name="Grupo 1113721" transform="translate(18.323 46.447)">
        <path id="Trazado_901051" data-name="Trazado 901051" d="M289.911,111.426a1.175,1.175,0,1,1,1.175-1.175A1.177,1.177,0,0,1,289.911,111.426Z" transform="translate(-288.736 -105.517)" fill="#60dc4d"/>
        <path id="Trazado_901052" data-name="Trazado 901052" d="M334.965,55.36a1.175,1.175,0,1,1,1.175-1.175A1.177,1.177,0,0,1,334.965,55.36Z" transform="translate(-330.931 -53.009)" fill="#60dc4d"/>
      </g>
      <path id="Trazado_901053" data-name="Trazado 901053" d="M454.105,55.36a1.175,1.175,0,1,1,1.175-1.175A1.177,1.177,0,0,1,454.105,55.36Z" transform="translate(-424.188 -6.562)" fill="#ff4f19"/>
      <g id="Grupo_1113722" data-name="Grupo 1113722" transform="translate(18.323 46.447)">
        <path id="Trazado_901054" data-name="Trazado 901054" d="M289.911,109.8a1.167,1.167,0,0,1,.231-.7,1.176,1.176,0,1,0,.714,1.849A1.177,1.177,0,0,1,289.911,109.8Z" transform="translate(-288.736 -105.518)" fill="#37c918"/>
        <path id="Trazado_901055" data-name="Trazado 901055" d="M334.965,53.73a1.167,1.167,0,0,1,.231-.7,1.176,1.176,0,1,0,.714,1.849A1.177,1.177,0,0,1,334.965,53.73Z" transform="translate(-330.931 -53.01)" fill="#37c918"/>
      </g>
      <path id="Trazado_901056" data-name="Trazado 901056" d="M454.105,53.73a1.167,1.167,0,0,1,.231-.7,1.176,1.176,0,1,0,.714,1.849A1.177,1.177,0,0,1,454.105,53.73Z" transform="translate(-424.188 -6.563)" fill="#d33a1c"/>
      <path id="Trazado_901057" data-name="Trazado 901057" d="M415.393,233.612a2.512,2.512,0,0,1-2.51-2.51v-10.9H417.9v10.9A2.512,2.512,0,0,1,415.393,233.612Z" transform="translate(-386.682 -163.15)" fill="#aeefff"/>
      <path id="Trazado_901058" data-name="Trazado 901058" d="M71.664,311.182a2.537,2.537,0,0,0-.4-.6l-.411-.452,2.9-1.8.252.49a4.843,4.843,0,0,0,.414.666l.329.444-2.835,1.753Z" transform="translate(-66.353 -245.685)" fill="#b4b6bc"/>
      <path id="Trazado_901059" data-name="Trazado 901059" d="M82.448,320.532l-.252-.49-2.7,1.676a2.53,2.53,0,0,1,.267.43l.246.5,2.7-1.671A4.884,4.884,0,0,1,82.448,320.532Z" transform="translate(-74.45 -256.65)" fill="#9da0a8"/>
      <path id="Trazado_901060" data-name="Trazado 901060" d="M9.6,334.95a2.592,2.592,0,1,1,2.592-2.592A2.6,2.6,0,0,1,9.6,334.95Z" transform="translate(-6.563 -265.757)" fill="#0793d1"/>
      <path id="Trazado_901061" data-name="Trazado 901061" d="M9.181,331.267a2.577,2.577,0,0,1,.48-1.5H9.6a2.592,2.592,0,1,0,2.112,4.092A2.6,2.6,0,0,1,9.181,331.267Z" transform="translate(-6.564 -265.757)" fill="#097ace"/>
      <circle id="Elipse_12228" data-name="Elipse 12228" cx="4.989" cy="4.989" r="4.989" transform="translate(7.05 55.96)" fill="#ff7f00"/>
      <path id="Trazado_901062" data-name="Trazado 901062" d="M114.992,206.5a4.973,4.973,0,0,1,1.489-3.554c-.132-.01-.265-.017-.4-.017a4.989,4.989,0,1,0,3.5,8.543A4.989,4.989,0,0,1,114.992,206.5Z" transform="translate(-104.042 -146.97)" fill="#ea5807"/>
      <path id="Trazado_901063" data-name="Trazado 901063" d="M239.5,303.051a.942.942,0,0,1,.894-1.659l1.957,1.055v2.141Z" transform="translate(-223.835 -239.078)" fill="#b4b6bc"/>
      <path id="Trazado_901064" data-name="Trazado 901064" d="M239.953,303.988a.936.936,0,0,1-.455-.559.963.963,0,0,1-.028-.13.942.942,0,0,0,.027,1.643l2.851,1.538v-1.2Z" transform="translate(-223.834 -240.969)" fill="#9da0a8"/>
      <path id="Trazado_901065" data-name="Trazado 901065" d="M293.249,233.612a2.512,2.512,0,0,1-2.51-2.51v-10.9h5.019v10.9A2.512,2.512,0,0,1,293.249,233.612Z" transform="translate(-272.289 -163.15)" fill="#aeefff"/>
      <g id="Grupo_1113723" data-name="Grupo 1113723" transform="translate(18.45 57.057)">
        <path id="Trazado_901066" data-name="Trazado 901066" d="M415.107,232.659v-8.915a.858.858,0,0,1,.461-.761l2.335-1.22v-1.557h-5.019v10.9a2.512,2.512,0,0,0,2.411,2.507A2.5,2.5,0,0,1,415.107,232.659Z" transform="translate(-405.132 -220.207)" fill="#73efd8"/>
        <path id="Trazado_901067" data-name="Trazado 901067" d="M292.963,232.659v-8.915a.859.859,0,0,1,.461-.761l2.335-1.22v-1.557h-5.019v10.9a2.512,2.512,0,0,0,2.411,2.507A2.5,2.5,0,0,1,292.963,232.659Z" transform="translate(-290.739 -220.207)" fill="#73efd8"/>
      </g>
      <path id="Trazado_901068" data-name="Trazado 901068" d="M312.893,318.539a1.194,1.194,0,0,1-1.13-1.2v-4.715a.307.307,0,0,1,.307-.307h1.736a.307.307,0,0,1,.307.307v4.744A1.177,1.177,0,0,1,312.893,318.539Z" transform="translate(-291.979 -249.412)" fill="#60dc4d"/>
      <path id="Trazado_901069" data-name="Trazado 901069" d="M312.069,312.315a.307.307,0,0,0-.307.307v4.715a1.2,1.2,0,0,0,.889,1.168v-6.19h-.582Z" transform="translate(-291.978 -249.413)" fill="#37c918"/>
      <path id="Trazado_901070" data-name="Trazado 901070" d="M436.038,287.6a1.194,1.194,0,0,1-1.13-1.2v-6.811a.307.307,0,0,1,.307-.307h1.736a.307.307,0,0,1,.307.307v6.84A1.176,1.176,0,0,1,436.038,287.6Z" transform="translate(-407.309 -218.471)" fill="#ff4f19"/>
      <path id="Trazado_901071" data-name="Trazado 901071" d="M435.215,279.276a.307.307,0,0,0-.307.307v6.811a1.206,1.206,0,0,0,.826,1.149v-8.268Z" transform="translate(-407.309 -218.471)" fill="#d33a1c"/>
      <g id="Grupo_1113724" data-name="Grupo 1113724" transform="translate(17.624 54.452)">
        <path id="Trazado_901072" data-name="Trazado 901072" d="M278.824,181.8a1.1,1.1,0,0,1-1.1-1.1v-.436a1.1,1.1,0,0,1,1.1-1.1h4.407a1.1,1.1,0,0,1,1.1,1.1v.436a1.1,1.1,0,0,1-1.1,1.1Z" transform="translate(-277.724 -179.159)" fill="#aeefff"/>
        <path id="Trazado_901073" data-name="Trazado 901073" d="M401.969,181.8a1.1,1.1,0,0,1-1.1-1.1v-.436a1.1,1.1,0,0,1,1.1-1.1h4.407a1.1,1.1,0,0,1,1.1,1.1v.436a1.1,1.1,0,0,1-1.1,1.1Z" transform="translate(-393.054 -179.159)" fill="#aeefff"/>
      </g>
      <path id="SVGCleanerId_0" d="M175.076,337.87a2.1,2.1,0,0,0-.7,0l-.592.1v-2.777a.942.942,0,1,1,1.884,0v2.777Z" transform="translate(-162.755 -269.955)" fill="#b4b6bc"/>
      <g id="Grupo_1113725" data-name="Grupo 1113725" transform="translate(11.028 64.294)">
        <path id="SVGCleanerId_0_1_" d="M175.076,337.87a2.1,2.1,0,0,0-.7,0l-.592.1v-2.777a.942.942,0,1,1,1.884,0v2.777Z" transform="translate(-173.783 -334.249)" fill="#b4b6bc"/>
      </g>
      <path id="Trazado_901074" data-name="Trazado 901074" d="M174.795,335.313a1.1,1.1,0,0,1,.452-.906.941.941,0,0,0-1.462.785v2.777l.592-.1a2.147,2.147,0,0,1,.351-.029h.069v-2.529Z" transform="translate(-162.756 -269.955)" fill="#9da0a8"/>
      <path id="Trazado_901075" data-name="Trazado 901075" d="M156.253,394.229a2.194,2.194,0,1,1,2.194-2.194A2.2,2.2,0,0,1,156.253,394.229Z" transform="translate(-144.283 -322.02)" fill="#0793d1"/>
      <path id="Trazado_901076" data-name="Trazado 901076" d="M157.771,393.772a2.193,2.193,0,0,1-1.99-3.116,2.194,2.194,0,1,0,2.462,3.065A2.2,2.2,0,0,1,157.771,393.772Z" transform="translate(-144.283 -322.783)" fill="#097ace"/>
      <path id="Trazado_901077" data-name="Trazado 901077" d="M174.727,150.553a.943.943,0,0,1-.942-.942v-4.646l1.884.2v4.444A.943.943,0,0,1,174.727,150.553Z" transform="translate(-162.757 -92.682)" fill="#b4b6bc"/>
      <path id="Trazado_901078" data-name="Trazado 901078" d="M174.727,149.61v-4.545l-.942-.1v4.646a.94.94,0,0,0,1.413.815A.942.942,0,0,1,174.727,149.61Z" transform="translate(-162.757 -92.682)" fill="#9da0a8"/>
      <path id="Trazado_901079" data-name="Trazado 901079" d="M146.177,77.285a2.877,2.877,0,1,1,2.877-2.877A2.88,2.88,0,0,1,146.177,77.285Z" transform="translate(-134.206 -23.91)" fill="#0793d1"/>
      <path id="Trazado_901080" data-name="Trazado 901080" d="M146.078,73.314a2.862,2.862,0,0,1,.589-1.741,2.877,2.877,0,1,0,1.8,4.575A2.881,2.881,0,0,1,146.078,73.314Z" transform="translate(-134.207 -23.909)" fill="#097ace"/>
      <g id="Grupo_1113726" data-name="Grupo 1113726" transform="translate(17.624 55.77)">
        <path id="Trazado_901081" data-name="Trazado 901081" d="M400.869,199.933v.218a1.1,1.1,0,0,0,1.1,1.1h4.407a1.1,1.1,0,0,0,1.1-1.1v-.218Z" transform="translate(-393.054 -199.933)" fill="#4ce5c7"/>
        <path id="Trazado_901082" data-name="Trazado 901082" d="M277.724,199.933v.218a1.1,1.1,0,0,0,1.1,1.1h4.407a1.1,1.1,0,0,0,1.1-1.1v-.218Z" transform="translate(-277.724 -199.933)" fill="#4ce5c7"/>
      </g>
      <path id="Trazado_901083" data-name="Trazado 901083" d="M306.375,312.423A1.622,1.622,0,0,0,308,310.8v-5.019a.477.477,0,0,0-.477-.477h-2.287a.476.476,0,0,0-.477.477V310.8A1.622,1.622,0,0,0,306.375,312.423Zm-.667-6.163h1.334V310.8a.667.667,0,0,1-1.334,0V306.26Z" transform="translate(-285.416 -242.85)"/>
      <path id="Trazado_901084" data-name="Trazado 901084" d="M429.521,281.48a1.622,1.622,0,0,0,1.62-1.62v-7.116a.476.476,0,0,0-.477-.477h-2.287a.476.476,0,0,0-.477.477v7.116A1.622,1.622,0,0,0,429.521,281.48Zm-.667-8.259h1.334v6.639a.667.667,0,1,1-1.334,0v-6.639Z" transform="translate(-400.747 -211.908)"/>
      <path id="Trazado_901085" data-name="Trazado 901085" d="M23.131,71.353H18.724A1.547,1.547,0,0,0,17.179,72.9v.436a1.546,1.546,0,0,0,.826,1.367v5.235L17.2,79.5a5.373,5.373,0,0,0-3.838-6.43V70.861a3.322,3.322,0,1,0-2.774,0v2.208a5.367,5.367,0,0,0-3.749,6.752L4.486,81.279a3.037,3.037,0,1,0,1.588,2.669,3.055,3.055,0,0,0-.025-.38L8.3,82.175a5.391,5.391,0,0,0,2.283,1.271v1.672a2.639,2.639,0,1,0,2.774,0V83.445a5.393,5.393,0,0,0,2.52-1.505l2.128,1.148V85.3a2.954,2.954,0,0,0,5.909,0V74.665a1.546,1.546,0,0,0,.762-1.331V72.9A1.547,1.547,0,0,0,23.131,71.353ZM3.037,86.031a2.084,2.084,0,1,1,2.084-2.084A2.086,2.086,0,0,1,3.037,86.031ZM9.6,67.845a2.368,2.368,0,1,1,2.368,2.368A2.371,2.371,0,0,1,9.6,67.845Zm2.8,3.321v3.108a.434.434,0,1,1-.868,0V71.166ZM5.768,82.62a3.046,3.046,0,0,0-.485-.715L7.2,80.717a5.349,5.349,0,0,0,.457.737Zm7.888,4.741a1.686,1.686,0,1,1-1.686-1.686A1.688,1.688,0,0,1,13.656,87.361Zm-2.12-2.6V82.582a.434.434,0,1,1,.868,0v2.177a2.611,2.611,0,0,0-.868,0Zm3.244-3.872a1.382,1.382,0,0,0,.287.517,4.441,4.441,0,0,1-1.717,1.049,1.387,1.387,0,0,0-2.761,0,4.417,4.417,0,0,1-.006-8.389v.211a1.387,1.387,0,1,0,2.774,0v-.212A4.421,4.421,0,0,1,16.3,79.118a1.385,1.385,0,0,0-1.522,1.769ZM18.005,82l-2.1-1.133a.434.434,0,0,1,.412-.764l1.69.911ZM22.961,85.3a2,2,0,1,1-4,0V74.911h4V85.3Zm.762-11.965a.593.593,0,0,1-.592.592H18.724a.593.593,0,0,1-.592-.592V72.9a.593.593,0,0,1,.592-.592h4.407a.593.593,0,0,1,.592.592Z" transform="translate(0 -17.346)"/>
      <path id="Trazado_901086" data-name="Trazado 901086" d="M399.812,172.15h-4.407a1.545,1.545,0,0,0-1.545,1.545v.436a1.546,1.546,0,0,0,.762,1.331v2.252a.477.477,0,0,0,.477.477h0a.477.477,0,0,0,.477-.477v-2.006h4v10.345a2.029,2.029,0,0,1-1.941,2.043,2,2,0,0,1-2.062-2v-5.607a.477.477,0,0,0-.477-.477h0a.476.476,0,0,0-.477.477v5.558a2.955,2.955,0,1,0,5.909.05V175.5a1.546,1.546,0,0,0,.826-1.367V173.7A1.545,1.545,0,0,0,399.812,172.15Zm.592,1.981a.593.593,0,0,1-.592.592h-4.407a.593.593,0,0,1-.592-.592V173.7a.593.593,0,0,1,.592-.592h4.407a.593.593,0,0,1,.592.592Z" transform="translate(-368.866 -118.143)"/>
      <path id="Trazado_901087" data-name="Trazado 901087" d="M283.348,105.308a1.62,1.62,0,1,0-1.62-1.62A1.622,1.622,0,0,0,283.348,105.308Zm0-2.287a.667.667,0,1,1-.667.667A.668.668,0,0,1,283.348,103.021Z" transform="translate(-263.85 -52.508)"/>
      <path id="Trazado_901088" data-name="Trazado 901088" d="M328.4,49.242a1.62,1.62,0,1,0-1.62-1.62A1.622,1.622,0,0,0,328.4,49.242Zm0-2.287a.667.667,0,1,1-.667.667A.668.668,0,0,1,328.4,46.955Z" transform="translate(-306.045)"/>
      <path id="Trazado_901089" data-name="Trazado 901089" d="M447.542,49.242a1.62,1.62,0,1,0-1.62-1.62A1.622,1.622,0,0,0,447.542,49.242Zm0-2.287a.667.667,0,1,1-.667.667A.668.668,0,0,1,447.542,46.955Z" transform="translate(-417.625)"/>
      <path id="Trazado_901090" data-name="Trazado 901090" d="M398.341,96.489a.476.476,0,0,0,.477-.477v-.477a.477.477,0,1,0-.953,0v.477A.476.476,0,0,0,398.341,96.489Z" transform="translate(-372.617 -45.944)"/>
      <path id="Trazado_901091" data-name="Trazado 901091" d="M412.859,119.039h.477a.477.477,0,0,0,0-.953h-.477a.477.477,0,0,0,0,.953Z" transform="translate(-386.213 -67.51)"/>
      <path id="Trazado_901092" data-name="Trazado 901092" d="M397.34,132.6a.476.476,0,0,0-.477.477v.477a.477.477,0,0,0,.953,0v-.477A.477.477,0,0,0,397.34,132.6Z" transform="translate(-371.68 -81.105)"/>
      <path id="Trazado_901093" data-name="Trazado 901093" d="M376.268,117.562a.476.476,0,0,0-.477-.477h-.477a.477.477,0,0,0,0,.953h.477A.477.477,0,0,0,376.268,117.562Z" transform="translate(-351.051 -66.572)"/>
    </g>
  </g>
</svg>
