<svg xmlns="http://www.w3.org/2000/svg" xmlns:xlink="http://www.w3.org/1999/xlink" width="190.002" height="181.999" viewBox="0 0 190.002 181.999">
  <defs>
    <clipPath id="clip-path">
      <path id="Sustracción_1" data-name="Sustracción 1" d="M11088,11803.324h-176a14,14,0,0,1-14-14v-154a14,14,0,0,1,14-14h176v182Z" transform="translate(-10718 -11082.914)" fill="#fdf4e5"/>
    </clipPath>
    <linearGradient id="linear-gradient" y1="0.5" x2="1" y2="0.5" gradientUnits="objectBoundingBox">
      <stop offset="0.425" stop-color="#789401"/>
      <stop offset="0.442" stop-color="#7e9b01"/>
      <stop offset="0.506" stop-color="#8dae01"/>
      <stop offset="0.549" stop-color="#93b501"/>
    </linearGradient>
  </defs>
  <g id="Enmascarar_grupo_1098714" data-name="Enmascarar grupo 1098714" transform="translate(-179.999 -538.411)" clip-path="url(#clip-path)">
    <g id="Grupo_1108922" data-name="Grupo 1108922" transform="translate(10976.329 10828.181)">
      <g id="Grupo_1108735" data-name="Grupo 1108735" transform="translate(-10828.329 -10256.908)">
        <path id="Trazado_896923" data-name="Trazado 896923" d="M255.671,370.141l-4.393.163a33.471,33.471,0,0,0-8.731-6.99l-70.71-40.825c-15.865-9.159-39.865-10.155-53.607-2.224L20.947,376.433A25.037,25.037,0,0,0,17.27,379l-5.6.208v10.633c-.018,6.093,4.428,12.524,13.123,17.543l70.711,40.825c15.865,9.159,39.868,10.155,53.607,2.22l97.282-56.165c6.159-3.555,9.208-8.3,9.272-13.28h0V370.141Z" transform="translate(-11.671 -304.172)" fill="url(#linear-gradient)"/>
        <path id="Trazado_896924" data-name="Trazado 896924" d="M246.394,378.064l-97.282,56.165c-13.74,7.935-37.742,6.939-53.607-2.22L24.794,391.184c-8.695-5.019-13.14-11.45-13.122-17.543v5.43c-.018,6.093,4.428,12.524,13.122,17.543L95.5,437.439c15.865,9.159,39.868,10.155,53.607,2.221L246.394,383.5c6.159-3.555,9.208-8.3,9.272-13.281h0v-5.43h0C255.6,369.763,252.553,374.509,246.394,378.064Z" transform="translate(-11.671 -293.404)" fill="#7a3d23"/>
        <path id="Trazado_896925" data-name="Trazado 896925" d="M223.625,359.179l-70.71-40.825c-15.865-9.159-39.865-10.155-53.607-2.224l60.424,107.4v5.711l67.74-39.11c6.2-3.58,9.252-8.365,9.276-13.382v-5.711A41.95,41.95,0,0,0,223.625,359.179Z" transform="translate(7.25 -305.065)" fill="#875937"/>
        <path id="Trazado_896926" data-name="Trazado 896926" d="M246.394,385.43,149.112,441.6c-13.74,7.935-37.742,6.939-53.607-2.22L24.8,398.55C8.929,389.39,7.209,375.533,20.947,367.6l97.282-56.169c13.742-7.931,37.742-6.936,53.607,2.224l70.711,40.825C258.413,363.641,260.133,377.5,246.394,385.43Z" transform="translate(-11.671 -306.079)" fill="#a6cc02"/>
        <path id="Trazado_896927" data-name="Trazado 896927" d="M235.654,354.482l-70.71-40.825c-15.865-9.159-39.865-10.155-53.607-2.224L43.6,350.545l128.164,74,67.74-39.11C253.24,377.5,251.52,363.641,235.654,354.482Z" transform="translate(-4.778 -306.079)" fill="#a26b42"/>
      </g>
      <g id="Grupo_1108736" data-name="Grupo 1108736" transform="translate(-10787.298 -10215.371)">
        <path id="Trazado_896928" data-name="Trazado 896928" d="M45.416,342.656l127.2,73.442,4.183-2.416L49.6,340.241Z" transform="translate(-45.416 -340.241)" fill="#c1c8e0"/>
      </g>
      <g id="Grupo_1108867" data-name="Grupo 1108867" transform="translate(-10752.062 -10290.77)">
        <path id="Trazado_897137" data-name="Trazado 897137" d="M107.09,381.379l-8.218-4.744c-6.566-3.791-5.734-10.474,1.847-14.851L157.157,329.2c7.581-4.377,19.157-4.858,25.722-1.066l8.218,4.744c6.566,3.791,5.734,10.474-1.847,14.851l-56.439,32.585C125.23,384.69,113.656,385.17,107.09,381.379Z" transform="translate(-70.067 -268.008)" fill="#c1c8e0"/>
        <g id="Grupo_1108866" data-name="Grupo 1108866" transform="translate(0 0)">
          <path id="Trazado_897138" data-name="Trazado 897138" d="M103.656,334.634c-1.19-7.3-3.435-7.154-3.775-12.147s4.6-12.7,4.251-18.054,10.091-11.437,12.022-10.91,6.782,2.626,6.2,12.639,2.955,10.215-2.1,24.637c-1.192,3.4-4.3,11.657-4.214,15.7s-1.778,4.529-1.814,6.724-.71,6.98,0,10.712.591,4.434.43,5.751-3.271,2.408-5.465,2.012-3.383-1.624-2.985-2.788.747-4.675,1.448-6.079,1.273-11.019.4-12.731-.646-3.217-.069-6S103.656,334.634,103.656,334.634Z" transform="translate(-68.897 -274.935)" fill="#942f11"/>
          <path id="Trazado_897139" data-name="Trazado 897139" d="M83.073,296.672c1.229.058,6,1.864,6.646,3.093s.294,2.4,1.524,3.981-2.375,2.467-4.307,2.057-1.872-2.049-2.4-3.8a9.069,9.069,0,0,0-3.054-4.332C80.37,296.905,83.073,296.672,83.073,296.672Z" transform="translate(-72.924 -274.248)" fill="#ba4f2c"/>
          <path id="Trazado_897140" data-name="Trazado 897140" d="M81.591,297.418c2.253-.088,4.156,1.975,3.746,3.71s1.288,3.52,1.288,3.666-.4.633-.965,0S84.343,299.672,81.591,297.418Z" transform="translate(-72.842 -274.088)" fill="#eb874b"/>
          <path id="Trazado_897141" data-name="Trazado 897141" d="M103.029,308.734c5.1.242,13.032.952,19.623,1.594.508,4.178,1.018,7.429-2.4,17.18-1.192,3.4-4.3,11.658-4.214,15.7s-1.778,4.528-1.814,6.724-.71,6.98,0,10.712.591,4.434.43,5.751c-.1.83-1.376,1.57-2.854,1.905.075-8.386-.316-7.98.441-8.567.8-.616-.2-7.068,0-8.78s-.139-6.542-1.79-8.077c-.7-.651-1.6-1.57-2.44-2.473.1-2.973-4.355-9.055-4.355-9.055a21.639,21.639,0,0,0-2.422-7.37c-.462-1.537-.917-3.084-1.336-4.574-.006-.068-.012-.134-.017-.2C99.716,316.771,101.348,312.8,103.029,308.734Z" transform="translate(-68.896 -271.644)" fill="#82260a"/>
          <path id="Trazado_897142" data-name="Trazado 897142" d="M110.389,354.324c2.4-.916,2.057-1.016,3.082-1.133a10.867,10.867,0,0,1,.071,3.657c-.161,1.317-3.271,2.407-5.465,2.012s-3.383-1.624-2.985-2.788a26.143,26.143,0,0,0,.653-3.139C105.551,354.025,107.4,355.466,110.389,354.324Z" transform="translate(-67.785 -262.102)" fill="#33373b"/>
          <path id="Trazado_897143" data-name="Trazado 897143" d="M140.915,307c.394,3.2,3.329,5.754,5.022,8.021a44.417,44.417,0,0,1,3.9,11.084c.351,1.025-.091,2.851,0,4.755s.787,6.835.871,7.227a6.537,6.537,0,0,1-.2,2.283,19.8,19.8,0,0,0-.316,1.96,8.458,8.458,0,0,0,.043,2.831c.359,1.138,1.4,1.188,2.69,1.3s3.941-1.432,3.863-2.135a21.036,21.036,0,0,1,0-2.417c.013-.526-.584-3.07-.625-5.535s-1.237-4.166-1.194-5.83,1.49-6.108,1.818-11.55c.328-5.427-.556-3.788-1.33-5.531a5.167,5.167,0,0,1-.368-4.693c.681-2.332,1.075-7.376.984-11.724s1.229-7.376,1.447-11.9,5.25-1.194-.187-6.448c-1.731-1.5-10.209.969-12.525,2.355s-3.211,2.375-3.791,4.843C138.416,296.916,140.522,303.8,140.915,307Z" transform="translate(-60.288 -278.23)" fill="#82260a"/>
          <path id="Trazado_897144" data-name="Trazado 897144" d="M147.95,333.379c-.119,1.187,1.637,1.852,2.923,1.965s4.214-1.592,4.138-2.293a21.039,21.039,0,0,1,0-2.417,2.58,2.58,0,0,0-2.033.806c-1.406,1.133-4.63-.064-4.485-.984a3.566,3.566,0,0,1-.077.6C148.3,332.094,148.024,332.707,147.95,333.379Z" transform="translate(-58.516 -266.954)" fill="#33373b"/>
          <path id="Trazado_897145" data-name="Trazado 897145" d="M148.5,334.189a2.815,2.815,0,0,1,1.139-.813s.192,1.311.163,1.471S148.5,334.189,148.5,334.189Z" transform="translate(-58.397 -266.324)" fill="#fff"/>
          <path id="Trazado_897146" data-name="Trazado 897146" d="M88.576,327.328a63.381,63.381,0,0,0,5.752,6.21c3.688-.527,8.517.315,10.183,4.094s10.563,7.866,13.99,9.27,11.826-1.689,15.69-3.972,12.728-2.283,22.211-5.619,12.655-10.227,15.38-11.323,3.512-.66,7.108-5.051a7.9,7.9,0,0,0,.885-1.447c3.456-6.968,7.488-29.277,6.842-31.216-.7-2.107-5.311-5.121-7.5-5.213s-8.463-5.036-12.242-4.594a25,25,0,0,0-11.9,4c-5,3.076-12.356,9.106-19.3,11.823s-12.6,1.013-16.82,3.1c-11.823,5.858-9.1,7.784-13.141,8.9-5.729,1.577-7.35,1.613-10.428,1.437s-8.864,10.8-9.392,14.132C85.688,323.169,86.96,325.269,88.576,327.328Z" transform="translate(-71.916 -278.185)" fill="#ad4929"/>
          <path id="Trazado_897147" data-name="Trazado 897147" d="M103.807,314.318c2.4,1.054,3.22,6.556,3.22,9.375s2.793,2.01,5.368,4.995,1.714,5.531,5.1,7.494,4.752,1.053,5.395,0,2.4-4.538,2.575-6.249.82-2.737,1.378-4.866,15.847-9.549,17.313-14.621a24.454,24.454,0,0,1,2.748,5.687,15.761,15.761,0,0,1,.878,6.453c-.175,1.888,1.142,5.795,2.854,6.278s5.72-1.7,10.33-4.42,5.356-5.4,6.278-7.14,2.634-3.351,3.073-4.8a17.8,17.8,0,0,0,.557-5.853s6.5-5.343,12.609-5.226c-1.215,5.29-2.656,10.374-4.009,13.1a7.943,7.943,0,0,1-.885,1.447c-3.6,4.391-4.391,3.954-7.108,5.051s-5.9,7.986-15.38,11.323-18.347,3.336-22.21,5.619-12.268,5.378-15.69,3.974-12.318-5.5-13.99-9.27-6.5-4.62-10.183-4.094a63.381,63.381,0,0,1-5.752-6.21c-.356-.454-.691-.908-1-1.357C91.191,316.853,101.852,313.461,103.807,314.318Z" transform="translate(-71.615 -273.223)" fill="#942f11"/>
          <path id="Trazado_897148" data-name="Trazado 897148" d="M149.117,326.878c-.167-1.3,2.131-3.921,5.271-5.806s2.1-4.027,4.734-6.756a11.56,11.56,0,0,1,5.327-3.3s-.264,7.824-4.245,13.036S150.02,328.306,149.117,326.878Z" transform="translate(-58.265 -271.151)" fill="#ffa399"/>
          <path id="Trazado_897149" data-name="Trazado 897149" d="M149.629,323.38v4.168a.914.914,0,1,0,1.8,0V323.38Z" transform="translate(-58.152 -268.482)" fill="#ffa399"/>
          <path id="Trazado_897150" data-name="Trazado 897150" d="M156.963,325.486a.931.931,0,1,0,1.843,0v-4.168h-1.845v4.168Z" transform="translate(-56.569 -268.927)" fill="#ffa399"/>
          <path id="Trazado_897151" data-name="Trazado 897151" d="M152.13,327.472a.932.932,0,1,0,1.845,0V323.3H152.13Z" transform="translate(-57.612 -268.498)" fill="#ffa399"/>
          <path id="Trazado_897152" data-name="Trazado 897152" d="M158.855,318.079v4.168c0,.589.359,1.065.8,1.065h0c.443,0,.8-.477.8-1.065v-4.168Z" transform="translate(-56.16 -269.627)" fill="#ffa399"/>
          <path id="Trazado_897153" data-name="Trazado 897153" d="M154.911,322.719v4.168c0,.589.359,1.065.8,1.065h0c.443,0,.8-.477.8-1.065v-4.168Z" transform="translate(-57.012 -268.625)" fill="#ffa399"/>
          <path id="Trazado_897154" data-name="Trazado 897154" d="M75.12,335.245a9.068,9.068,0,0,0,3.169,2.859A7.65,7.65,0,0,0,80,338.68,3.827,3.827,0,0,1,82.41,340.1s.733.556,2.781-.545a35.173,35.173,0,0,0,4.532-3.129c3.245-.443,7.012-3.944,9.4-5.555s4.909-2.086,6.756-5.424a20.691,20.691,0,0,0,1.77-4.017,11.939,11.939,0,0,0,.162-6.167c-.878-3.948-2.283-7.726-5.183-9.742S97.907,302.293,96,302c-5.034-.779-7.09-.252-8.87,1.517-3.862,3.839-4.168,9.818-5.13,12.72s-2.94,10.86-4.691,12.345C74.457,331,74.271,333.9,75.12,335.245Z" transform="translate(-74.335 -273.174)" fill="#ad4929"/>
          <path id="Trazado_897155" data-name="Trazado 897155" d="M108.8,310.121c.446-1.736-2.367-4.954-5.34-4.8s-5.189,1.454-8.474,0a2.913,2.913,0,0,0-.437,3.693c.59.8,1.731,4.346,3.223,3.936s1.361-2.38,1.756-2.521C100.99,309.907,105.572,311.448,108.8,310.121Z" transform="translate(-70.145 -272.382)" fill="#ba4f2c"/>
          <path id="Trazado_897156" data-name="Trazado 897156" d="M93.037,304.68c.219,1.121,1.273,1.736.812,2.35s-2.283.681-2.173,0S92.006,304.92,93.037,304.68Z" transform="translate(-70.666 -272.519)" fill="#f7f7ff"/>
          <path id="Trazado_897157" data-name="Trazado 897157" d="M88.315,302.49c.22,1.121,1.273,1.735.812,2.35s-2.282.681-2.173,0S87.283,302.731,88.315,302.49Z" transform="translate(-71.685 -272.992)" fill="#f7f7ff"/>
          <path id="Trazado_897158" data-name="Trazado 897158" d="M107.12,309.771c-.322-1.375-1.639-3.736-4.214-3.009s-3.659,1.532-5.327,1.437c-.2.841-.41,2.771.585,1.733S103.228,310.8,107.12,309.771Z" transform="translate(-69.427 -272.1)" fill="#eb874b"/>
          <path id="Trazado_897159" data-name="Trazado 897159" d="M77.647,334.589a9.976,9.976,0,0,0,1.791.863,3.954,3.954,0,0,1,2.331,1.134s.536,1.6,2.584.5a10.639,10.639,0,0,0,3.124-2.476c1.952-.294,8.082-4.564,10.469-6.176s5.444-3.161,7.291-6.5a20.691,20.691,0,0,0,1.77-4.017c-.871,1.032-1.572,1.3-2.339,2.438-.652.978-1.879,2.663-3.045,2.514-1.272-.162-2.626-1.1-3.7-.407-.554.357-.276,1.613-.522,2.224-1.5,3.766-4.427,4.217-7.88,6.321a6.846,6.846,0,0,1-2.744.922,22.751,22.751,0,0,1-3.007-.242c-.92-.091-.485,1.02-1.245.456-.871-.644-.388-2.065-1.567-1.465-.8.4-.689-.154-1.2.58l-.519-.3A14.748,14.748,0,0,1,77.647,334.589Z" transform="translate(-73.694 -269.661)" fill="#942f11"/>
          <path id="Trazado_897160" data-name="Trazado 897160" d="M87.46,318.709a7.89,7.89,0,0,1,.582-1.514c.92-1.73,2.857-.845,4.117-1.793a13.073,13.073,0,0,0,3.164-4.406c-.036.071.59,2.032.643,2.309a3.4,3.4,0,0,0,1.162,2.264,3.11,3.11,0,0,1,.524.366,1.2,1.2,0,0,1,.142,1.278,4.744,4.744,0,0,1-.783,1.108c-1.724,2.1-2.629,5.063-5.072,6.253-1.237.6-2.7.641-3.9,1.316-1.581.89-2.484,2.766-4.166,3.448.41-.165,1.024-3.065,1.2-3.569q.7-1.97,1.486-3.912C86.947,320.9,87.157,319.759,87.46,318.709Z" transform="translate(-72.349 -271.156)" fill="#a63513"/>
          <path id="Trazado_897161" data-name="Trazado 897161" d="M90.953,315.77l.209-.055c.945-.255,1.9-.484,2.845-.725a.793.793,0,0,1,.249-.035.532.532,0,0,1,.418.568,1.716,1.716,0,0,1-.264.723,10.592,10.592,0,0,1-2,3.27,7.037,7.037,0,0,1-4.026,1.256,13.172,13.172,0,0,0,.48-1.571,8.45,8.45,0,0,0,.545-2.055,2.3,2.3,0,0,1,.055-.467C89.615,316.131,90.4,315.914,90.953,315.77Z" transform="translate(-71.375 -270.301)" fill="#a63513"/>
          <g id="Grupo_1108865" data-name="Grupo 1108865" transform="translate(98.177 6.825)">
            <path id="Trazado_897162" data-name="Trazado 897162" d="M157.566,317.055c.394,3.2,3.329,5.754,5.022,8.021a44.474,44.474,0,0,1,3.9,11.084c.351,1.025-.091,2.851,0,4.755s.787,6.835.871,7.227a6.529,6.529,0,0,1-.2,2.282,19.8,19.8,0,0,0-.316,1.96,8.458,8.458,0,0,0,.043,2.831c.359,1.138,1.4,1.188,2.69,1.3s3.941-1.432,3.863-2.135a21.017,21.017,0,0,1,0-2.416c.013-.526-.584-3.07-.625-5.535s-1.237-4.164-1.194-5.83.857-5.4,1.186-10.839c.328-5.427.077-4.5-.7-6.244a5.167,5.167,0,0,1-.368-4.693,42.351,42.351,0,0,0,1.492-11.4c-.091-4.348,1.229-7.376,1.447-11.9s-.242-6.341-5.678-11.595c-2.536-.422-3,.638-4.833,2.619a51.551,51.551,0,0,0-5.613,6.189C151.736,301.785,157.173,313.853,157.566,317.055Z" transform="translate(-155.139 -283.843)" fill="#ad4929"/>
            <path id="Trazado_897163" data-name="Trazado 897163" d="M162.571,322.634c-1.693-2.269-4.629-4.819-5.022-8.021-.264-2.147-3.907-9.01-1.526-19.453.851.595.478,6.054.478,6.054.719,7.226,2.41,12.5,4.742,15.206s2.714,3.493,4.527,4.053,1.638.761,1.252,3.336.655,2.692,1.306,6.965-.88,2.8-1.28,6.263,1.307,2.658,1.765,4.592a39.512,39.512,0,0,1,.751,6.236c.086,1.6-.5,5.627-.4,6.174-1.1-.1-1.978-.246-2.3-1.266a8.458,8.458,0,0,1-.043-2.831c.091-.807.225-1.559.316-1.96a6.5,6.5,0,0,0,.2-2.282c-.084-.393-.787-5.323-.871-7.227s.351-3.73,0-4.755A44.6,44.6,0,0,0,162.571,322.634Z" transform="translate(-155.122 -281.4)" fill="#942f11"/>
            <path id="Trazado_897164" data-name="Trazado 897164" d="M164.38,342.646c-.119,1.187,1.637,1.852,2.922,1.965s4.216-1.592,4.138-2.293a21.017,21.017,0,0,1,0-2.416,2.578,2.578,0,0,0-2.033.806c-1.407,1.133-4.63-.064-4.485-.984a3.566,3.566,0,0,1-.077.6C164.731,341.361,164.453,341.975,164.38,342.646Z" transform="translate(-153.145 -271.779)" fill="#33373b"/>
            <path id="Trazado_897165" data-name="Trazado 897165" d="M164.926,343.456a2.815,2.815,0,0,1,1.139-.813s.192,1.311.163,1.471S164.926,343.456,164.926,343.456Z" transform="translate(-153.026 -271.148)" fill="#fff"/>
          </g>
          <path id="Trazado_897166" data-name="Trazado 897166" d="M122.828,341.269c-2.409-7-2.829-4.025-3.288-9.007s1.965-17.085,1.486-22.431,7.574-7.761,9.517-7.28,8.108,5.055,7.765,15.08.331,15.129-2.906,23.047c-1.667,4.081-3.9,9.282-3.716,13.318s-1.669,4.571-1.654,6.765-.544,8.51.255,12.223.7,4.419.568,5.739-3.212,2.484-5.416,2.141-3.42-1.544-3.051-2.716.635-4.692,1.3-6.112,1.01-12.561.092-14.253-.355-5.418.156-8.216S122.828,341.269,122.828,341.269Z" transform="translate(-64.661 -272.992)" fill="#ad4929"/>
          <path id="Trazado_897167" data-name="Trazado 897167" d="M124.548,379.515c.18-1.892,1.035-4.342,1.994-5.258s.306-2.849.428-3.621c.294-1.863.45-1.274,0-5.4s-.758-5.751.208-6.542,2.442-3.814,1.537-7.99c-.458-2.113,1.756-5.751,2.634-8.254s-2.5-1.8-.747-6.278,2.265.232,3.819-5.227,2.136-13.606,2.02-18.583a25.827,25.827,0,0,0-.333-3.521,19.414,19.414,0,0,1,1.108,7.413c-.343,10.025.331,15.129-2.906,23.047-1.667,4.081-3.9,9.281-3.716,13.317s-1.669,4.571-1.654,6.765-.544,8.51.255,12.225.7,4.419.568,5.739C129.638,378.632,126.733,379.762,124.548,379.515Z" transform="translate(-63.567 -271.621)" fill="#942f11"/>
          <path id="Trazado_897168" data-name="Trazado 897168" d="M127.139,363.4c2.373-.973,2.033-1.065,3.056-1.206a10.862,10.862,0,0,1,.158,3.655c-.129,1.32-3.212,2.485-5.416,2.142s-3.42-1.544-3.051-2.716a25.911,25.911,0,0,0,.578-3.155C122.3,363.216,124.181,364.611,127.139,363.4Z" transform="translate(-64.156 -260.118)" fill="#33373b"/>
          <path id="Trazado_897169" data-name="Trazado 897169" d="M90.28,316.978c.235-.41,1.463-1.493,2.166-1.273s.175,1.449-.468,1.8-2.4,1-2.4,1Z" transform="translate(-71.118 -270.145)" fill="#22222c"/>
          <path id="Trazado_897170" data-name="Trazado 897170" d="M75.488,325.385c1.034-.24,1.351,1.409,1.351,1.409s3.071,2.218,4.609,1.549,2.452.288,3.081,1,1.87.158,2.136,1.335a6.362,6.362,0,0,1-.074,3.395,2.922,2.922,0,0,1-2.146,1.768,16.333,16.333,0,0,1-2.634-.058c-1.162-.164-2.354-1.78-5.335-2.966-2.338-.929-1.719-3.668-1.919-4.785s-.325-2.033.3-2.343Z" transform="translate(-74.396 -268.054)" fill="#ffa399"/>
          <path id="Trazado_897171" data-name="Trazado 897171" d="M82.045,329.095a4.951,4.951,0,0,1,.064,2.4,4.9,4.9,0,0,1-2.684.995c-1.141-.142.689-.858,1.362-2.1S82.045,329.095,82.045,329.095Z" transform="translate(-73.388 -267.248)" fill="#eb874b"/>
          <path id="Trazado_897172" data-name="Trazado 897172" d="M75.552,326.374c.624.951.374,1.589.758,2.827s1.019,1.6.668,1.6a2.981,2.981,0,0,1-1.479-1.965,23.671,23.671,0,0,0-.558-2.471Z" transform="translate(-74.278 -267.838)" fill="#eb874b"/>
        </g>
      </g>
      <g id="Grupo_1108898" data-name="Grupo 1108898" transform="translate(-10785.622 -10250.905)">
        <g id="Grupo_1108882" data-name="Grupo 1108882" transform="translate(0 0)">
          <g id="Grupo_1108874" data-name="Grupo 1108874">
            <g id="Grupo_1108869" data-name="Grupo 1108869">
              <g id="Grupo_1108868" data-name="Grupo 1108868">
                <path id="Trazado_897173" data-name="Trazado 897173" d="M53.362,312.822l-3.126-1.806L46.795,313l3.126,1.806Z" transform="translate(-46.795 -311.016)" fill="#e8b969"/>
              </g>
            </g>
            <g id="Grupo_1108871" data-name="Grupo 1108871" transform="translate(0 36.339)">
              <g id="Grupo_1108870" data-name="Grupo 1108870">
                <path id="Trazado_897174" data-name="Trazado 897174" d="M53.362,342.708,50.236,340.9l-3.441,1.987,3.126,1.806Z" transform="translate(-46.795 -340.902)" fill="#e8b969"/>
              </g>
            </g>
            <g id="Grupo_1108872" data-name="Grupo 1108872" transform="translate(0 1.987)">
              <path id="Trazado_897175" data-name="Trazado 897175" d="M49.921,314.456l-3.126-1.806v36.339l3.126,1.806Z" transform="translate(-46.795 -312.65)" fill="#d6934b"/>
            </g>
            <g id="Grupo_1108873" data-name="Grupo 1108873" transform="translate(3.126 1.806)">
              <path id="Trazado_897176" data-name="Trazado 897176" d="M52.807,312.5v36.339l-3.441,1.987V314.488Z" transform="translate(-49.366 -312.501)" fill="#e3ae52"/>
            </g>
            <path id="Trazado_897177" data-name="Trazado 897177" d="M50.132,336.135l57.31,33.088V366.6l-57.31-33.09Z" transform="translate(-46.075 -306.16)" fill="#c98f4d"/>
            <path id="Trazado_897178" data-name="Trazado 897178" d="M50.132,333.737l57.31,33.09,2.241-1.295-57.31-33.088Z" transform="translate(-46.075 -306.39)" fill="#e8b969"/>
          </g>
          <g id="Grupo_1108877" data-name="Grupo 1108877" transform="translate(4.057 10.939)">
            <g id="Grupo_1108875" data-name="Grupo 1108875" transform="translate(0 1.295)">
              <path id="Trazado_897179" data-name="Trazado 897179" d="M50.132,323.7l57.31,33.09v-2.628l-57.31-33.088Z" transform="translate(-50.132 -321.078)" fill="#c98f4d"/>
            </g>
            <g id="Grupo_1108876" data-name="Grupo 1108876">
              <path id="Trazado_897180" data-name="Trazado 897180" d="M50.132,321.308l57.31,33.088,2.241-1.294-57.31-33.09Z" transform="translate(-50.132 -320.013)" fill="#e8b969"/>
            </g>
          </g>
          <g id="Grupo_1108879" data-name="Grupo 1108879" transform="translate(61.271 35.375)">
            <g id="Grupo_1108878" data-name="Grupo 1108878">
              <path id="Trazado_897181" data-name="Trazado 897181" d="M103.754,341.916l-3.127-1.806L97.186,342.1l3.127,1.806Z" transform="translate(-97.186 -340.11)" fill="#e8b969"/>
            </g>
          </g>
          <g id="Grupo_1108880" data-name="Grupo 1108880" transform="translate(61.271 37.362)">
            <path id="Trazado_897182" data-name="Trazado 897182" d="M100.313,343.55l-3.127-1.806v36.339l3.127,1.806Z" transform="translate(-97.186 -341.744)" fill="#d6934b"/>
          </g>
          <g id="Grupo_1108881" data-name="Grupo 1108881" transform="translate(64.398 37.181)">
            <path id="Trazado_897183" data-name="Trazado 897183" d="M103.2,341.595v36.339l-3.441,1.987V343.582Z" transform="translate(-99.758 -341.595)" fill="#e3ae52"/>
          </g>
        </g>
        <g id="Grupo_1108897" data-name="Grupo 1108897" transform="translate(61.271 35.375)">
          <g id="Grupo_1108889" data-name="Grupo 1108889">
            <g id="Grupo_1108884" data-name="Grupo 1108884">
              <g id="Grupo_1108883" data-name="Grupo 1108883">
                <path id="Trazado_897184" data-name="Trazado 897184" d="M103.754,341.916l-3.127-1.806L97.186,342.1l3.127,1.806Z" transform="translate(-97.186 -340.11)" fill="#e8b969"/>
              </g>
            </g>
            <g id="Grupo_1108886" data-name="Grupo 1108886" transform="translate(0 36.339)">
              <g id="Grupo_1108885" data-name="Grupo 1108885">
                <path id="Trazado_897185" data-name="Trazado 897185" d="M103.754,371.8,100.627,370l-3.441,1.987,3.127,1.806Z" transform="translate(-97.186 -369.996)" fill="#e8b969"/>
              </g>
            </g>
            <g id="Grupo_1108887" data-name="Grupo 1108887" transform="translate(0 1.987)">
              <path id="Trazado_897186" data-name="Trazado 897186" d="M100.313,343.55l-3.127-1.806v36.339l3.127,1.806Z" transform="translate(-97.186 -341.744)" fill="#d6934b"/>
            </g>
            <g id="Grupo_1108888" data-name="Grupo 1108888" transform="translate(3.127 1.806)">
              <path id="Trazado_897187" data-name="Trazado 897187" d="M103.2,341.595v36.339l-3.441,1.987V343.582Z" transform="translate(-99.758 -341.595)" fill="#e3ae52"/>
            </g>
            <path id="Trazado_897188" data-name="Trazado 897188" d="M100.523,365.229l57.312,33.088v-2.626L100.523,362.6Z" transform="translate(-96.466 -335.254)" fill="#c98f4d"/>
            <path id="Trazado_897189" data-name="Trazado 897189" d="M100.523,362.831l57.312,33.09,2.241-1.295-57.31-33.088Z" transform="translate(-96.466 -335.484)" fill="#e8b969"/>
          </g>
          <g id="Grupo_1108892" data-name="Grupo 1108892" transform="translate(4.057 10.941)">
            <g id="Grupo_1108890" data-name="Grupo 1108890" transform="translate(0 1.294)">
              <path id="Trazado_897190" data-name="Trazado 897190" d="M100.523,352.8l57.312,33.09V383.26l-57.312-33.088Z" transform="translate(-100.523 -350.172)" fill="#c98f4d"/>
            </g>
            <g id="Grupo_1108891" data-name="Grupo 1108891">
              <path id="Trazado_897191" data-name="Trazado 897191" d="M100.523,350.4l57.312,33.088,2.241-1.294-57.31-33.088Z" transform="translate(-100.523 -349.108)" fill="#e8b969"/>
            </g>
          </g>
          <g id="Grupo_1108894" data-name="Grupo 1108894" transform="translate(61.272 35.376)">
            <g id="Grupo_1108893" data-name="Grupo 1108893">
              <path id="Trazado_897192" data-name="Trazado 897192" d="M154.146,371.01l-3.127-1.806-3.441,1.987L150.705,373Z" transform="translate(-147.578 -369.204)" fill="#e8b969"/>
            </g>
          </g>
          <g id="Grupo_1108895" data-name="Grupo 1108895" transform="translate(61.272 37.362)">
            <path id="Trazado_897193" data-name="Trazado 897193" d="M150.705,372.644l-3.127-1.806v36.338l3.127,1.806Z" transform="translate(-147.578 -370.838)" fill="#d6934b"/>
          </g>
          <g id="Grupo_1108896" data-name="Grupo 1108896" transform="translate(64.399 37.181)">
            <path id="Trazado_897194" data-name="Trazado 897194" d="M153.591,370.689v36.339l-3.441,1.987V372.676Z" transform="translate(-150.15 -370.689)" fill="#e3ae52"/>
          </g>
        </g>
      </g>
      <g id="Grupo_1108905" data-name="Grupo 1108905" transform="translate(-10788.731 -10212.369)">
        <path id="Trazado_897195" data-name="Trazado 897195" d="M59.018,350.71l-1.3.751-1.035-.751-12.444,7.185L143.8,415.754h2.337l12.444-7.185Z" transform="translate(-44.237 -340.983)" fill="#c1c8e0"/>
        <path id="Trazado_897196" data-name="Trazado 897196" d="M153.7,406.332l-99.562-57.86.4-4.653,99.563,57.86Z" transform="translate(-42.098 -342.471)" fill="#9ea4b7"/>
        <path id="Trazado_897197" data-name="Trazado 897197" d="M154.034,401.918l-99.563-57.86,2.337-1.348,99.562,57.859Z" transform="translate(-42.027 -342.71)" fill="#a7adc2"/>
        <path id="Trazado_897198" data-name="Trazado 897198" d="M147.991,409.517l-99.562-57.86,6.948-4.011,99.562,57.86Z" transform="translate(-43.332 -341.644)" fill="#6177c2"/>
        <g id="Grupo_1108900" data-name="Grupo 1108900" transform="translate(7.01 2.698)">
          <g id="Grupo_1108899" data-name="Grupo 1108899">
            <path id="Trazado_897199" data-name="Trazado 897199" d="M57.773,344.929l-.4,4.653-3.554,2.051L50,349.416Z" transform="translate(-50.002 -344.929)" fill="#717684"/>
          </g>
        </g>
        <path id="Trazado_897200" data-name="Trazado 897200" d="M147.009,414.174l-99.562-57.86-.6-5.926,99.562,57.86Z" transform="translate(-43.673 -341.052)" fill="#8a8fa0"/>
        <path id="Trazado_897201" data-name="Trazado 897201" d="M145.721,406.717,46.158,348.859l2.337-1.35,99.562,57.86Z" transform="translate(-43.822 -341.674)" fill="#a7adc2"/>
        <path id="Trazado_897202" data-name="Trazado 897202" d="M145.728,409.109,46.167,351.25l-.009-2.631,99.563,57.859Z" transform="translate(-43.822 -341.434)" fill="#949aac"/>
        <path id="Trazado_897203" data-name="Trazado 897203" d="M140.486,390.295l.007,2.631-.83.48-.571,6.6-9.612,5.549-.6-5.926-.83.479-.007-2.631Z" transform="translate(-26.143 -332.436)" fill="#717684"/>
        <g id="Grupo_1108902" data-name="Grupo 1108902" transform="translate(101.898 57.859)">
          <g id="Grupo_1108901" data-name="Grupo 1108901">
            <path id="Trazado_897204" data-name="Trazado 897204" d="M138.15,391.645l-2.338-1.35-7.771,4.487,2.337,1.35Z" transform="translate(-128.041 -390.295)" fill="#a7adc2"/>
          </g>
        </g>
        <g id="Grupo_1108904" data-name="Grupo 1108904" transform="translate(4.673 1.348)">
          <g id="Grupo_1108903" data-name="Grupo 1108903">
            <path id="Trazado_897205" data-name="Trazado 897205" d="M58.188,345.169l-2.337-1.35-7.771,4.487,2.337,1.35Z" transform="translate(-48.08 -343.819)" fill="#a7adc2"/>
          </g>
        </g>
      </g>
      <g id="Grupo_1108909" data-name="Grupo 1108909" transform="translate(-10791.142 -10255.773)">
        <path id="Trazado_897206" data-name="Trazado 897206" d="M65.379,389.319c-4.45,2.569-11.688,2.557-16.167-.029s-4.5-6.764-.051-9.335,11.688-2.556,16.167.029S69.829,386.75,65.379,389.319Z" transform="translate(-41.481 -291.678)" fill="#c1c8e0"/>
        <g id="Grupo_1108908" data-name="Grupo 1108908" transform="translate(0 0)">
          <g id="Grupo_1108907" data-name="Grupo 1108907">
            <path id="Trazado_897207" data-name="Trazado 897207" d="M55.185,377.466a3.531,3.531,0,0,0-.9.945,4.3,4.3,0,0,0-.23,2.271c.095.392,1.082.631,1.639.685,1.222.118,2.517.135,2.517.135a4.057,4.057,0,0,1,1.057-.5,9.6,9.6,0,0,1,2.074.709,22.9,22.9,0,0,0,5.575.512c2.049-.19,1.9-1.215,1.9-1.215s.152-1.317-.491-1.639a17.652,17.652,0,0,0-3.394-.236Z" transform="translate(-39.719 -291.802)" fill="#161b29"/>
            <path id="Trazado_897208" data-name="Trazado 897208" d="M55.078,376.064a9.7,9.7,0,0,0-.688,3.019,1.517,1.517,0,0,0,.473,1.136,12.28,12.28,0,0,0,3.147.584,32.524,32.524,0,0,1,5.569,1.064c1.522.36,4.455.157,4.639-.207a3.11,3.11,0,0,0,.095-1.226s-.058-1.413-1.054-1.748-6.533-2.049-6.533-2.049l-2.967-2.359Z" transform="translate(-39.635 -292.49)" fill="#404759"/>
            <path id="Trazado_897209" data-name="Trazado 897209" d="M51.181,351.331a41.058,41.058,0,0,0,1.945,8.087c.758,2.106,1.158,5.2,2.318,7.263s6.23,2,6.865.958,1.341-5.547,1.341-5.547-3.329-13.6-3.778-14.832-1.151-9.113-1.151-9.113l-7.54,3Z" transform="translate(-40.328 -300.291)" fill="#295ea9"/>
            <path id="Trazado_897210" data-name="Trazado 897210" d="M55.152,357.807a20.028,20.028,0,0,0-1.147,5.664c-.173,2.145.467,16.669.365,17.674S56,382.5,57.858,382.424s3.532-.777,3.687-1.424,1.776-20.566,1.5-22.96S55.152,357.807,55.152,357.807Z" transform="translate(-39.724 -296.239)" fill="#295ea9"/>
            <path id="Trazado_897211" data-name="Trazado 897211" d="M45.142,382.137c-.678.306-.818,0-1.154.705A5.419,5.419,0,0,0,43.8,385a11.99,11.99,0,0,0,1.2,1.175c.224.111,1.1.464,1.1.464s1.075,2.168,2.341,2.737a9.108,9.108,0,0,0,4.388.818,4.106,4.106,0,0,0,2.491-.83,3.891,3.891,0,0,0-.057-1.382c-.356-.753-2.7-2.129-2.7-2.129Z" transform="translate(-41.928 -290.793)" fill="#161b29"/>
            <path id="Trazado_897212" data-name="Trazado 897212" d="M80.848,318.36a17.832,17.832,0,0,1,1.319,4.021c-.019.378-14.226,5.131-16.063,5.064s-2.767-4.433-2.336-5.254,2.251-1.012,3.49-1.254S80.848,318.36,80.848,318.36Z" transform="translate(-37.633 -304.563)" fill="#5c92ff"/>
            <path id="Trazado_897213" data-name="Trazado 897213" d="M67.381,327.878c-.278.148-4.313-.6-5.149-.188s-.77,1.091-2.014,1.171S56.9,317.52,58.124,316.7s5.382.019,6.374.384S68.74,322.868,67.381,327.878Z" transform="translate(-38.909 -304.996)" fill="#5c92ff"/>
            <path id="Trazado_897214" data-name="Trazado 897214" d="M78.211,321.849a1.458,1.458,0,0,0,1.7.482c.928-.3,3.249-1.289,3.456-1.739a.793.793,0,0,0-.238-.847l-.8.08s.484-.422.689-.416a23.319,23.319,0,0,0,3.7.117c.46-.181.09-1.206.09-1.206s.467-.114.494-.524a.412.412,0,0,0-.4-.438s-4.127-.879-4.721-.822a4.889,4.889,0,0,0-2.106.9,17.689,17.689,0,0,1-2.169,1.267S76.51,321.206,78.211,321.849Z" transform="translate(-34.674 -304.957)" fill="#ffa399"/>
            <path id="Trazado_897215" data-name="Trazado 897215" d="M44.756,378.766c-.062.906-.608,4.263-.676,4.933s.287.941.8,1.64,1.891,1.662,2.294,2.615,1.939,2.05,4.1,2.209,3.882-.283,3.808-1.291a5.86,5.86,0,0,0-.359-1.684s-4.185-3.983-4.589-4.935-1.307-3.074-1.307-3.074Z" transform="translate(-41.863 -291.521)" fill="#404759"/>
            <path id="Trazado_897216" data-name="Trazado 897216" d="M46.023,336.164c-1.133,2.048-3.147,5.373-3.615,9.12s.212,8.8,1.025,12.547.421,9.595.323,11,8.131,5.172,8.52,3.318c.264-1.254,2.846-15.161,3.336-16.083s1.8-2.112,2.254-3.522.052-10.541-1.379-12.1S46.023,336.164,46.023,336.164Z" transform="translate(-42.255 -300.719)" fill="#2c6bb8"/>
            <path id="Trazado_897217" data-name="Trazado 897217" d="M43.634,339.837a8.76,8.76,0,0,0-.828,2.249c-.359,1.47,1.881,3.824,5.438,4.906a11.9,11.9,0,0,0,9.568-.756,18.2,18.2,0,0,0,3.141-1.775l.153-4.039Z" transform="translate(-42.144 -299.926)" fill="#1d2329"/>
            <g id="Grupo_1108906" data-name="Grupo 1108906" transform="translate(0.192 40.304)">
              <path id="Trazado_897218" data-name="Trazado 897218" d="M48.253,348.645a2.917,2.917,0,0,1-.952-.223c-.545-.2-5.248-2.36-4.866-3.733.221-.8,1.448-4.377,1.5-4.529l1,.342c-.013.035-1.165,3.4-1.451,4.355a13.887,13.887,0,0,0,4.6,2.716c.266-.833.838-3.291,1.175-4.822l.12-.546,5.75,1.622v.4c0,1.145-.01,3.854-.1,4.262L54,348.262c.043-.241.071-1.971.074-3.637l-3.907-1.1c-.294,1.319-.945,4.152-1.212,4.725A.7.7,0,0,1,48.253,348.645Z" transform="translate(-42.413 -340.16)" fill="#2c6bb8"/>
            </g>
            <path id="Trazado_897219" data-name="Trazado 897219" d="M52.115,367.454c-.282,1.913-1.19,17.545-1.054,19.678a5.36,5.36,0,0,1-6.488-1.077c-.379-.612-1.587-13.529-1.571-15.866S44.27,357.9,44.27,357.9Z" transform="translate(-42.094 -296.027)" fill="#2c6bb8"/>
            <path id="Trazado_897220" data-name="Trazado 897220" d="M63.546,315.866a10.172,10.172,0,0,0-5.733,2.156c-1.417,1.357-5.476,5.755-6.523,8.692s-7.34,16.687-8.055,18.512,4.979,5.051,7.806,5.464c5.269.768,8.443-1.657,9.27-2.853a101.173,101.173,0,0,0,5.655-13.15c2.028-5.72,3.8-11.509,3.024-14.28S63.546,315.866,63.546,315.866Z" transform="translate(-42.057 -305.101)" fill="#4280ff"/>
            <path id="Trazado_897221" data-name="Trazado 897221" d="M59.943,314.644a7.632,7.632,0,0,1-1.048,3.159c-.529.652-.761.761-.788,1.685s1.938,4.388,2.885,5.057,1.765-.219,2.136-.623,1.688-1.638,2.713-1.513,2.4.367,3.154-.064,1.984-3.042,2.114-3.668c.715-.083,1.186.053.945-1.052a2.836,2.836,0,0,1,.213-2.1c.236-.593,1.06-4.371-.2-4.962S59.943,314.644,59.943,314.644Z" transform="translate(-38.833 -306.257)" fill="#ffa399"/>
            <path id="Trazado_897222" data-name="Trazado 897222" d="M72.025,313.787a1.931,1.931,0,0,0-.548,1.533,4.248,4.248,0,0,1-.168,1.307,3.743,3.743,0,0,0-1.592,1.251,18.936,18.936,0,0,0-.828,1.858l-1.356-.482a1.252,1.252,0,0,0-1.141-1.594c-1.482-.173-2.063,1.424-3.105,1.914a2.838,2.838,0,0,1-2.63.043,3.5,3.5,0,0,1-1.325-1.753,13.128,13.128,0,0,1-.252-5.333c.319-2.924,1.706-3.777,3.2-4.155,1.614-1.558,4.408-1.65,6.276-.931s3.907,1.757,4.85,3.829c.567,1.243-.721,2.426-.857,2.523S72.025,313.787,72.025,313.787Z" transform="translate(-38.651 -307.013)" fill="#1c2134"/>
            <path id="Trazado_897223" data-name="Trazado 897223" d="M65.69,315.579c-.372-.134-1.038.446-1.232,1.265a2,2,0,0,0,.533,1.93c.373.236.714-1.384.8-1.795S66.031,315.7,65.69,315.579Z" transform="translate(-37.473 -305.167)" fill="#ffa399"/>
            <path id="Trazado_897224" data-name="Trazado 897224" d="M57.647,325.387c-2.617-2.077-6.058-3.131-7.748,2.4-.753,2.465-2.7,13.067-3.023,16s5.125,2.769,7.142-1.576,4.6-9.77,4.682-12.321S58.708,326.229,57.647,325.387Z" transform="translate(-41.26 -303.408)" fill="#5c92ff"/>
            <path id="Trazado_897225" data-name="Trazado 897225" d="M67.763,340.237c-.072-.125,7.2.728,7.2.728l-1.95.67L67.5,342.856l-7.088-.834,1.564-1.5Z" transform="translate(-38.335 -299.842)" fill="#161b29"/>
          </g>
          <path id="Trazado_897226" data-name="Trazado 897226" d="M61.3,344.452a6.86,6.86,0,0,0,1.834.771,16.9,16.9,0,0,0,3.442-.59,15.66,15.66,0,0,0,2.6-1.134,3.023,3.023,0,0,0,.632-.584s1.368-.288,1.627-.821-.006-.81-.006-.81l-3.13.992-2.251-.14s-1.128-1.055-1.758-.942-2.726.489-3,.9A6.586,6.586,0,0,0,61.3,344.452Z" transform="translate(-38.171 -299.635)" fill="#ffa399"/>
          <path id="Trazado_897227" data-name="Trazado 897227" d="M63.967,343.1a5.942,5.942,0,0,0,1.5-.393c.45-.086,2.338,0,2.826-.023s.621-.908.114-1.136a27.758,27.758,0,0,0-3.1-.314,4.57,4.57,0,0,0-1.971-.141c-.693.165-2.114.109-2.4.434S63.967,343.1,63.967,343.1Z" transform="translate(-38.226 -299.667)" fill="#ffa399"/>
          <path id="Trazado_897228" data-name="Trazado 897228" d="M48.072,337.651c-.563.913-1.588,3.242-1.119,4.447s3.513,2.121,8.48,3.035a49.129,49.129,0,0,0,9.433.954,2.976,2.976,0,0,0,.2-3.685,1.9,1.9,0,0,0-1.426-1.053c-.469-.018-8.579-2.754-9.618-3.242S48.072,337.651,48.072,337.651Z" transform="translate(-41.266 -300.398)" fill="#5c92ff"/>
        </g>
      </g>
      <g id="Grupo_1108914" data-name="Grupo 1108914" transform="translate(-10648.114 -10232.979)">
        <path id="Trazado_897229" data-name="Trazado 897229" d="M159.886,364.676,186.418,380h13.906L177.856,354.3Z" transform="translate(-159.886 -319.597)" fill="#c1c8e0"/>
        <g id="Grupo_1108911" data-name="Grupo 1108911" transform="translate(13.906 17.734)">
          <g id="Grupo_1108910" data-name="Grupo 1108910">
            <path id="Trazado_897230" data-name="Trazado 897230" d="M193.144,380.289l17.97-10.375V352.942l-17.97,10.375Z" transform="translate(-166.612 -337.624)" fill="#ffba17"/>
            <path id="Trazado_897231" data-name="Trazado 897231" d="M171.323,350.718l26.532,15.319,17.97-10.375-26.532-15.318Z" transform="translate(-171.323 -340.344)" fill="#ed9507"/>
            <path id="Trazado_897232" data-name="Trazado 897232" d="M171.323,365.848l26.532,15.319V364.2l-26.532-15.319Z" transform="translate(-171.323 -338.502)" fill="#ffc626"/>
          </g>
          <path id="Trazado_897233" data-name="Trazado 897233" d="M181.707,356.714l1.28.738,17.97-10.374-1.28-.739Z" transform="translate(-169.081 -339.05)" fill="#a15902"/>
          <path id="Trazado_897234" data-name="Trazado 897234" d="M181.707,371.842l1.28.739V355.61l-1.28-.738Z" transform="translate(-169.081 -337.207)" fill="#a15902"/>
          <path id="Trazado_897235" data-name="Trazado 897235" d="M206,359.625l-1.279.739-26.533-15.319,1.28-.739Z" transform="translate(-169.841 -339.489)" fill="#a15902"/>
          <path id="Trazado_897236" data-name="Trazado 897236" d="M201.287,373.875l-1.279.739v-16.97l1.279-.739Z" transform="translate(-165.13 -336.768)" fill="#a15902"/>
        </g>
        <g id="Grupo_1108913" data-name="Grupo 1108913" transform="translate(13.906 0)">
          <g id="Grupo_1108912" data-name="Grupo 1108912">
            <path id="Trazado_897237" data-name="Trazado 897237" d="M193.144,365.7l17.97-10.375V338.358l-17.97,10.375Z" transform="translate(-166.612 -323.039)" fill="#ffba17"/>
            <path id="Trazado_897238" data-name="Trazado 897238" d="M171.323,336.134l26.532,15.319,17.97-10.375-26.532-15.319Z" transform="translate(-171.323 -325.759)" fill="#ffda38"/>
            <path id="Trazado_897239" data-name="Trazado 897239" d="M171.323,351.264l26.532,15.319V349.611l-26.532-15.319Z" transform="translate(-171.323 -323.917)" fill="#ffc626"/>
          </g>
          <path id="Trazado_897240" data-name="Trazado 897240" d="M181.707,342.129l1.28.739,17.97-10.374-1.28-.739Z" transform="translate(-169.081 -324.464)" fill="#a15902"/>
          <path id="Trazado_897241" data-name="Trazado 897241" d="M181.707,357.259l1.28.739V341.026l-1.28-.739Z" transform="translate(-169.081 -322.622)" fill="#a15902"/>
          <path id="Trazado_897242" data-name="Trazado 897242" d="M206,345.04l-1.279.739-26.533-15.318,1.28-.739Z" transform="translate(-169.841 -324.903)" fill="#a15902"/>
          <path id="Trazado_897243" data-name="Trazado 897243" d="M201.287,359.292l-1.279.739V343.059l1.279-.739Z" transform="translate(-165.13 -322.183)" fill="#a15902"/>
        </g>
      </g>
    </g>
  </g>
</svg>
