<svg xmlns="http://www.w3.org/2000/svg" width="64.736" height="59.374" viewBox="0 0 64.736 59.374">
  <g id="_x31_8_Ozonation" transform="translate(7.017 -16.504)">
    <g id="Grupo_1113733" data-name="Grupo 1113733" transform="translate(-7.017 16.505)">
      <circle id="Elipse_12230" data-name="Elipse 12230" cx="8.122" cy="8.122" r="8.122" transform="translate(33.753 27.565) rotate(-76.7)" fill="#f4f4f4"/>
      <path id="Trazado_901110" data-name="Trazado 901110" d="M338.663,132.7a8.122,8.122,0,0,1-8.122,8.122,7.793,7.793,0,0,1-1.935-.237,8.116,8.116,0,0,0,0-15.771,7.791,7.791,0,0,1,1.935-.237A8.126,8.126,0,0,1,338.663,132.7Z" transform="translate(-287.021 -111.183)" opacity="0.18"/>
      <circle id="Elipse_12231" data-name="Elipse 12231" cx="8.122" cy="8.122" r="8.122" transform="translate(0 37.967) rotate(-76.7)" fill="#f4f4f4"/>
      <path id="Trazado_901111" data-name="Trazado 901111" d="M62.537,216.681a8.129,8.129,0,0,1-10.591,7.741,8.125,8.125,0,0,0,0-15.481,8.129,8.129,0,0,1,10.591,7.74Z" transform="translate(-44.64 -184.763)" opacity="0.18"/>
      <circle id="Elipse_12232" data-name="Elipse 12232" cx="8.122" cy="8.122" r="8.122" transform="translate(25.623 52.876) rotate(-76.7)" fill="#f4f4f4"/>
      <path id="Trazado_901112" data-name="Trazado 901112" d="M273.109,336.949a8.123,8.123,0,0,1-8.122,8.122,7.793,7.793,0,0,1-1.935-.237,8.116,8.116,0,0,0,0-15.771,7.792,7.792,0,0,1,1.935-.237A8.126,8.126,0,0,1,273.109,336.949Z" transform="translate(-229.589 -290.129)" opacity="0.18"/>
      <circle id="Elipse_12233" data-name="Elipse 12233" cx="5.942" cy="5.942" r="5.942" transform="translate(20.131 11.563) rotate(-76.7)" fill="#7bffcd"/>
      <circle id="Elipse_12234" data-name="Elipse 12234" cx="5.942" cy="5.942" r="5.942" transform="translate(3.618 56.641) rotate(-76.7)" fill="#7bffcd"/>
      <circle id="Elipse_12235" data-name="Elipse 12235" cx="5.942" cy="5.942" r="5.942" transform="translate(50.44 43.413) rotate(-76.7)" fill="#7bffcd"/>
      <circle id="Elipse_12236" data-name="Elipse 12236" cx="14.472" cy="14.472" r="14.472" transform="translate(8.137 32.347) rotate(-45)" fill="#ffd764"/>
      <path id="Trazado_901113" data-name="Trazado 901113" d="M222.919,175.222A14.474,14.474,0,0,1,208.445,189.7a14.891,14.891,0,0,1-2.179-.158,14.482,14.482,0,0,0,0-28.632,14.894,14.894,0,0,1,2.179-.158A14.478,14.478,0,0,1,222.919,175.222Z" transform="translate(-179.839 -142.876)" opacity="0.18"/>
      <g id="Grupo_1113732" data-name="Grupo 1113732" transform="translate(0.994 0.539)">
        <path id="Trazado_901114" data-name="Trazado 901114" d="M290.747,119.26a8.736,8.736,0,0,0-7.464,4.155.658.658,0,0,0,1.118.695,7.463,7.463,0,1,1,8.125,11.177.658.658,0,0,0,.311,1.279,8.779,8.779,0,0,0-2.091-17.305Z" transform="translate(-248.221 -107.067)" fill="#2b3c65"/>
        <path id="Trazado_901115" data-name="Trazado 901115" d="M9.783,220.807a8.709,8.709,0,0,0,3.509-.726.658.658,0,1,0-.527-1.207,7.394,7.394,0,0,1-2.982.616,7.464,7.464,0,0,1,0-14.928,7.351,7.351,0,0,1,3.283.761.658.658,0,0,0,.583-1.18,8.653,8.653,0,0,0-3.866-.9,8.78,8.78,0,1,0,0,17.561Z" transform="translate(-1.003 -180.647)" fill="#2b3c65"/>
        <path id="Trazado_901116" data-name="Trazado 901116" d="M219.612,367.12a7.469,7.469,0,0,1-7.071-5.064.658.658,0,0,0-1.246.425,8.782,8.782,0,1,0,15.8-7.423.658.658,0,1,0-1.12.691,7.461,7.461,0,0,1-6.358,11.371Z" transform="translate(-185.207 -313.375)" fill="#2b3c65"/>
        <path id="Trazado_901117" data-name="Trazado 901117" d="M159.845,27.455a6.6,6.6,0,1,0,6.6-6.6,6.608,6.608,0,0,0-6.6,6.6Zm11.884,0a5.284,5.284,0,1,1-5.284-5.284A5.29,5.29,0,0,1,171.729,27.455Z" transform="translate(-140.164 -20.855)" fill="#2b3c65"/>
        <path id="Trazado_901118" data-name="Trazado 901118" d="M207.8,48.156a.658.658,0,0,0,.658.658,1.985,1.985,0,0,1,1.983,1.983.658.658,0,0,0,1.316,0,3.3,3.3,0,0,0-3.3-3.3A.658.658,0,0,0,207.8,48.156Z" transform="translate(-182.177 -44.197)" fill="#2b3c65"/>
        <path id="Trazado_901119" data-name="Trazado 901119" d="M26.695,391.208a6.6,6.6,0,1,0,6.6-6.6A6.608,6.608,0,0,0,26.695,391.208Zm11.884,0a5.284,5.284,0,1,1-5.284-5.284A5.29,5.29,0,0,1,38.579,391.208Z" transform="translate(-23.512 -339.537)" fill="#2b3c65"/>
        <path id="Trazado_901120" data-name="Trazado 901120" d="M74.653,411.907a.658.658,0,0,0,.658.658,1.985,1.985,0,0,1,1.983,1.983.658.658,0,1,0,1.316,0,3.3,3.3,0,0,0-3.3-3.3A.658.658,0,0,0,74.653,411.907Z" transform="translate(-65.527 -362.877)" fill="#2b3c65"/>
        <path id="Trazado_901121" data-name="Trazado 901121" d="M411.063,277.783a6.6,6.6,0,1,0,6.6,6.6A6.608,6.608,0,0,0,411.063,277.783Zm0,11.884a5.284,5.284,0,1,1,5.284-5.284A5.289,5.289,0,0,1,411.063,289.667Z" transform="translate(-354.472 -245.948)" fill="#2b3c65"/>
        <path id="Trazado_901122" data-name="Trazado 901122" d="M453.076,304.427a.658.658,0,0,0,0,1.316,1.985,1.985,0,0,1,1.983,1.983.658.658,0,1,0,1.316,0A3.3,3.3,0,0,0,453.076,304.427Z" transform="translate(-396.486 -269.291)" fill="#2b3c65"/>
        <path id="Trazado_901123" data-name="Trazado 901123" d="M333.837,278.412a.657.657,0,0,0-.692.623,13.65,13.65,0,0,1-.276,2.1.658.658,0,1,0,1.288.271,15.075,15.075,0,0,0,.3-2.306A.659.659,0,0,0,333.837,278.412Z" transform="translate(-291.737 -246.499)" fill="#2b3c65"/>
        <path id="Trazado_901124" data-name="Trazado 901124" d="M116.9,185.7a15.018,15.018,0,0,0,12.07-6.007.658.658,0,0,0-1.05-.794A13.816,13.816,0,1,1,130.6,168.77a.658.658,0,1,0,1.3-.169,15.128,15.128,0,1,0-15,17.1Z" transform="translate(-89.288 -138.761)" fill="#2b3c65"/>
        <path id="Trazado_901125" data-name="Trazado 901125" d="M173.3,222.565a3.92,3.92,0,0,0-3.916,3.915v4.895a3.915,3.915,0,1,0,7.831,0V226.48A3.92,3.92,0,0,0,173.3,222.565Zm2.6,8.81a2.6,2.6,0,1,1-5.2,0V226.48a2.6,2.6,0,0,1,5.2,0Z" transform="translate(-148.522 -197.572)" fill="#2b3c65"/>
        <path id="Trazado_901126" data-name="Trazado 901126" d="M248.945,277.783h-1.187a.658.658,0,0,0,0,1.316h1.187a.71.71,0,1,1,0,1.42.658.658,0,0,0,0,1.316.71.71,0,0,1,0,1.42h-1.187a.658.658,0,0,0,0,1.316h1.187a3.66,3.66,0,0,0,0-6.79Z" transform="translate(-216.607 -245.948)" fill="#2b3c65"/>
      </g>
    </g>
  </g>
</svg>
