<svg xmlns="http://www.w3.org/2000/svg" width="90.914" height="90.914" viewBox="0 0 90.914 90.914">
  <g id="Grupo_1114846" data-name="Grupo 1114846" transform="translate(-798.158 -4214.484)">
    <g id="Grupo_1098742" data-name="Grupo 1098742" transform="translate(798.158 4214.484)">
      <path id="Trazado_874925" data-name="Trazado 874925" d="M45.457,0A45.457,45.457,0,0,1,90.914,45.457h0A45.457,45.457,0,0,1,0,45.457H0A45.457,45.457,0,0,1,45.457,0Z" transform="translate(0 0)" fill="#f5c87f" opacity="0.859"/>
      <path id="Trazado_874923" data-name="Trazado 874923" d="M45.457,0A45.457,45.457,0,0,1,90.914,45.457h0A45.457,45.457,0,0,1,0,45.457H0A45.457,45.457,0,0,1,45.457,0Z" transform="translate(0 0)" fill="none"/>
    </g>
    <g id="Grupo_1113740" data-name="Grupo 1113740" transform="translate(811.322 4217.602)">
      <g id="Grupo_1113738" data-name="Grupo 1113738" transform="translate(0.941 12.545)">
        <g id="Grupo_1113737" data-name="Grupo 1113737" transform="translate(0 0)">
          <g id="Grupo_1113736" data-name="Grupo 1113736">
            <path id="Trazado_901127" data-name="Trazado 901127" d="M352.985,358.245a2.288,2.288,0,0,1-2.6,2.507c-1.184,0-2.208-.183-2.7-1.177a3.009,3.009,0,0,1,4.028-4.028A2.7,2.7,0,0,1,352.985,358.245Z" transform="translate(-304.628 -312.958)" fill="#97da7b"/>
            <path id="Trazado_901128" data-name="Trazado 901128" d="M353.872,357.7a3.008,3.008,0,0,1-4.028,4.028,3.008,3.008,0,1,0,4.028-4.028Z" transform="translate(-306.781 -315.109)" fill="#80d261"/>
            <path id="Trazado_901129" data-name="Trazado 901129" d="M167.605,154.638a2.288,2.288,0,0,1-2.6,2.507c-1.184,0-2.208-.183-2.7-1.177a3.009,3.009,0,0,1,4.028-4.028A2.7,2.7,0,0,1,167.605,154.638Z" transform="translate(-142.565 -134.961)" fill="#97da7b"/>
            <path id="Trazado_901130" data-name="Trazado 901130" d="M168.492,154.091a3.008,3.008,0,0,1-4.028,4.028,3.008,3.008,0,1,0,4.028-4.028Z" transform="translate(-144.718 -137.112)" fill="#80d261"/>
            <path id="Trazado_901131" data-name="Trazado 901131" d="M194.289,426.947c0,2.443-1.374,3.687-3.817,3.687-1.741,0-3.247-.269-3.969-1.731a4.426,4.426,0,0,1,5.925-5.925C193.89,423.7,194.289,425.206,194.289,426.947Z" transform="translate(-163.587 -371.781)" fill="#97da7b"/>
            <path id="Trazado_901132" data-name="Trazado 901132" d="M195.594,426.145a4.424,4.424,0,0,1-5.924,5.924,4.424,4.424,0,1,0,5.924-5.924Z" transform="translate(-166.753 -374.947)" fill="#80d261"/>
            <circle id="Elipse_12237" data-name="Elipse 12237" cx="4.424" cy="4.424" r="4.424" transform="translate(11.827 30.357)" fill="#97da7b"/>
            <path id="Trazado_901133" data-name="Trazado 901133" d="M168.687,245.64c0,8.011-5.528,13.3-13.539,13.3-4.929,0-9.283-1.256-11.9-5.014a14.508,14.508,0,0,1,19.486-20.659C166.883,235.822,168.687,240.407,168.687,245.64Z" transform="translate(-123.892 -204.465)" fill="#eaf6ff"/>
            <path id="Trazado_901134" data-name="Trazado 901134" d="M182.152,255.554a14.438,14.438,0,0,1,2.6,8.29c0,9.114-5.981,14.506-14.506,14.506a14.444,14.444,0,0,1-8.927-3.071,14.506,14.506,0,1,0,20.831-19.724Z" transform="translate(-141.97 -225.813)" fill="#d8ecfe"/>
            <path id="Trazado_901135" data-name="Trazado 901135" d="M310.954,226.885c0,2.443-1.374,3.687-3.817,3.687-1.741,0-3.247-.269-3.969-1.731a4.426,4.426,0,0,1,5.925-5.925C310.555,223.638,310.954,225.144,310.954,226.885Z" transform="translate(-265.578 -196.883)" fill="#ade194"/>
            <path id="Trazado_901136" data-name="Trazado 901136" d="M312.26,226.083a4.424,4.424,0,0,1-5.924,5.924,4.424,4.424,0,1,0,5.924-5.924Z" transform="translate(-268.745 -200.049)" fill="#97da7b"/>
            <path id="Trazado_901137" data-name="Trazado 901137" d="M122.33,310.857a2.288,2.288,0,0,1-2.6,2.507c-1.184,0-2.208-.183-2.7-1.177a3.009,3.009,0,0,1,4.028-4.028A2.7,2.7,0,0,1,122.33,310.857Z" transform="translate(-102.985 -271.53)" fill="#ade194"/>
            <path id="Trazado_901138" data-name="Trazado 901138" d="M123.217,310.31a3.008,3.008,0,0,1-4.028,4.028,3.008,3.008,0,1,0,4.028-4.028Z" transform="translate(-105.137 -273.682)" fill="#97da7b"/>
            <g id="Grupo_1113734" data-name="Grupo 1113734">
              <path id="Trazado_901139" data-name="Trazado 901139" d="M20.763,45.331,9.772,34.34a7.85,7.85,0,0,1-1.114-9.7A7.976,7.976,0,0,1,9.91,23.378c3.065-3.065,7.667-2.8,10.732.263l11.107,10.7Z" transform="translate(-7.474 -20.942)" fill="#eaf6ff"/>
              <path id="Trazado_901140" data-name="Trazado 901140" d="M29.1,21.4a7.85,7.85,0,0,0-12.213,1.4c3.029-1.888,7.513-1.967,10.145.665L38.023,34.459l2.067-2.067Z" transform="translate(-15.703 -19.102)" fill="#d8ecfe"/>
              <path id="Trazado_901141" data-name="Trazado 901141" d="M92.34,118.662l-2.415-2.415a.692.692,0,0,1,0-.979l9.619-9.619.215-.215,2.423-2.235a.692.692,0,0,1,.979,0l2.142,2.228a.692.692,0,0,1,0,.979l-2.165,2.438-.2.2-9.619,9.619A.692.692,0,0,1,92.34,118.662Z" transform="translate(-79.377 -92.444)" fill="#ade194"/>
              <path id="Trazado_901142" data-name="Trazado 901142" d="M173.857,103.974l-2.415-2.415a.692.692,0,0,0-.979,0l-2.656,2.656a.692.692,0,0,1,.979,0l2.415,2.415a.692.692,0,0,1,0,.979l2.656-2.656A.692.692,0,0,0,173.857,103.974Z" transform="translate(-147.639 -91.01)" fill="#97da7b"/>
              <path id="Trazado_901143" data-name="Trazado 901143" d="M310.483,32.393,321.474,21.4a7.85,7.85,0,0,1,9.7-1.114,7.973,7.973,0,0,1,1.265,1.252c3.065,3.065,2.8,7.667-.263,10.732l-10.7,11.107Z" transform="translate(-272.371 -19.104)" fill="#eaf6ff"/>
              <path id="Trazado_901144" data-name="Trazado 901144" d="M395.345,40.731a7.85,7.85,0,0,0-1.4-12.213c1.888,3.029,1.967,7.513-.665,10.145L382.287,49.654l2.067,2.067Z" transform="translate(-335.143 -27.334)" fill="#d8ecfe"/>
              <path id="Trazado_901145" data-name="Trazado 901145" d="M294.529,103.971l2.415-2.415a.692.692,0,0,1,.979,0l9.619,9.619.215.215,2.236,2.423a.692.692,0,0,1,0,.979l-2.228,2.142a.692.692,0,0,1-.979,0l-2.438-2.165-.2-.2-9.619-9.619a.692.692,0,0,1,0-.979Z" transform="translate(-258.246 -91.008)" fill="#ade194"/>
              <path id="Trazado_901146" data-name="Trazado 901146" d="M376.044,185.488l2.415-2.415a.692.692,0,0,0,0-.979l-2.656-2.656a.692.692,0,0,1,0,.979l-2.415,2.415a.692.692,0,0,1-.979,0l2.656,2.656a.692.692,0,0,0,.979,0Z" transform="translate(-326.508 -159.27)" fill="#97da7b"/>
            </g>
            <g id="Grupo_1113735" data-name="Grupo 1113735" transform="translate(9.214 5.327)">
              <circle id="Elipse_12238" data-name="Elipse 12238" cx="2.034" cy="2.034" r="2.034" transform="translate(0 5.977)" fill="#ade194"/>
              <circle id="Elipse_12239" data-name="Elipse 12239" cx="2.034" cy="2.034" r="2.034" transform="translate(41.597)" fill="#ade194"/>
            </g>
          </g>
        </g>
      </g>
      <g id="Grupo_1113739" data-name="Grupo 1113739" transform="translate(0.001 11.602)">
        <path id="Trazado_901147" data-name="Trazado 901147" d="M249.392,231.775a15.436,15.436,0,0,0-1.7-7.332,5.365,5.365,0,1,0-7.82-7.213,15.312,15.312,0,0,0-5.924-1.179,15.563,15.563,0,0,0-2.369.181.943.943,0,1,0,.288,1.865,13.677,13.677,0,0,1,2.081-.159,13.442,13.442,0,0,1,5.12,1,5.366,5.366,0,0,0,6.987,6.444,13.566,13.566,0,0,1-3.279,16.414A.943.943,0,1,0,244,243.23a15.462,15.462,0,0,0,3.239-3.856,3.951,3.951,0,1,0,2.152-7.6Zm-5.142-7.967a3.481,3.481,0,1,1,3.481-3.481A3.484,3.484,0,0,1,244.25,223.809Zm4.2,13.868a2.077,2.077,0,0,1-.332-.028,15.419,15.419,0,0,0,1.117-3.944,2.063,2.063,0,0,1-.785,3.972Z" transform="translate(-201.751 -189.383)"/>
        <path id="Trazado_901148" data-name="Trazado 901148" d="M119.694,262.164a13.572,13.572,0,0,1-18.744-10.528,3.949,3.949,0,0,0,.918-7.2,13.716,13.716,0,0,1,6.446-6.882.943.943,0,1,0-.844-1.687,15.469,15.469,0,0,0-4.53,3.423,5.366,5.366,0,1,0-7,8.132,3.949,3.949,0,0,0,3.116,4.286,15.385,15.385,0,0,0,5.874,10.221,5.368,5.368,0,1,0,10.247,3.189,15.288,15.288,0,0,0,5.261-1.215.943.943,0,1,0-.742-1.735ZM96.682,245.5a3.479,3.479,0,0,1,5.074-4.743,15.459,15.459,0,0,0-1.707,3.131A3.952,3.952,0,0,0,96.682,245.5Zm1.121,2.334a2.064,2.064,0,1,1,2.064,2.065A2.067,2.067,0,0,1,97.8,247.837ZM110,267.157a3.481,3.481,0,0,1-3.421-4.12,15.407,15.407,0,0,0,6.606,2.051A3.462,3.462,0,0,1,110,267.157Z" transform="translate(-82.178 -207.567)"/>
        <path id="Trazado_901149" data-name="Trazado 901149" d="M14.393,39.911a1.63,1.63,0,0,0,1.156-.478L20.3,34.686a3.949,3.949,0,1,0,5.549-5.549l1.979-1.979a1.637,1.637,0,0,0,0-2.313L25.409,22.43a1.636,1.636,0,0,0-2.229-.075L15,14.179A8.791,8.791,0,1,0,2.571,26.612l.845.845A.943.943,0,1,0,4.75,26.123L3.9,25.278a6.9,6.9,0,0,1,9.765-9.765l8.172,8.171L12.077,33.45,7.863,29.236A.943.943,0,0,0,6.529,30.57l4.217,4.217a1.636,1.636,0,0,0,.075,2.23l2.415,2.415a1.629,1.629,0,0,0,1.156.478Zm8.991-5.622a2.071,2.071,0,0,1-1.739-.952L24.5,30.485a2.065,2.065,0,0,1-1.113,3.8Zm.868-10.348L26.313,26l-11.92,11.92-2.06-2.06Z" transform="translate(-0.001 -11.605)"/>
        <path id="Trazado_901150" data-name="Trazado 901150" d="M315.229,20.393a8.791,8.791,0,0,0-15.008-6.216l-8.175,8.175a1.636,1.636,0,0,0-2.23.075L287.4,24.843a1.637,1.637,0,0,0,0,2.313L299.676,39.43a1.637,1.637,0,0,0,2.313,0l2.415-2.415a1.632,1.632,0,0,0,.075-2.23l8.175-8.175a8.734,8.734,0,0,0,2.575-6.216ZM303.149,33.447l-4.688-4.689a.943.943,0,1,0-1.334,1.334l5.765,5.767-2.06,2.06L288.913,26l2.059-2.061,3.041,3.041a.943.943,0,1,0,1.334-1.334l-1.963-1.963,8.171-8.171a6.9,6.9,0,0,1,9.765,9.765Z" transform="translate(-250.834 -11.602)"/>
        <path id="Trazado_901151" data-name="Trazado 901151" d="M73.226,104.452a2.977,2.977,0,1,0,2.977-2.977A2.98,2.98,0,0,0,73.226,104.452Zm2.977-1.09a1.09,1.09,0,1,1-1.09,1.09A1.091,1.091,0,0,1,76.2,103.362Z" transform="translate(-64.016 -90.171)"/>
        <path id="Trazado_901152" data-name="Trazado 901152" d="M406.916,53.953a2.977,2.977,0,1,0,2.977,2.977,2.98,2.98,0,0,0-2.977-2.977Zm0,4.067a1.09,1.09,0,1,1,1.09-1.09A1.091,1.091,0,0,1,406.916,58.02Z" transform="translate(-353.132 -48.626)"/>
        <path id="Trazado_901153" data-name="Trazado 901153" d="M187.182,298.693a4.271,4.271,0,0,1,2.4.733.943.943,0,1,0,1.056-1.563,6.182,6.182,0,1,0-3.457,11.306,5.111,5.111,0,0,0,4.023-1.816.943.943,0,1,0-1.446-1.212,3.216,3.216,0,0,1-2.577,1.142,4.295,4.295,0,1,1,0-8.589Z" transform="translate(-158.235 -260.933)"/>
        <path id="Trazado_901154" data-name="Trazado 901154" d="M276.311,328.623a.943.943,0,0,0,.943-.943V320a.943.943,0,0,0-1.887,0v.265a4.331,4.331,0,1,0,0,7.146v.265A.943.943,0,0,0,276.311,328.623Zm-3.388-2.337a2.445,2.445,0,1,1,2.445-2.445A2.447,2.447,0,0,1,272.923,326.285Z" transform="translate(-234.809 -280.387)"/>
        <circle id="Elipse_12240" data-name="Elipse 12240" cx="0.943" cy="0.943" r="0.943" transform="translate(6.692 4.6)"/>
        <circle id="Elipse_12241" data-name="Elipse 12241" cx="0.943" cy="0.943" r="0.943" transform="translate(7.091 8.465)"/>
        <circle id="Elipse_12242" data-name="Elipse 12242" cx="0.943" cy="0.943" r="0.943" transform="translate(10.565 6.393)"/>
        <circle id="Elipse_12243" data-name="Elipse 12243" cx="0.943" cy="0.943" r="0.943" transform="translate(20.199 26.67)"/>
        <circle id="Elipse_12244" data-name="Elipse 12244" cx="0.943" cy="0.943" r="0.943" transform="translate(31.47 21.804)"/>
        <circle id="Elipse_12245" data-name="Elipse 12245" cx="0.943" cy="0.943" r="0.943" transform="translate(35.495 22.685)"/>
        <circle id="Elipse_12246" data-name="Elipse 12246" cx="0.943" cy="0.943" r="0.943" transform="translate(34.237 18.911)"/>
        <circle id="Elipse_12247" data-name="Elipse 12247" cx="0.943" cy="0.943" r="0.943" transform="translate(48.07 12.96)"/>
        <circle id="Elipse_12248" data-name="Elipse 12248" cx="0.943" cy="0.943" r="0.943" transform="translate(50.587 15.476)"/>
      </g>
    </g>
  </g>
</svg>
