<svg xmlns="http://www.w3.org/2000/svg" width="90.914" height="90.914" viewBox="0 0 90.914 90.914">
  <g id="Grupo_1114847" data-name="Grupo 1114847" transform="translate(-1108.159 -4214.484)">
    <g id="Grupo_1105798" data-name="Grupo 1105798" transform="translate(1108.159 4214.484)">
      <path id="Trazado_874924" data-name="Trazado 874924" d="M45.457,0A45.457,45.457,0,0,1,90.914,45.457h0A45.457,45.457,0,0,1,0,45.457H0A45.457,45.457,0,0,1,45.457,0Z" transform="translate(0 0)" fill="#f5c87f" opacity="0.859"/>
      <rect id="Rectángulo_400907" data-name="Rectángulo 400907" width="90.914" height="90.914" rx="45.457" transform="translate(0 0)" fill="none"/>
    </g>
    <g id="Layer_x0020_1" transform="translate(829.229 4228.469)">
      <path id="Trazado_901155" data-name="Trazado 901155" d="M327.875,36.835a1.14,1.14,0,0,1,.182-.364c.729-1.129.765-9.692,0-10.785a1.038,1.038,0,0,1,0-1.239c.729-1.093.729-9.692,0-10.785a1.038,1.038,0,0,1,0-1.239c.729-1.275.729-9.546,0-10.748A1.059,1.059,0,0,1,328.932,0h8.416a1.069,1.069,0,0,1,.874,1.676c-.729,1.166-.765,9.364-.036,10.748a1,1,0,0,1,0,1.312c-.656,1.02-.765,9.437.073,10.785a1.111,1.111,0,0,1-.073,1.2c-.4.729-.692,5.064-.4,8.38a34.291,34.291,0,0,1,5.647-.182,1.082,1.082,0,0,1,.619,1.858c-2.7,2.514-4.081,10.347-4.372,13.153-.765,8.6-8.817,15.558-16.286,12.57-6.7,2.878-14.137-3.425-14.829-11.222-.255-2.441-1.494-9.364-3.826-11.586a1.046,1.046,0,0,1,.619-1.822,26.412,26.412,0,0,1,5.028.109l.182-.51c.729-1.093.765-9.546-.036-10.821a1.041,1.041,0,0,1,.036-1.2c.729-1.275.729-9.582,0-10.785a1.038,1.038,0,0,1,0-1.239c.729-1.275.729-9.546,0-10.748A1.059,1.059,0,0,1,311.443,0h8.416a1.069,1.069,0,0,1,.874,1.676c-.765,1.166-.765,9.327-.036,10.748a1,1,0,0,1,0,1.312c-.692,1.02-.765,9.509.073,10.785a1.111,1.111,0,0,1-.073,1.2c-.729,1.239-.729,9.327,0,10.712a1.042,1.042,0,0,1,0,1.312,7.842,7.842,0,0,0-.4,2.3,13.264,13.264,0,0,1,1.749,1.166A20.067,20.067,0,0,1,327.875,36.835Zm9-.51a27.612,27.612,0,0,0-7.214,2,17,17,0,0,0-7.943,6.886c-2.186,3.789-2.733,9.91.474,13.044a18.468,18.468,0,0,1,9.145-13.371,1.063,1.063,0,0,1,1.093,1.822A16.288,16.288,0,0,0,324.2,59.534c6.157,2.478,12.752-3.753,13.371-10.785.036-.437.947-8.307,3.643-12.752A43.392,43.392,0,0,0,336.874,36.325Zm-1.2-1.931a34.333,34.333,0,0,1,.255-8.234h-5.574a32.705,32.705,0,0,1,.036,9.619A25.8,25.8,0,0,1,335.672,34.394Zm-14.72,25.577c-2.55-2.259-3.388-5.9-3.061-9.4a16.351,16.351,0,0,0-2.805-2.15A1.062,1.062,0,0,1,316.18,46.6a22.855,22.855,0,0,1,2.15,1.53,14.807,14.807,0,0,1,2.4-5.283c-4.409-3.243-10.165-3.826-13.189-3.9,2.332,3.971,3.1,10.785,3.133,11.149C311.115,55.235,315.6,60.846,320.953,59.971ZM316,38.147q1.148.383,2.3.874.055-.492.109-.874Zm2.441-26.124a32.28,32.28,0,0,1,0-9.91h-5.574a32.282,32.282,0,0,1,0,9.91Zm0,11.987a32.045,32.045,0,0,1,0-9.874h-5.574a32.047,32.047,0,0,1,0,9.874Zm-5.574,12.023h5.574a32.045,32.045,0,0,1,0-9.874h-5.574A32.047,32.047,0,0,1,312.864,36.034Zm17.489-24.01h5.574a32.282,32.282,0,0,1,0-9.91h-5.574A32.28,32.28,0,0,1,330.353,12.023Zm0,11.987h5.574a32.047,32.047,0,0,1,0-9.874h-5.574A32.045,32.045,0,0,1,330.353,24.01Z" fill-rule="evenodd"/>
      <path id="Trazado_901156" data-name="Trazado 901156" d="M740.726,990.332a17,17,0,0,0-7.943,6.886c-2.186,3.789-2.733,9.91.474,13.044A18.468,18.468,0,0,1,742.4,996.89a1.063,1.063,0,0,1,1.093,1.822,16.288,16.288,0,0,0-8.234,12.825c6.157,2.478,12.752-3.753,13.371-10.785.036-.437.947-8.307,3.643-12.752a43.388,43.388,0,0,0-4.336.328A27.609,27.609,0,0,0,740.726,990.332Z" transform="translate(-411.065 -952.003)" fill="#66ae32" fill-rule="evenodd"/>
      <g id="Grupo_1113741" data-name="Grupo 1113741" transform="translate(307.545 2.113)">
        <path id="Trazado_901157" data-name="Trazado 901157" d="M404.189,1072.9c-4.409-3.242-10.165-3.825-13.189-3.9,2.332,3.971,3.1,10.785,3.133,11.149.437,5.137,4.919,10.748,10.274,9.874-2.55-2.259-3.388-5.9-3.06-9.4a16.351,16.351,0,0,0-2.805-2.15,1.062,1.062,0,0,1,1.093-1.822,22.887,22.887,0,0,1,2.15,1.531A14.808,14.808,0,0,1,404.189,1072.9Z" transform="translate(-391 -1032.165)" fill="#7dd63e" fill-rule="evenodd"/>
        <path id="Trazado_901158" data-name="Trazado 901158" d="M623,1047q1.148.383,2.3.875.055-.492.109-.875Z" transform="translate(-614.547 -1010.966)" fill="#7dd63e" fill-rule="evenodd"/>
        <path id="Trazado_901159" data-name="Trazado 901159" d="M537,727.874h5.575a32.044,32.044,0,0,1,0-9.874H537A32.044,32.044,0,0,1,537,727.874Z" transform="translate(-531.681 -693.953)" fill="#7dd63e" fill-rule="evenodd"/>
        <path id="Trazado_901160" data-name="Trazado 901160" d="M537,397.874h5.575a32.043,32.043,0,0,1,0-9.874H537A32.043,32.043,0,0,1,537,397.874Z" transform="translate(-531.681 -375.977)" fill="#7dd63e" fill-rule="evenodd"/>
        <path id="Trazado_901161" data-name="Trazado 901161" d="M537,67.91h5.575a32.279,32.279,0,0,1,0-9.91H537A32.279,32.279,0,0,1,537,67.91Z" transform="translate(-531.681 -58)" fill="#7dd63e" fill-rule="evenodd"/>
        <path id="Trazado_901162" data-name="Trazado 901162" d="M1017,58a32.279,32.279,0,0,1,0,9.91h5.574a32.279,32.279,0,0,1,0-9.91Z" transform="translate(-994.192 -58)" fill="#7dd63e" fill-rule="evenodd"/>
        <path id="Trazado_901163" data-name="Trazado 901163" d="M1022.574,388H1017a32.043,32.043,0,0,1,0,9.874h5.574A32.043,32.043,0,0,1,1022.574,388Z" transform="translate(-994.192 -375.977)" fill="#7dd63e" fill-rule="evenodd"/>
        <path id="Trazado_901164" data-name="Trazado 901164" d="M1022.574,718H1017a32.7,32.7,0,0,1,.036,9.619,25.8,25.8,0,0,1,5.283-1.385A34.337,34.337,0,0,1,1022.574,718Z" transform="translate(-994.192 -693.953)" fill="#7dd63e" fill-rule="evenodd"/>
      </g>
    </g>
  </g>
</svg>
