<svg xmlns="http://www.w3.org/2000/svg" width="90.914" height="90.914" viewBox="0 0 90.914 90.914">
  <g id="Grupo_1114848" data-name="Grupo 1114848" transform="translate(6898.893 7393.516)">
    <g id="Grupo_1113574" data-name="Grupo 1113574" transform="translate(-6898.893 -7393.516)">
      <path id="Trazado_874925" data-name="Trazado 874925" d="M45.457,0A45.457,45.457,0,0,1,90.914,45.457h0A45.457,45.457,0,0,1,0,45.457H0A45.457,45.457,0,0,1,45.457,0Z" transform="translate(0 0)" fill="#f5c87f" opacity="0.859"/>
      <path id="Trazado_874923" data-name="Trazado 874923" d="M45.457,0A45.457,45.457,0,0,1,90.914,45.457h0A45.457,45.457,0,0,1,0,45.457H0A45.457,45.457,0,0,1,45.457,0Z" transform="translate(0 0)" fill="none"/>
    </g>
    <g id="Grupo_1113743" data-name="Grupo 1113743" transform="translate(-6887.029 -7454.887)">
      <path id="Trazado_901165" data-name="Trazado 901165" d="M7.788,302.666a1.888,1.888,0,0,1,2.067-1.048,36.055,36.055,0,0,1,13.815,6.448A78.1,78.1,0,0,1,35.179,318.4l.091.1h-13.1c-1.291-1.432-2.52-2.743-3.649-3.913a139.047,139.047,0,0,0-10.224-9.658A1.888,1.888,0,0,1,7.788,302.666Z" transform="translate(-6.583 -194.445)" fill="#47821c"/>
      <path id="Trazado_901166" data-name="Trazado 901166" d="M28.936,200.68a1.888,1.888,0,0,1,2.24-.6,36.057,36.057,0,0,1,12.171,9.181,78.107,78.107,0,0,1,9.106,12.5c1.907,3.184,3.5,6.22,4.738,8.767H45.623a146.542,146.542,0,0,0-8.672-15.964A139.006,139.006,0,0,0,28.961,203,1.888,1.888,0,0,1,28.936,200.68Z" transform="translate(-24.707 -106.481)" fill="#4e901e"/>
      <path id="Trazado_901167" data-name="Trazado 901167" d="M81.819,123a1.888,1.888,0,0,1,2.311-.179,36.057,36.057,0,0,1,10.3,11.239,78.1,78.1,0,0,1,6.685,13.948,117.2,117.2,0,0,1,4.571,15.525H94.572a135.638,135.638,0,0,0-7.394-25.417,139.008,139.008,0,0,0-5.756-12.833A1.888,1.888,0,0,1,81.819,123Z" transform="translate(-70.269 -39.481)" fill="#5eac24"/>
      <path id="Trazado_901168" data-name="Trazado 901168" d="M172.826,130.586a1.922,1.922,0,0,1,.011-.2,134.124,134.124,0,0,0-2.08-29.8c-1.426-8.122-3.031-13.655-3.047-13.71a1.913,1.913,0,0,1,.812-2.162,1.8,1.8,0,0,1,2.237.276,36.235,36.235,0,0,1,7.683,13.035,79.889,79.889,0,0,1,3.72,14.986,116.428,116.428,0,0,1,1.414,17.621Z" transform="translate(-145.064 -6.542)" fill="#6dc82a"/>
      <path id="Trazado_901169" data-name="Trazado 901169" d="M326.409,302.666a1.888,1.888,0,0,0-2.067-1.048,36.055,36.055,0,0,0-13.815,6.448A78.1,78.1,0,0,0,299.018,318.4l-.091.1h13.1c1.291-1.432,2.52-2.743,3.649-3.913a139.043,139.043,0,0,1,10.224-9.658A1.889,1.889,0,0,0,326.409,302.666Z" transform="translate(-258.682 -194.445)" fill="#4e901e"/>
      <path id="Trazado_901170" data-name="Trazado 901170" d="M298.972,200.68a1.888,1.888,0,0,0-2.24-.6,36.057,36.057,0,0,0-12.171,9.181,78.108,78.108,0,0,0-9.106,12.5c-1.907,3.184-3.5,6.22-4.738,8.767h11.568a146.546,146.546,0,0,1,8.672-15.964A139,139,0,0,1,298.947,203,1.888,1.888,0,0,0,298.972,200.68Z" transform="translate(-234.269 -106.481)" fill="#5eac24"/>
      <path id="Trazado_901171" data-name="Trazado 901171" d="M272.792,123a1.888,1.888,0,0,0-2.311-.179,36.056,36.056,0,0,0-10.3,11.239,78.1,78.1,0,0,0-6.685,13.948,117.2,117.2,0,0,0-4.571,15.525h11.115a135.638,135.638,0,0,1,7.394-25.417,139,139,0,0,1,5.756-12.833A1.888,1.888,0,0,0,272.792,123Z" transform="translate(-215.41 -39.481)" fill="#6dc82a"/>
      <path id="Trazado_901172" data-name="Trazado 901172" d="M236.215,130.771a1.923,1.923,0,0,0-.01-.2,130.48,130.48,0,0,1,2.28-29.788,139.1,139.1,0,0,1,3.2-13.7,1.888,1.888,0,0,0-3.128-1.9,36.056,36.056,0,0,0-7.965,13,78.073,78.073,0,0,0-3.9,14.968,113.291,113.291,0,0,0-1.538,17.614h11.059Z" transform="translate(-194.841 -6.716)" fill="#91dc5a"/>
      <g id="Grupo_1113742" data-name="Grupo 1113742" transform="translate(35.406 97.56)">
        <path id="Trazado_901173" data-name="Trazado 901173" d="M272.472,237.456a1.024,1.024,0,0,1-1.012-1.184c.487-3.069.941-4.973.96-5.052a1.024,1.024,0,0,1,1.991.477c0,.019-.455,1.913-.929,4.9A1.024,1.024,0,0,1,272.472,237.456Z" transform="translate(-270.306 -230.435)" fill="#5eac24"/>
        <path id="Trazado_901174" data-name="Trazado 901174" d="M264.019,313.823a1.024,1.024,0,0,1-1.023-1,83.6,83.6,0,0,1,.521-11.036,1.024,1.024,0,0,1,2.035.225,81.491,81.491,0,0,0-.509,10.764,1.024,1.024,0,0,1-1,1.047Z" transform="translate(-262.977 -291.393)" fill="#5eac24"/>
      </g>
      <path id="Trazado_901175" data-name="Trazado 901175" d="M10.913,419.625H9.139a1.024,1.024,0,0,0,0,2.047h1.774a1.024,1.024,0,0,0,0-2.047Z" transform="translate(-7.022 -296.594)"/>
      <path id="Trazado_901176" data-name="Trazado 901176" d="M463.291,419.625h-4.005a1.024,1.024,0,1,0,0,2.047h4.005a1.024,1.024,0,1,0,0-2.047Z" transform="translate(-396.565 -296.594)"/>
      <path id="Trazado_901177" data-name="Trazado 901177" d="M68.653,107.785a2.909,2.909,0,0,0-3.188-1.617,31.281,31.281,0,0,0-8.24,2.947c3.948-6.341,7.486-10.962,7.55-11.045.449-.594.7-.913.7-.916a2.912,2.912,0,0,0-3.416-4.493,32.764,32.764,0,0,0-8.876,5.817c2.909-7.3,5.469-12.144,5.495-12.192a2.912,2.912,0,0,0-4.175-3.8,35.3,35.3,0,0,0-9.485,9.828c1.38-6.953,2.784-11.594,2.8-11.643a2.854,2.854,0,0,0-1.272-3.34,3.2,3.2,0,0,0-3.551.41c-4.811,4.4-8.362,13.784-8.44,14-.072-.2-4.015-10.04-8.13-14a2.853,2.853,0,0,0-3.506-.43,2.938,2.938,0,0,0-1.256,3.32c.015.052,1.482,5.115,2.849,12.639A36.236,36.236,0,0,0,14.426,82.526a2.912,2.912,0,0,0-4.172,3.8,133.913,133.913,0,0,1,5.63,12.306A32.91,32.91,0,0,0,6.869,92.7a2.912,2.912,0,0,0-3.416,4.493,129.625,129.625,0,0,1,8.174,11.885,31.226,31.226,0,0,0-8.16-2.908,2.912,2.912,0,0,0-2.407,5.1,138.868,138.868,0,0,1,10.139,9.58c.69.714,1.378,1.443,2.06,2.178H7.394a1.024,1.024,0,0,0,0,2.047h8.19s1.1.038,1.047-.986c-.046-.843-2.709-3.366-3.959-4.661a140.51,140.51,0,0,0-10.309-9.737.864.864,0,0,1,.714-1.515,32.211,32.211,0,0,1,10.694,4.458c2.323,3.979,4.406,7.962,6.216,11.885a1.024,1.024,0,0,0,.93.595h3.108a1.024,1.024,0,0,0,1.016-1.152c-2.385-18.873-12.88-38.414-12.982-38.6A.864.864,0,0,1,13.3,84.234a36.027,36.027,0,0,1,12.13,14.615,126.918,126.918,0,0,1,1.326,24.915c-.009.091-.084,1.271,1.005,1.3l16.871.011a1.024,1.024,0,0,0,1.008-.846,129.642,129.642,0,0,1,5.816-21.193,34.532,34.532,0,0,1,11.41-8.492.864.864,0,0,1,1.014,1.333S52.529,110.3,47.3,123.673a1.024,1.024,0,0,0,.95,1.4H59.081a1.024,1.024,0,0,0,0-2.047H55.673c.682-.734,1.37-1.463,2.06-2.178,5.648-5.852,10.1-9.544,10.138-9.58A2.909,2.909,0,0,0,68.653,107.785Zm-51.077-4.606c.023.025.047.048.072.07a102.316,102.316,0,0,1,5.2,19.82H21.57a146.712,146.712,0,0,0-8.457-15.482A139.371,139.371,0,0,0,5.056,95.917.864.864,0,0,1,6.07,94.584,34.658,34.658,0,0,1,17.576,103.179ZM26.7,93.871c-1.441-8.207-3.056-13.765-3.072-13.82a.886.886,0,0,1,.368-1,.778.778,0,0,1,.968.123,35.235,35.235,0,0,1,7.452,12.67c.366,1,.717,2.049,1.047,3.126-3.572,11.337-4.128,25.58-4.168,28.062l-.455,0A136.552,136.552,0,0,0,26.7,93.871Zm4.643,29.16a116.073,116.073,0,0,1,1.516-16.422,77.084,77.084,0,0,1,3.844-14.771A35.056,35.056,0,0,1,44.431,79.2a.884.884,0,0,1,1.054-.122.843.843,0,0,1,.378.993,140.975,140.975,0,0,0-3.226,13.808,132.878,132.878,0,0,0-2.34,29.149Zm12.428,0H42.347a125.985,125.985,0,0,1,1.68-25.183c.029-.038,5.624-10.554,11.608-13.651a.916.916,0,0,1,1.058.082.864.864,0,0,1,.181,1.046C56.847,85.375,48.116,99.544,43.773,123.031Zm22.795-13.336a138.853,138.853,0,0,0-10.308,9.736c-1.134,1.175-2.265,2.385-3.366,3.6H49.785a96.849,96.849,0,0,1,5.284-10.338h0a32.3,32.3,0,0,1,10.785-4.514.864.864,0,0,1,.713,1.516Z" transform="translate(0 0)"/>
    </g>
  </g>
</svg>
