<svg xmlns="http://www.w3.org/2000/svg" width="90.914" height="90.914" viewBox="0 0 90.914 90.914">
  <g id="Grupo_1114849" data-name="Grupo 1114849" transform="translate(6588.892 7393.516)">
    <g id="Grupo_1113575" data-name="Grupo 1113575" transform="translate(-6588.892 -7393.516)">
      <path id="Trazado_874924" data-name="Trazado 874924" d="M45.457,0A45.457,45.457,0,0,1,90.914,45.457h0A45.457,45.457,0,0,1,0,45.457H0A45.457,45.457,0,0,1,45.457,0Z" transform="translate(0 0)" fill="#f5c87f" opacity="0.859"/>
      <rect id="Rectángulo_400907" data-name="Rectángulo 400907" width="90.914" height="90.914" rx="45.457" transform="translate(0 0)" fill="none"/>
    </g>
    <g id="Grupo_1113744" data-name="Grupo 1113744" transform="translate(-6571 -7378.059)">
      <path id="Trazado_901178" data-name="Trazado 901178" d="M10.39,15.731A13.114,13.114,0,0,1,6.74,1.561a.887.887,0,0,1,1.58-.14,30.04,30.04,0,0,0,9.46,10.19c.01-.01.01,0,.01,0Z" fill="#f5f5f5"/>
      <path id="Trazado_901179" data-name="Trazado 901179" d="M17.78,11.611A30.04,30.04,0,0,1,8.32,1.421a.887.887,0,0,0-1.58.14,14.625,14.625,0,0,0-.407,1.478,28.652,28.652,0,0,0,8.447,8.572c.01-.01.01,0,.01,0L9.355,14.637c.318.366.659.732,1.035,1.094l7.4-4.12S17.79,11.6,17.78,11.611Z" fill="#cfd8dc"/>
      <path id="Trazado_901180" data-name="Trazado 901180" d="M37.6,15.741a13.121,13.121,0,0,0,3.66-14.18.887.887,0,0,0-1.58-.14,30.04,30.04,0,0,1-9.46,10.19h-.01Z" fill="#f5f5f5"/>
      <path id="Trazado_901181" data-name="Trazado 901181" d="M41.26,1.561a.887.887,0,0,0-1.58-.14c-.268.462-.62,1.022-1.013,1.618a12.873,12.873,0,0,1-3.03,11.6l1.963,1.1a13.121,13.121,0,0,0,3.66-14.18Z" fill="#cfd8dc"/>
      <path id="Trazado_901182" data-name="Trazado 901182" d="M42.82,25.743c2.943-1.4,3.871-4.783,4.163-6.782a1.635,1.635,0,0,0-1.4-1.864,12.042,12.042,0,0,0-6.05.784H8.464a12.042,12.042,0,0,0-6.05-.784,1.635,1.635,0,0,0-1.4,1.864c.293,2,1.221,5.384,4.163,6.782Z" fill="#f5f5f5"/>
      <path id="Trazado_901183" data-name="Trazado 901183" d="M45.586,17.1a12.413,12.413,0,0,0-3.005,0h.005a1.636,1.636,0,0,1,1.4,1.865c-.293,2-1.221,5.384-4.163,6.782h3c2.943-1.4,3.871-4.783,4.163-6.782a1.635,1.635,0,0,0-1.4-1.864Z" fill="#cfd8dc"/>
      <path id="Trazado_901184" data-name="Trazado 901184" d="M42.76,31.18A14.018,14.018,0,0,0,31,45c0,.24.01.49.02.73a21.074,21.074,0,0,1-10.21,1.02,17.265,17.265,0,0,1-3.57-.92,13.227,13.227,0,0,1-3.01-1.5.029.029,0,0,1-.02-.01C5.86,39.33,2.68,28.85,6.79,20.58v-.01a17.3,17.3,0,0,1,9.5-8.49A17.639,17.639,0,0,1,22.35,11h3.3a17.391,17.391,0,0,1,15.57,9.57v.01a17.493,17.493,0,0,1,1.54,10.6Z" fill="#f5f5f5"/>
      <path id="Trazado_901185" data-name="Trazado 901185" d="M42.76,31.18a13.987,13.987,0,0,0-7.53,3.8c0-.01-.01-.02-.02-.03a14.09,14.09,0,0,0-7.97-3.69c-4.07-5.51-4.09-13.72-1.28-20.25a17.26,17.26,0,0,1,5.76,1.07,17.482,17.482,0,0,1,9.5,8.49v.01a17.493,17.493,0,0,1,1.54,10.6Z" fill="#607d8b"/>
      <circle id="Elipse_12249" data-name="Elipse 12249" cx="2" cy="2" r="2" transform="translate(17 37.001)" fill="none" stroke="#000" stroke-linecap="round" stroke-linejoin="round" stroke-width="2"/>
      <circle id="Elipse_12250" data-name="Elipse 12250" cx="2" cy="2" r="2" transform="translate(27 37.001)" fill="none" stroke="#000" stroke-linecap="round" stroke-linejoin="round" stroke-width="2"/>
      <ellipse id="Elipse_12251" data-name="Elipse 12251" cx="2" cy="3" rx="2" ry="3" transform="translate(15 20.001)" fill="#607d8b"/>
      <ellipse id="Elipse_12252" data-name="Elipse 12252" cx="2" cy="3" rx="2" ry="3" transform="translate(29 20.001)" fill="#607d8b"/>
      <path id="Trazado_901186" data-name="Trazado 901186" d="M31,45c0,.24.01.49.02.73a21.1,21.1,0,0,1-10.21,1.02,15.73,15.73,0,0,1-6.42-2.37h-.02C12.28,42.96,11,41.07,11,39c0-4.42,5.82-8,13-8,4.78,0,8.95,1.59,11.21,3.95.01.01.02.02.02.03A13.937,13.937,0,0,0,31,45Z" fill="#e91e63"/>
      <path id="Trazado_901187" data-name="Trazado 901187" d="M59,45a14,14,0,0,1-27.98.75v-.02c-.01-.24-.02-.49-.02-.73a14,14,0,0,1,28,0Z" fill="#f5f5f5"/>
      <path id="Trazado_901188" data-name="Trazado 901188" d="M45,31a14.021,14.021,0,0,0-1.5.083,14,14,0,0,1,0,27.834A14,14,0,1,0,45,31Z" fill="#cfd8dc"/>
      <path id="Trazado_901189" data-name="Trazado 901189" d="M52.12,47.88a3,3,0,0,1,0,4.24,2.994,2.994,0,0,1-4.24,0L45,49.24l-2.88,2.88a3,3,0,0,1-4.24,0,2.994,2.994,0,0,1,0-4.24L40.76,45l-2.88-2.88a3,3,0,0,1,4.24-4.24L45,40.76l2.88-2.88a3,3,0,0,1,4.24,4.24L49.24,45Z" fill="#f44335"/>
      <path id="Trazado_901190" data-name="Trazado 901190" d="M49.24,45l2.88-2.88a2.992,2.992,0,0,0-3.62-4.7,2.946,2.946,0,0,1,.62.463,3,3,0,0,1,0,4.24L46.24,45l2.88,2.88a3,3,0,0,1,0,4.24,2.883,2.883,0,0,1-.62.467,2.994,2.994,0,0,0,3.62-4.707Z" fill="#c81e1e"/>
      <path id="Trazado_901191" data-name="Trazado 901191" d="M9.72,28c0,2.83-1.64,5.21-3.84,5.83a17.745,17.745,0,0,1,.2-11.6A5.933,5.933,0,0,1,9.72,28Z" fill="#607d8b"/>
      <path id="Trazado_901192" data-name="Trazado 901192" d="M19,36a3,3,0,1,0,3,3A3,3,0,0,0,19,36Zm0,4a1,1,0,1,1,1-1A1,1,0,0,1,19,40Z"/>
      <path id="Trazado_901193" data-name="Trazado 901193" d="M17,27c1.683,0,3-1.757,3-4s-1.317-4-3-4-3,1.757-3,4S15.317,27,17,27Zm0-6c.408,0,1,.779,1,2s-.592,2-1,2-1-.779-1-2S16.592,21,17,21Z"/>
      <path id="Trazado_901194" data-name="Trazado 901194" d="M31,19c-1.683,0-3,1.757-3,4s1.317,4,3,4,3-1.757,3-4S32.683,19,31,19Zm0,6c-.408,0-1-.779-1-2s.592-2,1-2,1,.779,1,2S31.408,25,31,25Z"/>
      <path id="Trazado_901195" data-name="Trazado 901195" d="M45,30c-.369,0-.73.029-1.092.055a18.811,18.811,0,0,0-.026-3.79c2.861-1.76,3.8-5.179,4.091-7.165a2.647,2.647,0,0,0-.519-1.991,2.59,2.59,0,0,0-1.745-1,13.167,13.167,0,0,0-5.855.6c-.276-.335-.556-.666-.854-.98A13.967,13.967,0,0,0,42.206,1.24,1.822,1.822,0,0,0,40.633.009a1.879,1.879,0,0,0-1.818.909,29.208,29.208,0,0,1-8.794,9.617A18.509,18.509,0,0,0,25.65,10h-3.3a18.492,18.492,0,0,0-4.371.54A29.179,29.179,0,0,1,9.185.918,1.877,1.877,0,0,0,7.366.01,1.823,1.823,0,0,0,5.793,1.242,13.962,13.962,0,0,0,9,15.721c-.3.314-.577.646-.852.981a13.172,13.172,0,0,0-5.857-.6,2.59,2.59,0,0,0-1.743,1,2.654,2.654,0,0,0-.518,2c.29,1.982,1.23,5.4,4.1,7.163A19.719,19.719,0,0,0,13.7,45.179l.015.008a17.091,17.091,0,0,0,5.911,2.376l.031.008.024,0A21.592,21.592,0,0,0,30.165,47.1,14.992,14.992,0,1,0,45,30Zm.46-11.911a.636.636,0,0,1,.534.727,8.841,8.841,0,0,1-2.474,5.253,17.108,17.108,0,0,0-2.406-5.664,11.274,11.274,0,0,1,4.346-.316Zm-3.6,12.248a14.946,14.946,0,0,0-6.616,3.294,15.456,15.456,0,0,0-7.414-3.289c-3.262-4.7-3.726-11.92-1.2-18.3A16.175,16.175,0,0,1,41.858,30.336Zm-10.07,7.572A3,3,0,1,0,29,42a2.961,2.961,0,0,0,1.393-.359A14.928,14.928,0,0,0,30,45v.028a19.55,19.55,0,0,1-9.941.583,14.437,14.437,0,0,1-5.225-2.126C13.006,42.212,12,40.622,12,39c0-3.794,5.5-7,12-7,3.9,0,7.547,1.148,9.816,3.039A15.063,15.063,0,0,0,31.788,37.909ZM30,39a1,1,0,1,1-1-1A1,1,0,0,1,30,39ZM40.4,2.163a12.028,12.028,0,0,1-2.859,12.194,18.3,18.3,0,0,0-5.1-3.056A32.131,32.131,0,0,0,40.4,2.163ZM7.6,2.163a32.107,32.107,0,0,0,7.965,9.14,18.16,18.16,0,0,0-5.109,3.051A12.019,12.019,0,0,1,7.6,2.163ZM2.007,18.821a.635.635,0,0,1,.531-.732,11.264,11.264,0,0,1,4.352.317,17.1,17.1,0,0,0-2.4,5.675,8.821,8.821,0,0,1-2.486-5.26ZM8.72,28a5.262,5.262,0,0,1-2.2,4.436,16.707,16.707,0,0,1,.147-8.776A5.3,5.3,0,0,1,8.72,28ZM7.139,34.4A7.087,7.087,0,0,0,10.72,28a7.22,7.22,0,0,0-3.343-6.267,16.127,16.127,0,0,1,9.256-8.714A19.832,19.832,0,0,1,24.5,12c-2.286,6.273-1.964,13.021.805,18.053C24.87,30.028,24.44,30,24,30c-6.51,0-14.38,3.273-13.971,9.4a17.881,17.881,0,0,1-2.89-4.995ZM45,58A13,13,0,1,1,58,45,13.015,13.015,0,0,1,45,58Z"/>
      <path id="Trazado_901196" data-name="Trazado 901196" d="M52.827,37.173a4,4,0,0,0-5.654,0L45,39.346l-2.173-2.173a4,4,0,0,0-5.654,5.654L39.346,45l-2.167,2.167a4,4,0,1,0,5.648,5.66L45,50.654l2.167,2.167a3.993,3.993,0,0,0,5.66.006,4,4,0,0,0,0-5.654L50.654,45l2.173-2.173A4,4,0,0,0,52.827,37.173Zm-1.414,4.24-2.88,2.88a1,1,0,0,0,0,1.414l2.88,2.88a2,2,0,0,1-.006,2.832,2.039,2.039,0,0,1-2.82-.006l-2.88-2.88a1,1,0,0,0-1.414,0l-2.88,2.88a2,2,0,1,1-2.826-2.826l2.88-2.88a1,1,0,0,0,0-1.414l-2.88-2.88a2,2,0,0,1,2.826-2.826l2.88,2.88a1,1,0,0,0,1.414,0l2.88-2.88a2,2,0,1,1,2.826,2.826Z"/>
    </g>
  </g>
</svg>
