<svg xmlns="http://www.w3.org/2000/svg" width="90.914" height="90.914" viewBox="0 0 90.914 90.914">
  <g id="Grupo_1114851" data-name="Grupo 1114851" transform="translate(5955.892 7393.516)">
    <g id="Grupo_1113576" data-name="Grupo 1113576" transform="translate(-5955.892 -7393.516)">
      <path id="Trazado_874924" data-name="Trazado 874924" d="M45.457,0A45.457,45.457,0,0,1,90.914,45.457h0A45.457,45.457,0,0,1,0,45.457H0A45.457,45.457,0,0,1,45.457,0Z" transform="translate(0 0)" fill="#f5c87f" opacity="0.859"/>
      <rect id="Rectángulo_400907" data-name="Rectángulo 400907" width="90.914" height="90.914" rx="45.457" transform="translate(0 0)" fill="none"/>
    </g>
    <g id="Grupo_1113758" data-name="Grupo 1113758" transform="translate(-5941 -7379)">
      <g id="Grupo_1113757" data-name="Grupo 1113757">
        <g id="Grupo_1113746" data-name="Grupo 1113746">
          <path id="Trazado_901228" data-name="Trazado 901228" d="M43,1V3H39V1H35V3H31V1H27V3H23V1H19V3H15V1H11V3H7V1H3V7l2,4H45l2-4V1Z" fill="#b27946"/>
        </g>
        <g id="Grupo_1113747" data-name="Grupo 1113747">
          <path id="Trazado_901229" data-name="Trazado 901229" d="M45.01,17.89H45V11H5V33.62A23.974,23.974,0,0,1,1.83,45.54,6.408,6.408,0,0,0,1,48.68,6.316,6.316,0,0,0,7.32,55H45V26.93a7.933,7.933,0,0,1-1-3.87c0-.42.02-.84,1.01-5.17Z" fill="#d3a06c"/>
        </g>
        <g id="Grupo_1113748" data-name="Grupo 1113748">
          <path id="Trazado_901230" data-name="Trazado 901230" d="M25,45h7.48a8.7,8.7,0,0,0-2.62,3.25A16.03,16.03,0,0,1,14.42,45Z" fill="#dfb28b"/>
        </g>
        <g id="Grupo_1113749" data-name="Grupo 1113749">
          <path id="Trazado_901231" data-name="Trazado 901231" d="M25,45H14.42A16,16,0,1,1,41,33H39a5.967,5.967,0,0,0,1.5,3.97,16.013,16.013,0,0,1-3.08,6.12v.01A9.8,9.8,0,0,0,32.48,45Z" fill="#e6e9ed"/>
        </g>
        <g id="Grupo_1113750" data-name="Grupo 1113750">
          <path id="Trazado_901232" data-name="Trazado 901232" d="M44.58,50.64c.51.17,1.03.34,1.57.49a20.987,20.987,0,0,0,4.5-6.88C59.86,46.66,61,51.98,61,55c0,2-3,6-15,6-9.09,0-14.16-2.87-16.09-6A5.7,5.7,0,0,1,29,52a8.9,8.9,0,0,1,.86-3.75A8.7,8.7,0,0,1,32.48,45a9.8,9.8,0,0,1,4.94-1.9A11.45,11.45,0,0,1,39,43a54.605,54.605,0,0,1,8.51.6A19.108,19.108,0,0,1,44.58,50.64Z" fill="#cf9e76"/>
        </g>
        <g id="Grupo_1113751" data-name="Grupo 1113751">
          <path id="Trazado_901233" data-name="Trazado 901233" d="M44.58,50.64a19.108,19.108,0,0,0,2.93-7.04,46.449,46.449,0,0,0,.86-4.6c.1-.69.19-1.38.26-2.08v-.01c.23-2.15.35-4.34.37-6.43v-.01a7.392,7.392,0,0,0,1.87.51L51,31l.13-.02A7.392,7.392,0,0,0,53,30.47v.01a46.791,46.791,0,0,1-.48,6.76,29.365,29.365,0,0,1-1.87,7.01,20.987,20.987,0,0,1-4.5,6.88C45.61,50.98,45.09,50.81,44.58,50.64Z" fill="#dfb28b"/>
        </g>
        <g id="Grupo_1113752" data-name="Grupo 1113752">
          <path id="Trazado_901234" data-name="Trazado 901234" d="M25,35a6.213,6.213,0,0,1-5-6.1,8.648,8.648,0,0,1,4.2-7.42L25,21l.8.48A8.661,8.661,0,0,1,30,28.9,6.208,6.208,0,0,1,25,35Z" fill="#b4dd7f"/>
        </g>
        <g id="Grupo_1113753" data-name="Grupo 1113753">
          <path id="Trazado_901235" data-name="Trazado 901235" d="M25,41H21a3.995,3.995,0,0,1-4-4h4a3.995,3.995,0,0,1,4,4Z" fill="#a0d468"/>
        </g>
        <g id="Grupo_1113754" data-name="Grupo 1113754">
          <path id="Trazado_901236" data-name="Trazado 901236" d="M29,37h4a3.995,3.995,0,0,1-4,4H25a3.995,3.995,0,0,1,4-4Z" fill="#a0d468"/>
        </g>
        <g id="Grupo_1113755" data-name="Grupo 1113755">
          <path id="Trazado_901237" data-name="Trazado 901237" d="M48.37,39H45a5.944,5.944,0,0,1-4.24-1.76c-.09-.09-.17-.18-.26-.27A5.967,5.967,0,0,1,39,33h4a5.761,5.761,0,0,1,2,.35,6.029,6.029,0,0,1,3.63,3.56v.01c-.07.7-.16,1.39-.26,2.08Z" fill="#a0d468"/>
        </g>
        <g id="Grupo_1113756" data-name="Grupo 1113756">
          <path id="Trazado_901238" data-name="Trazado 901238" d="M44,23.06c0-.42.02-.84,1.01-5.17a13.553,13.553,0,0,1,.87-1.8A13.816,13.816,0,0,1,51,11a13.913,13.913,0,0,1,7,12.06,7.951,7.951,0,0,1-1.96,5.24A7.719,7.719,0,0,1,53,30.47a7.392,7.392,0,0,1-1.87.51L51,31l-.13-.02A7.392,7.392,0,0,1,49,30.47a7.992,7.992,0,0,1-5-7.41Z" fill="#b4dd7f"/>
        </g>
      </g>
      <path id="Trazado_901239" data-name="Trazado 901239" d="M51.958,43.6a32.066,32.066,0,0,0,1.469-5.818A7.116,7.116,0,0,1,58,36h1a1,1,0,1,1-1,1H56a3,3,0,1,0,3-3H58a8.869,8.869,0,0,0-4.234,1.113q.183-1.916.219-4A9.045,9.045,0,0,0,59,23.063a14.925,14.925,0,0,0-7.5-12.931L51,9.849l-.5.283A14.848,14.848,0,0,0,46,14.113V11.237l2-4V0H42V2H40V0H34V2H32V0H26V2H24V0H18V2H16V0H10V2H8V0H2V7.236l2,4v22.38A23.087,23.087,0,0,1,.965,45.046,7.321,7.321,0,0,0,7.321,56h22.04c2.331,3.306,7.728,6,16.638,6,12.63,0,16-4.4,16-7,0-3.856-1.791-8.881-10.041-11.4Zm-5.23,5.38c2.028-4.279,3.07-11.137,3.244-17.15.249.058.5.108.757.144L51,32.01l.273-.038c.237-.034.47-.081.7-.134C51.832,37.022,50.956,43.753,46.728,48.977ZM29.135,47.412A14.863,14.863,0,0,1,17.549,46h12.5A9.649,9.649,0,0,0,29.135,47.412ZM32.149,44H26V42h3a5.006,5.006,0,0,0,5-5V36H29a4.948,4.948,0,0,0-3,1.026V35.765A7.237,7.237,0,0,0,31,28.9a9.7,9.7,0,0,0-4.688-8.28L25,19.834l-1.312.787A9.7,9.7,0,0,0,19,28.9a7.237,7.237,0,0,0,5,6.863v1.261A4.954,4.954,0,0,0,21,36H16v1a5.006,5.006,0,0,0,5,5h3v2H14.836A14.985,14.985,0,1,1,39.949,32H38v1a6.958,6.958,0,0,0,1.394,4.174,14.819,14.819,0,0,1-2.542,5A11,11,0,0,0,32.149,44ZM25.105,25.553,24,27.764v5.848a5.229,5.229,0,0,1-3-4.71,7.694,7.694,0,0,1,3.717-6.565L25,22.166l.283.17A7.7,7.7,0,0,1,29,28.9a5.229,5.229,0,0,1-3,4.71V28.236l.894-1.789ZM26.171,40A3.006,3.006,0,0,1,29,38h2.829A3.006,3.006,0,0,1,29,40Zm-2.342,0H21a3.006,3.006,0,0,1-2.829-2H21A3.006,3.006,0,0,1,23.829,40ZM46,29.741a9.008,9.008,0,0,0,1.986,1.36c-.017.972-.054,1.936-.113,2.887A7.091,7.091,0,0,0,46,32.688V29.741Zm1.6,7.337c-.035.309-.069.618-.108.922H45a5.008,5.008,0,0,1-4.9-4H43a5.014,5.014,0,0,1,4.6,3.078ZM41,38.734A6.957,6.957,0,0,0,45,40h2.2c-.142.861-.3,1.693-.474,2.487a56.777,56.777,0,0,0-7.32-.48A16.766,16.766,0,0,0,41,38.734ZM51,12.167a12.925,12.925,0,0,1,6,10.9,7.038,7.038,0,0,1-5,6.7V24.5l3.6-2.7-1.2-1.6L52,22V16H50v6l-2.4-1.8-1.2,1.6L50,24.5v5.262a7.037,7.037,0,0,1-5-6.7,12.924,12.924,0,0,1,6-10.9ZM5.618,10l-1-2H45.382l-1,2ZM6,2V4h6V2h2V4h6V2h2V4h6V2h2V4h6V2h2V4h6V2h2V6H4V2ZM7.321,54A5.322,5.322,0,0,1,2.7,46.038,25.077,25.077,0,0,0,6,33.616V12H44v5.73a14.845,14.845,0,0,0-1,5.333,8.9,8.9,0,0,0,1,4.086v4.93A6.777,6.777,0,0,0,43,32H41.949A17.027,17.027,0,1,0,28.291,49.669,9.889,9.889,0,0,0,28,52a6.411,6.411,0,0,0,.336,2ZM46,60c-11.739,0-16-4.784-16-8s2.4-8,9-8a56,56,0,0,1,7.245.439A18.619,18.619,0,0,1,44.2,49.447l-.619-.216c-4.322-1.52-8.055-2.834-11.454,3.283l1.748.971c2.58-4.643,4.74-3.88,9.042-2.367A25.092,25.092,0,0,0,54.09,53L53.909,51A18.636,18.636,0,0,1,48,50.582a21.825,21.825,0,0,0,3.213-5.127C57.04,47.186,60,50.392,60,55,60,56.3,57.428,60,46,60Z"/>
    </g>
  </g>
</svg>
