<svg xmlns="http://www.w3.org/2000/svg" width="90.914" height="90.914" viewBox="0 0 90.914 90.914">
  <g id="Grupo_1114852" data-name="Grupo 1114852" transform="translate(5638.11 7393.516)">
    <g id="Grupo_1113578" data-name="Grupo 1113578" transform="translate(-5638.11 -7393.516)">
      <path id="Trazado_874924" data-name="Trazado 874924" d="M45.457,0A45.457,45.457,0,0,1,90.914,45.457h0A45.457,45.457,0,0,1,0,45.457H0A45.457,45.457,0,0,1,45.457,0Z" transform="translate(0 0)" fill="#f5c87f" opacity="0.859"/>
      <rect id="Rectángulo_400907" data-name="Rectángulo 400907" width="90.914" height="90.914" rx="45.457" transform="translate(0 0)" fill="none"/>
    </g>
    <g id="Page-1" transform="translate(-5622.653 -7377.998)">
      <g id="_019---Plant" data-name="019---Plant" transform="translate(0 -1)">
        <g id="Icons" transform="translate(1 2)">
          <path id="Shape" d="M58,43v2H0V43a2,2,0,0,1,2-2H56A2,2,0,0,1,58,43Z" fill="sienna"/>
          <path id="Shape-2" data-name="Shape" d="M56,41H53a2,2,0,0,1,2,2v2h3V43A2,2,0,0,0,56,41Z" fill="#783e22"/>
          <path id="Shape-3" data-name="Shape" d="M6,37H52a2,2,0,0,1,2,2v2H4V39A2,2,0,0,1,6,37Z" fill="#91562d"/>
          <path id="Shape-4" data-name="Shape" d="M52,37H49a2,2,0,0,1,2,2v2h3V39A2,2,0,0,0,52,37Z" fill="#6d4122"/>
          <path id="Shape-5" data-name="Shape" d="M21.65,5.31c2.92,4.69.2,11.66.2,11.66s-7.46-.62-10.39-5.31S11.27,0,11.27,0s7.46.63,10.38,5.31Z" fill="#a4c400"/>
          <path id="Shape-6" data-name="Shape" d="M39.25,7.59C34.58,10.54,34,18,34,18s7,2.68,11.66-.27S50.91,7.32,50.91,7.32s-6.99-2.68-11.66.27Z" fill="#a4c400"/>
          <path id="Shape-7" data-name="Shape" d="M43.23,6.29a20.07,20.07,0,0,1,4.68,1s-.58,7.46-5.25,10.41a9.19,9.19,0,0,1-4,1.31,11.08,11.08,0,0,0,7-1.31c4.67-3,5.25-10.41,5.25-10.41a18.85,18.85,0,0,0-7.68-1Z" fill="#90ac00"/>
          <path id="Shape-8" data-name="Shape" d="M30,37v-.12q-.24-3.14-.24-6.33V27.36c0-1.07.09-2.14.16-3.15v-.06a2,2,0,0,0-3.95-.6c-.27,1.14-.49,2.21-.7,3.31s-.39,2.2-.56,3.31q-.51,3.31-.77,6.71A.49.49,0,0,1,24,37" fill="#60a917"/>
          <path id="Shape-9" data-name="Shape" d="M34,55s-5-1-7-3a10.82,10.82,0,0,1-3-7h6.6a12.7,12.7,0,0,0,.15,4.68A9.16,9.16,0,0,0,34,55Z" fill="#ffeb3a"/>
          <path id="Shape-10" data-name="Shape" d="M24,45s0,6-4,8-6-1-9,3c0,0-1-4,4-6s4-5,4-5Z" fill="#ffeb3a"/>
          <path id="Shape-11" data-name="Shape" d="M41,51a15.12,15.12,0,0,0-10.25-1.32A12.7,12.7,0,0,1,30.6,45H35S40,46,41,51Z" fill="#ffdc00"/>
        </g>
        <g id="Icons_copy">
          <path id="Shape-12" data-name="Shape" d="M57,42H56V41a3,3,0,0,0-3-3H32c-.12-1.8-.19-3.63-.19-5.46V29.39c0-1.15.09-2.11.15-3.06a.43.43,0,0,0,0-.11,3.05,3.05,0,0,0-.57-2,13,13,0,0,1,3.68-3.14,20.2,20.2,0,0,0,6.13,1,11.09,11.09,0,0,0,6-1.54c5-3.18,5.69-10.86,5.72-11.18a1,1,0,0,0-.64-1c-.31-.12-7.51-2.83-12.55.35-4.33,2.74-5.42,8.79-5.66,10.64a15.2,15.2,0,0,0-4.32,3.72h-.08a2.52,2.52,0,0,0-.72-.07,12,12,0,0,0-4.85-4.6c.66-2.14,1.94-7.57-.59-11.62C20.35,1.73,12.68,1,12.35,1a1,1,0,0,0-1,.64c-.12.3-2.87,7.49.28,12.55S22.13,19.91,22.72,20A10.29,10.29,0,0,1,27,23.72a3,3,0,0,0-1,1.6c-.25,1-.47,2.07-.71,3.36-.21,1.11-.4,2.22-.57,3.34q-.45,3-.7,6H7a3,3,0,0,0-3,3v1H3a3,3,0,0,0-3,3v2a1,1,0,0,0,1,1H19c-.14.77-.8,2-3.41,3.07a10,10,0,0,0-.93.43,5.44,5.44,0,0,0-6.25-.33,3,3,0,0,1-2.07.69.79.79,0,0,1-.5-.33,1,1,0,0,0-1.77.92,2.79,2.79,0,0,0,1.72,1.34,3.08,3.08,0,0,0,.8.1,5.32,5.32,0,0,0,2.92-1.06,3.21,3.21,0,0,1,3.34-.08,6,6,0,0,0-2,4.31C7.06,57.45,7,59.89,7,60a1,1,0,1,0,2,0c0-.32.55-.86,2.1-1,.22,1,.79,2,1.9,2a1.009,1.009,0,0,0,.18-2,2.51,2.51,0,0,1-.16-.69c1.31-1.62,2.25-1.61,3.76-1.57a11.72,11.72,0,0,0,2.44-.12,3.91,3.91,0,0,0,1.07,2.07A2.2,2.2,0,0,1,21,60a1,1,0,0,0,2,0,4.11,4.11,0,0,0-1.29-2.71A1.9,1.9,0,0,1,21.13,56l.32-.15a7.74,7.74,0,0,0,3.66-4.32,11.08,11.08,0,0,0,2.18,3.14c1.64,1.63,4.9,2.63,6.54,3a2.56,2.56,0,0,1-1.28,1.36A1.057,1.057,0,0,0,33,61a.93.93,0,0,0,.45-.11,4.52,4.52,0,0,0,2.45-3.12,2.75,2.75,0,0,1,2.39.94l2,2a1,1,0,0,0,1.42-1.42l-2-2a4.61,4.61,0,0,0-4.5-1.41A8.41,8.41,0,0,1,33,52.46a14.32,14.32,0,0,1,8.47,1.4A2.75,2.75,0,0,1,43,56a3.64,3.64,0,0,0,4,4,1,1,0,0,0,0-2c-1.44,0-2-.56-2-2a4.07,4.07,0,0,0-1.08-2.73,4.29,4.29,0,0,1,3.53.56c3.5,2.34,5,1.14,5.26.88a1,1,0,1,0-1.33-1.5c-.11,0-.91.24-2.83-1a6.3,6.3,0,0,0-5.91-.59A8.19,8.19,0,0,0,40.15,48H59a1,1,0,0,0,1-1V45a3,3,0,0,0-3-3ZM40.79,10.43c3.34-2.11,8.19-1,10-.42-.29,1.89-1.35,6.76-4.69,8.88-3,1.87-7.08,1.19-9.27.63a31.62,31.62,0,0,1,9-6.39,1,1,0,0,0-.78-1.84A31.37,31.37,0,0,0,36.59,17c.61-2.21,1.83-5.07,4.2-6.57Zm-27.48,2.7c-2.09-3.36-.92-8.2-.36-10,1.89.3,6.76,1.38,8.85,4.74,1.48,2.38,1.33,5.49.91,7.76a31.25,31.25,0,0,0-5.14-8.85,1,1,0,1,0-1.5,1.32,31.67,31.67,0,0,1,5.31,9.67c-2.21-.47-6.21-1.66-8.07-4.64ZM26.76,32.32c.17-1.1.36-2.19.55-3.27.24-1.26.45-2.26.69-3.27A1.011,1.011,0,0,1,30,26a.52.52,0,0,0,0,.11c-.07,1-.13,2.13-.16,3.18s-.06,2.22,0,3.23c0,1.84.07,3.68.19,5.45H26.09C26.25,36.12,26.47,34.21,26.76,32.32ZM6,41a1,1,0,0,1,1-1H53a1,1,0,0,1,1,1v1H6ZM20.55,54.11a5.66,5.66,0,0,1-.69.29,7.37,7.37,0,0,1-3,.36,6.21,6.21,0,0,0-3.52.64,4.79,4.79,0,0,1,1.77-1.82,7.78,7.78,0,0,1,1.26-.63c3.74-1.5,4.58-3.59,4.69-4.93h2.87C23.74,49.64,23.06,52.85,20.55,54.11Zm8.16-.82A9.72,9.72,0,0,1,26.1,48h4.4a11.89,11.89,0,0,0,1.55,7.12,9.7,9.7,0,0,1-3.34-1.83Zm11.54-2.13a16.36,16.36,0,0,0-7.69-.65A12.08,12.08,0,0,1,32.5,48h3.39A7.36,7.36,0,0,1,40.25,51.16ZM58,46H2V45a1,1,0,0,1,1-1H57a1,1,0,0,1,1,1Z"/>
        </g>
      </g>
    </g>
  </g>
</svg>
