<svg xmlns="http://www.w3.org/2000/svg" width="64.736" height="64.736" viewBox="0 0 64.736 64.736">
  <g id="Grupo_1113760" data-name="Grupo 1113760" transform="translate(-1.5 -1.5)">
    <g id="Color" transform="translate(2.616 2.616)">
      <path id="Trazado_901240" data-name="Trazado 901240" d="M40.252,24.626a15.624,15.624,0,1,1-4.576-11.05A15.534,15.534,0,0,1,40.252,24.626Z" transform="translate(6.626 6.626)" fill="#f45151"/>
      <path id="Trazado_901241" data-name="Trazado 901241" d="M32.929,8.465a4.478,4.478,0,0,1-4.465,4.465A4.5,4.5,0,0,1,24,8.465a4.465,4.465,0,0,1,8.929,0Z" transform="translate(25.11 0.465)" fill="#43b3ff"/>
      <path id="Trazado_901242" data-name="Trazado 901242" d="M31.929,27.465a4.5,4.5,0,1,1-1.317-3.148A4.364,4.364,0,0,1,31.929,27.465Z" transform="translate(23.878 23.878)" fill="#43b3ff"/>
      <circle id="Elipse_12256" data-name="Elipse 12256" cx="2.232" cy="2.232" r="2.232" transform="translate(51.343 22.323)" fill="#f2f2f2"/>
      <circle id="Elipse_12257" data-name="Elipse 12257" cx="2.232" cy="2.232" r="2.232" transform="translate(35.717 6.697)" fill="#ffc943"/>
      <path id="Trazado_901243" data-name="Trazado 901243" d="M32.465,30.232a2.232,2.232,0,0,1-4.465,0A2.21,2.21,0,0,1,30.232,28,2.239,2.239,0,0,1,32.465,30.232Z" transform="translate(30.039 30.039)" fill="#ffc943"/>
      <path id="Trazado_901244" data-name="Trazado 901244" d="M12.929,28.465A4.465,4.465,0,1,1,8.465,24a4.5,4.5,0,0,1,4.465,4.465Z" transform="translate(0.465 25.11)" fill="#43b3ff"/>
      <path id="Trazado_901245" data-name="Trazado 901245" d="M13.929,9.465a4.5,4.5,0,0,1-4.465,4.465A4.5,4.5,0,0,1,5,9.465,4.5,4.5,0,0,1,9.465,5a4.5,4.5,0,0,1,4.465,4.465Z" transform="translate(1.697 1.697)" fill="#43b3ff"/>
      <circle id="Elipse_12258" data-name="Elipse 12258" cx="2.232" cy="2.232" r="2.232" transform="translate(6.697 35.717)" fill="#f2f2f2"/>
      <g id="Grupo_1113759" data-name="Grupo 1113759">
        <circle id="Elipse_12259" data-name="Elipse 12259" cx="2.232" cy="2.232" r="2.232" transform="translate(22.323 51.343)" fill="#ffc943"/>
        <path id="Trazado_901246" data-name="Trazado 901246" d="M6.465,4.232A2.211,2.211,0,0,1,4.232,6.465,2.232,2.232,0,1,1,6.465,4.232Z" transform="translate(-2 -2)" fill="#ffc943"/>
      </g>
    </g>
    <g id="Outline" transform="translate(1.5 1.5)">
      <path id="Trazado_901247" data-name="Trazado 901247" d="M61.659,12.661H65.12a1.116,1.116,0,0,0,0-2.232H61.659a5.6,5.6,0,0,0-4.352-4.352V2.616a1.116,1.116,0,0,0-2.232,0V6.078a5.6,5.6,0,0,0-4.352,4.352H43.708a3.348,3.348,0,1,0,0,2.232h7.015a5.547,5.547,0,0,0,.817,1.957l-6.665,6.665a16.648,16.648,0,0,0-22.013,0L18.429,16.85a5.542,5.542,0,0,0,0-6.145L21.264,7.87a1.116,1.116,0,0,0-1.578-1.578L16.85,9.127a5.542,5.542,0,0,0-6.145,0L7.861,6.283A3.31,3.31,0,0,0,8.2,4.848,3.348,3.348,0,1,0,4.849,8.2a3.31,3.31,0,0,0,1.435-.336L9.127,10.7a5.542,5.542,0,0,0,0,6.145L6.292,19.685A1.116,1.116,0,1,0,7.87,21.264L10.7,18.429a5.542,5.542,0,0,0,6.145,0l4.433,4.433a16.549,16.549,0,0,0,.035,21.978l-6.7,6.7a5.543,5.543,0,0,0-1.957-.817V43.708a3.348,3.348,0,1,0-2.232,0v7.015a5.6,5.6,0,0,0-4.352,4.352H2.616a1.116,1.116,0,0,0,0,2.232H6.078a5.6,5.6,0,0,0,4.352,4.352V65.12a1.116,1.116,0,1,0,2.232,0V61.659a5.6,5.6,0,0,0,4.352-4.352h7.015a3.348,3.348,0,1,0,0-2.232H17.013a5.543,5.543,0,0,0-.817-1.957l6.692-6.692a16.585,16.585,0,0,0,6.243,3.513,1.116,1.116,0,1,0,.634-2.141,14.51,14.51,0,1,1,8.205,0,1.117,1.117,0,0,0,.637,2.141,16.582,16.582,0,0,0,6.241-3.512l4.459,4.459a5.543,5.543,0,0,0,0,6.146l-2.835,2.835a1.116,1.116,0,1,0,1.578,1.578l2.835-2.835a5.543,5.543,0,0,0,6.146,0l2.843,2.843a3.31,3.31,0,0,0-.336,1.435,3.348,3.348,0,1,0,3.348-3.348,3.31,3.31,0,0,0-1.435.336L58.61,57.032a5.543,5.543,0,0,0,0-6.146l2.835-2.835a1.116,1.116,0,0,0-1.578-1.578l-2.835,2.835a5.543,5.543,0,0,0-6.146,0L46.418,44.84a16.55,16.55,0,0,0,.035-21.978L53.118,16.2a5.543,5.543,0,0,0,1.957.817v7.015a3.348,3.348,0,1,0,2.232,0V17.013a5.6,5.6,0,0,0,4.352-4.352ZM11.545,39.449a1.116,1.116,0,1,1-1.116,1.116A1.117,1.117,0,0,1,11.545,39.449Zm0,20.091A3.348,3.348,0,1,1,13.883,53.8c.009.01.012.022.021.032s.022.012.032.021a3.343,3.343,0,0,1-2.391,5.686Zm15.626-4.465a1.116,1.116,0,1,1-1.116,1.116A1.117,1.117,0,0,1,27.171,55.075ZM3.732,4.848A1.116,1.116,0,1,1,4.848,5.965,1.117,1.117,0,0,1,3.732,4.848Zm7.708,11.32c-.009-.01-.012-.022-.021-.032s-.022-.012-.032-.021a3.331,3.331,0,0,1,0-4.675c.01-.009.022-.012.032-.021s.012-.022.021-.032a3.331,3.331,0,0,1,4.675,0c.009.01.012.022.021.032s.022.012.032.021a3.331,3.331,0,0,1,0,4.675c-.01.009-.022.012-.032.021s-.012.022-.021.032a3.331,3.331,0,0,1-4.675,0ZM64,62.888a1.116,1.116,0,1,1-1.116-1.116A1.118,1.118,0,0,1,64,62.888ZM56.3,51.568c.009.01.012.022.021.032s.022.012.032.021a3.331,3.331,0,0,1,0,4.675c-.01.009-.022.012-.032.021s-.012.022-.021.032a3.331,3.331,0,0,1-4.675,0c-.009-.01-.012-.022-.021-.032s-.022-.012-.032-.021a3.331,3.331,0,0,1,0-4.675c.01-.009.022-.012.032-.021s.012-.022.021-.032a3.331,3.331,0,0,1,4.675,0ZM56.191,8.2a3.348,3.348,0,1,1-2.337,5.739c-.009-.01-.012-.022-.021-.032s-.022-.012-.032-.021A3.343,3.343,0,0,1,56.191,8.2ZM40.565,12.661a1.116,1.116,0,1,1,1.116-1.116A1.118,1.118,0,0,1,40.565,12.661ZM56.191,28.287a1.116,1.116,0,1,1,1.116-1.116A1.118,1.118,0,0,1,56.191,28.287Z" transform="translate(-1.5 -1.5)"/>
      <path id="Trazado_901248" data-name="Trazado 901248" d="M26.661,22.778a1.116,1.116,0,1,0,2.232,0A12.292,12.292,0,0,0,16.616,10.5a1.116,1.116,0,1,0,0,2.232A10.056,10.056,0,0,1,26.661,22.778Z" transform="translate(15.752 9.591)"/>
      <circle id="Elipse_12260" data-name="Elipse 12260" cx="1.11" cy="1.11" r="1.11" transform="translate(31.087 46.63)"/>
    </g>
  </g>
</svg>
