<svg xmlns="http://www.w3.org/2000/svg" width="93.898" height="82.944" viewBox="0 0 93.898 82.944">
  <g id="Grupo_1113762" data-name="Grupo 1113762" transform="translate(-16 -47.998)">
    <path id="Trazado_901249" data-name="Trazado 901249" d="M316.17,64l-3.61,3.679C296.587,83.958,288,103.464,288,123.469h19.719l-1.41-7.7A71.743,71.743,0,0,1,312.833,70.8Z" transform="translate(-218.791 -12.871)" fill="#346e4a"/>
    <path id="Trazado_901250" data-name="Trazado 901250" d="M201.04,72l-3.209,3.582C183.633,91.433,176,110.425,176,129.9h17.528l-1.254-7.5a75.816,75.816,0,0,1,5.8-43.786Z" transform="translate(-128.701 -19.306)" fill="#346e4a"/>
    <g id="Grupo_1113761" data-name="Grupo 1113761" transform="translate(20.695 52.694)">
      <path id="Trazado_901251" data-name="Trazado 901251" d="M40,72l3.209,3.582C57.407,91.433,65.04,110.425,65.04,129.9H47.512l1.254-7.5a75.816,75.816,0,0,0-5.8-43.786Z" transform="translate(-40 -72)" fill="#51ac74"/>
      <path id="Trazado_901252" data-name="Trazado 901252" d="M104,96l5.161,11.989a75.1,75.1,0,0,1,5.794,29.412v11.808h12.52c0-17.451-5.624-33.858-15.144-44.178Z" transform="translate(-91.48 -91.305)" fill="#51ac74"/>
      <path id="Trazado_901253" data-name="Trazado 901253" d="M263.475,104l-5.161,11.636a71.031,71.031,0,0,0-5.794,28.547v11.461H240c0-16.938,5.624-32.863,15.144-42.879Z" transform="translate(-200.876 -97.74)" fill="#51ac74"/>
      <path id="Trazado_901254" data-name="Trazado 901254" d="M374.086,98.715,368,110.7a65.288,65.288,0,0,0-6.838,29.412v11.808H346.383c0-17.451,6.637-33.858,17.872-44.178Z" transform="translate(-286.448 -93.489)" fill="#51ac74"/>
    </g>
    <path id="Trazado_901255" data-name="Trazado 901255" d="M176,131.31l4.817,10.432a61.533,61.533,0,0,1,5.408,25.594v10.275H197.91c0-15.186-5.249-29.463-14.134-38.443Z" transform="translate(-128.701 -67.014)" fill="#62d18d"/>
    <path id="Trazado_901256" data-name="Trazado 901256" d="M24,147.31l4.817,10.432a61.532,61.532,0,0,1,5.408,25.594v10.275H45.91c0-15.186-5.249-29.463-14.134-38.443Z" transform="translate(-6.435 -79.884)" fill="#62d18d"/>
    <path id="Trazado_901257" data-name="Trazado 901257" d="M397.91,185.931l-4.817,8.025a38.3,38.3,0,0,0-5.408,19.688v7.9H376a37.427,37.427,0,0,1,14.134-29.572Z" transform="translate(-289.576 -110.95)" fill="#62d18d"/>
    <path id="Trazado_901258" data-name="Trazado 901258" d="M113.2,288l-9.781,14.085L100.684,288,93.7,302.085,86.6,288l-2.627,14.085L79.109,288l-4.863,14.085L69.384,288l-4.863,14.085L59.659,288,54.8,302.085,50.6,288l-5.533,14.085L38.085,288l-2.739,14.085L25.565,288v.026a101.747,101.747,0,0,1-.552,13.846C24.339,308.175,24,315.4,24,320.864h90.769c0-5.468-.339-12.69-1.014-18.993a101.747,101.747,0,0,1-.552-13.846Z" transform="translate(-6.435 -193.052)" fill="#6de89d"/>
    <path id="Trazado_901259" data-name="Trazado 901259" d="M108.876,110.218a100.582,100.582,0,0,1-.544-13.633v-.026a1.565,1.565,0,0,0-2.85-.939l-5.81,8.366V101.13a36.671,36.671,0,0,1,5.186-18.884l4.816-8.025a1.565,1.565,0,0,0-2.3-2.041l-7.343,5.708a59.382,59.382,0,0,1,3.609-8.836l6.09-11.99a1.565,1.565,0,0,0-2.454-1.861l-9.832,9.032a51.015,51.015,0,0,0-7.777,9.086,74.292,74.292,0,0,1,5.783-16.266l3.335-6.8a1.565,1.565,0,0,0-2.522-1.785l-3.609,3.679a96.856,96.856,0,0,0-11.7,14.375l3.77-8.5A1.565,1.565,0,0,0,82.16,56.31l-8.332,8.766A51.4,51.4,0,0,0,64.937,78.24,76.4,76.4,0,0,1,70.8,58.39l2.966-6.622a1.565,1.565,0,0,0-2.594-1.684l-3.208,3.582A92.668,92.668,0,0,0,56.388,69.694c-.067-.068-.133-.138-.2-.205L48.412,61.63a1.565,1.565,0,0,0-2.533,1.757L50.7,73.82a55.472,55.472,0,0,1,3.431,9.823c-.185-.536-.377-1.071-.571-1.593a54.976,54.976,0,0,0-10.86-18.258l-8.33-9.03a1.565,1.565,0,0,0-2.588,1.68l5.161,11.99a64.372,64.372,0,0,1,2.291,6.2,91.231,91.231,0,0,0-14.16-20.969l-3.208-3.582a1.565,1.565,0,0,0-2.594,1.684l2.966,6.622a77.228,77.228,0,0,1,4.966,15c-.246-.263-.494-.523-.745-.776l-7.776-7.858a1.565,1.565,0,0,0-2.533,1.757L20.961,76.95a59.84,59.84,0,0,1,5.264,24.937v2.1l-5.81-8.366a1.565,1.565,0,0,0-2.85.939v.026a100.576,100.576,0,0,1-.544,13.633C16.392,116.109,16,123.45,16,129.377a1.565,1.565,0,0,0,1.565,1.565h90.769a1.565,1.565,0,0,0,1.565-1.565c0-5.927-.392-13.268-1.023-19.159ZM101.518,80.7l1.164-.9-.506.843a39.759,39.759,0,0,0-5.62,19.544l-.771-3.965a1.565,1.565,0,0,0-2.938-.4l-4.658,9.391a37.1,37.1,0,0,1,.709-4.355l.007-.034a36.67,36.67,0,0,1,2.665-7.689,35.14,35.14,0,0,1,5.719-8.52c.3-.335.627-.676.959-1.012A33.651,33.651,0,0,1,101.518,80.7ZM99.56,66.538l3.459-3.178-2.171,4.274a63.706,63.706,0,0,0-5.135,14.083c-.254.263-.5.526-.74.787a38.249,38.249,0,0,0-6.228,9.276,39.792,39.792,0,0,0-2.9,8.382c0,.012-.005.024-.008.036q-.334,1.485-.551,3l-2.217-4.4A62.872,62.872,0,0,1,86.8,85.387c.413-1.021.856-2.035,1.32-3.016A50.545,50.545,0,0,1,99.56,66.538Zm-7.939-8.711A75.274,75.274,0,0,0,85.18,81.278c-.448.958-.878,1.944-1.279,2.936a65.331,65.331,0,0,0-3.3,10.8,1.555,1.555,0,0,0-1.972,1.213l-1.541,8.264L74.154,96a1.562,1.562,0,0,0-.22-.417,73.691,73.691,0,0,1,.964-10.1A83.743,83.743,0,0,1,91.621,57.827ZM76.1,67.232l2.1-2.208a56.679,56.679,0,0,0-2.537,6.895l-2.527,8.539a55.6,55.6,0,0,0-2.213,12.425q-.13,2.159-.141,4.329l-.718,2.079a78.321,78.321,0,0,0-2.486-9.758l-1.757-5.415A50.791,50.791,0,0,1,76.1,67.232Zm-9.379-7.238a79.122,79.122,0,0,0-4.728,16.84A45.418,45.418,0,0,0,58.6,72.158,87.686,87.686,0,0,1,66.718,59.995ZM53.536,72.507l-1.08-2.34,1.507,1.523c.533.539,1.061,1.106,1.567,1.685a40.862,40.862,0,0,1,2.785,3.576,43.3,43.3,0,0,1,4.1,7.423l.853,1.957A43.267,43.267,0,0,1,65,90.98l1.1,4.13a62.157,62.157,0,0,1,1.411,9.815L64.428,96a1.565,1.565,0,0,0-2.959,0l-2.38,6.894v-4.14A62.981,62.981,0,0,0,53.536,72.507ZM38.271,63.613l2.123,2.3A52.6,52.6,0,0,1,50.622,83.143c.2.535.4,1.085.585,1.634A70.91,70.91,0,0,1,53.88,95.1,1.557,1.557,0,0,0,51.745,96l-3.273,9.48-2.746-9.226c-.011-.977-.038-1.961-.085-2.931v-.015a75.749,75.749,0,0,0-5.828-26.116ZM26.319,60a82.158,82.158,0,0,1,16.2,33.581c.042.88.066,1.771.076,2.657l-2.312,5.886a61.818,61.818,0,0,0-3.074-12.053A52.27,52.27,0,0,0,31.3,78.518,79.11,79.11,0,0,0,26.319,60ZM23.8,75.637l-1.08-2.34,1.507,1.523A39.653,39.653,0,0,1,28.522,80a48.974,48.974,0,0,1,5.749,11.154,59.226,59.226,0,0,1,3.2,13.584l-4.424-8.919a1.565,1.565,0,0,0-2.938.4l-.779,4.008A62.622,62.622,0,0,0,23.8,75.637Zm-4.663,52.175c.061-5.516.431-11.981,1-17.261.323-3.019.517-6.034.58-9.012l6.911,9.951a1.565,1.565,0,0,0,2.822-.594l1.856-9.545,4.931,9.941a1.565,1.565,0,0,0,2.859-.123l3.873-9.857,2.9,9.731a1.565,1.565,0,0,0,2.979.064l3.383-9.8,3.383,9.8a1.565,1.565,0,0,0,2.959,0l3.383-9.8,3.383,9.8a1.565,1.565,0,0,0,2.959,0l3.383-9.8,3.383,9.8a1.565,1.565,0,0,0,3.018-.224l1.777-9.528,5.012,9.945a1.565,1.565,0,0,0,1.4.861h.005a1.565,1.565,0,0,0,1.4-.87l4.931-9.941,1.856,9.545a1.565,1.565,0,0,0,2.822.594l6.911-9.951c.063,2.978.257,5.993.58,9.012.566,5.28.936,11.746,1,17.261Z"/>
  </g>
</svg>
