<svg xmlns="http://www.w3.org/2000/svg" width="85" height="85" viewBox="0 0 85 85">
  <g id="Grupo_1114862" data-name="Grupo 1114862" transform="translate(-305.051 -2924)">
    <circle id="Elipse_12197" data-name="Elipse 12197" cx="42.5" cy="42.5" r="42.5" transform="translate(305.051 2924)" fill="#f5c87f"/>
    <g id="Grupo_1113795" data-name="Grupo 1113795" transform="translate(317.551 2870.057)">
      <g id="Grupo_1113776" data-name="Grupo 1113776" transform="translate(2.046 76.043)">
        <g id="Grupo_1113766" data-name="Grupo 1113766" transform="translate(0 0)">
          <g id="Grupo_1113764" data-name="Grupo 1113764" transform="translate(5.567)">
            <path id="Trazado_901260" data-name="Trazado 901260" d="M70.142,83a3.713,3.713,0,0,1-4.878,4.878A3.713,3.713,0,0,1,70.142,83Z" transform="translate(-64.961 -82.698)" fill="#97d729"/>
          </g>
          <g id="Grupo_1113765" data-name="Grupo 1113765">
            <path id="Trazado_901261" data-name="Trazado 901261" d="M17.758,83a3.713,3.713,0,0,0,4.878,4.878A3.713,3.713,0,0,0,17.758,83Z" transform="translate(-17.456 -82.698)" fill="#a2e62e"/>
          </g>
        </g>
        <g id="Grupo_1113769" data-name="Grupo 1113769" transform="translate(15.039 0)">
          <g id="Grupo_1113767" data-name="Grupo 1113767" transform="translate(5.567)">
            <path id="Trazado_901262" data-name="Trazado 901262" d="M198.472,83a3.713,3.713,0,0,1-4.878,4.878A3.713,3.713,0,0,1,198.472,83Z" transform="translate(-193.291 -82.698)" fill="#97d729"/>
          </g>
          <g id="Grupo_1113768" data-name="Grupo 1113768">
            <path id="Trazado_901263" data-name="Trazado 901263" d="M146.087,83a3.713,3.713,0,0,0,4.878,4.878A3.713,3.713,0,0,0,146.087,83Z" transform="translate(-145.785 -82.698)" fill="#a2e62e"/>
          </g>
        </g>
        <g id="Grupo_1113772" data-name="Grupo 1113772" transform="translate(30.077)">
          <g id="Grupo_1113770" data-name="Grupo 1113770" transform="translate(5.567 0)">
            <path id="Trazado_901264" data-name="Trazado 901264" d="M326.8,83a3.713,3.713,0,0,1-4.878,4.878A3.713,3.713,0,0,1,326.8,83Z" transform="translate(-321.62 -82.698)" fill="#97d729"/>
          </g>
          <g id="Grupo_1113771" data-name="Grupo 1113771">
            <path id="Trazado_901265" data-name="Trazado 901265" d="M274.416,83a3.713,3.713,0,0,0,4.878,4.878A3.713,3.713,0,0,0,274.416,83Z" transform="translate(-274.114 -82.698)" fill="#a2e62e"/>
          </g>
        </g>
        <g id="Grupo_1113775" data-name="Grupo 1113775" transform="translate(45.116)">
          <g id="Grupo_1113773" data-name="Grupo 1113773" transform="translate(5.567)">
            <path id="Trazado_901266" data-name="Trazado 901266" d="M455.131,83a3.713,3.713,0,0,1-4.878,4.878A3.713,3.713,0,0,1,455.131,83Z" transform="translate(-449.95 -82.698)" fill="#97d729"/>
          </g>
          <g id="Grupo_1113774" data-name="Grupo 1113774">
            <path id="Trazado_901267" data-name="Trazado 901267" d="M402.746,83a3.713,3.713,0,0,0,4.878,4.878A3.713,3.713,0,0,0,402.746,83Z" transform="translate(-402.444 -82.698)" fill="#a2e62e"/>
          </g>
        </g>
      </g>
      <g id="Grupo_1113777" data-name="Grupo 1113777" transform="translate(0.879 92.1)">
        <path id="Trazado_901268" data-name="Trazado 901268" d="M11.983,226.208a1.251,1.251,0,0,1,.962-.449,1.3,1.3,0,0,1,1,.467,6.439,6.439,0,0,0,9.861,0,1.283,1.283,0,0,1,1.973,0,6.439,6.439,0,0,0,9.86,0,1.283,1.283,0,0,1,1.973,0,6.439,6.439,0,0,0,9.86,0,1.283,1.283,0,0,1,1.973,0,6.439,6.439,0,0,0,9.861,0,1.3,1.3,0,0,1,1-.467,1.251,1.251,0,0,1,.962.449,6.481,6.481,0,0,0,4.475,2.3h.008v-8.791H7.5v8.792a6.484,6.484,0,0,0,4.483-2.3Z" transform="translate(-7.5 -219.715)" fill="#c96e59"/>
      </g>
      <g id="Grupo_1113779" data-name="Grupo 1113779" transform="translate(54.375 92.1)">
        <g id="Grupo_1113778" data-name="Grupo 1113778">
          <path id="Trazado_901269" data-name="Trazado 901269" d="M464,219.715v6.259a1.254,1.254,0,0,1,.263.235,6.481,6.481,0,0,0,4.475,2.3h.008v-8.791H464Z" transform="translate(-464 -219.715)" fill="#bb5d4c"/>
        </g>
      </g>
      <g id="Grupo_1113780" data-name="Grupo 1113780" transform="translate(0.879 85.283)">
        <path id="Trazado_901270" data-name="Trazado 901270" d="M65.742,168.484H7.5v-5.762a1.172,1.172,0,0,1,1.172-1.172h55.9a1.172,1.172,0,0,1,1.172,1.172Z" transform="translate(-7.5 -161.55)" fill="#f6a96c"/>
      </g>
      <g id="Grupo_1113781" data-name="Grupo 1113781" transform="translate(53.203 85.283)">
        <path id="Trazado_901271" data-name="Trazado 901271" d="M458.746,161.55H454a1.172,1.172,0,0,1,1.172,1.172v5.762h4.746v-5.762A1.172,1.172,0,0,0,458.746,161.55Z" transform="translate(-454 -161.55)" fill="#ea9b58"/>
      </g>
      <g id="Grupo_1113782" data-name="Grupo 1113782" transform="translate(0.879 107.215)">
        <path id="Trazado_901272" data-name="Trazado 901272" d="M7.5,348.7v8.278a1.172,1.172,0,0,0,1.172,1.172h55.9a1.172,1.172,0,0,0,1.172-1.172V348.7Z" transform="translate(-7.5 -348.7)" fill="#f6a96c"/>
      </g>
      <g id="Grupo_1113783" data-name="Grupo 1113783" transform="translate(53.203 107.215)">
        <path id="Trazado_901273" data-name="Trazado 901273" d="M455.172,348.7v8.278A1.172,1.172,0,0,1,454,358.15h4.746a1.172,1.172,0,0,0,1.172-1.172V348.7Z" transform="translate(-454 -348.7)" fill="#ea9b58"/>
      </g>
      <g id="Grupo_1113790" data-name="Grupo 1113790" transform="translate(6.032 107.215)">
        <g id="Grupo_1113784" data-name="Grupo 1113784">
          <path id="Trazado_901274" data-name="Trazado 901274" d="M51.489,348.7a3.258,3.258,0,1,0,6.476,0Z" transform="translate(-51.469 -348.7)" fill="#d88a55"/>
        </g>
        <g id="Grupo_1113785" data-name="Grupo 1113785" transform="translate(25.93)">
          <path id="Trazado_901275" data-name="Trazado 901275" d="M272.757,348.7a3.258,3.258,0,1,0,6.476,0Z" transform="translate(-272.737 -348.7)" fill="#d88a55"/>
        </g>
        <g id="Grupo_1113786" data-name="Grupo 1113786" transform="translate(16.821 3.267)">
          <circle id="Elipse_12261" data-name="Elipse 12261" cx="1.662" cy="1.662" r="1.662" fill="#d88a55"/>
        </g>
        <g id="Grupo_1113787" data-name="Grupo 1113787" transform="translate(44.612 3.267)">
          <circle id="Elipse_12262" data-name="Elipse 12262" cx="1.662" cy="1.662" r="1.662" fill="#d88a55"/>
        </g>
        <g id="Grupo_1113788" data-name="Grupo 1113788" transform="translate(6.516 6.259)">
          <path id="Trazado_901276" data-name="Trazado 901276" d="M107.07,405.3h6.512a3.257,3.257,0,0,0-6.512,0Z" transform="translate(-107.07 -402.107)" fill="#d88a55"/>
        </g>
        <g id="Grupo_1113789" data-name="Grupo 1113789" transform="translate(34.573 6.259)">
          <path id="Trazado_901277" data-name="Trazado 901277" d="M346.493,405.3h6.512a3.257,3.257,0,0,0-6.512,0Z" transform="translate(-346.493 -402.107)" fill="#d88a55"/>
        </g>
      </g>
      <g id="Grupo_1113791" data-name="Grupo 1113791" transform="translate(0.879 98.026)">
        <path id="Trazado_901278" data-name="Trazado 901278" d="M61.349,270.783a1.392,1.392,0,0,0-2.137.017,6.322,6.322,0,0,1-9.682,0,1.4,1.4,0,0,0-2.152,0,6.322,6.322,0,0,1-9.681,0,1.4,1.4,0,0,0-2.152,0,6.322,6.322,0,0,1-9.681,0,1.4,1.4,0,0,0-2.152,0,6.322,6.322,0,0,1-9.682,0,1.392,1.392,0,0,0-2.137-.017A6.323,6.323,0,0,1,7.5,273.039V279.6H65.742v-6.558A6.323,6.323,0,0,1,61.349,270.783Z" transform="translate(-7.5 -270.291)" fill="#ffcebf"/>
      </g>
      <g id="Grupo_1113793" data-name="Grupo 1113793" transform="translate(54.375 98.217)">
        <g id="Grupo_1113792" data-name="Grupo 1113792">
          <path id="Trazado_901279" data-name="Trazado 901279" d="M464.353,272.218a1.375,1.375,0,0,0-.353-.3v9.115h4.746v-6.558A6.323,6.323,0,0,1,464.353,272.218Z" transform="translate(-464 -271.917)" fill="#ffb09e"/>
        </g>
      </g>
      <g id="Grupo_1113794" data-name="Grupo 1113794" transform="translate(0 75.159)">
        <path id="Trazado_901280" data-name="Trazado 901280" d="M57.949,84.4H53.565V82.31A4.593,4.593,0,0,0,58.716,76a.879.879,0,0,0-.46-.46,4.569,4.569,0,0,0-5.062.971,4.648,4.648,0,0,0-.508.606,4.649,4.649,0,0,0-.508-.606,4.57,4.57,0,0,0-5.062-.971.879.879,0,0,0-.46.46,4.585,4.585,0,0,0,5.151,6.312V84.4H46.641a.879.879,0,1,0,0,1.758H57.949a.293.293,0,0,1,.293.293v4.883H1.758V86.455a.293.293,0,0,1,.293-.293H42.539a.879.879,0,0,0,0-1.758H38.526V82.31A4.593,4.593,0,0,0,43.678,76a.879.879,0,0,0-.46-.46,4.569,4.569,0,0,0-5.062.971,4.648,4.648,0,0,0-.508.606,4.649,4.649,0,0,0-.508-.606,4.57,4.57,0,0,0-5.062-.971.878.878,0,0,0-.46.46,4.585,4.585,0,0,0,5.151,6.312V84.4H23.488V82.31A4.593,4.593,0,0,0,28.639,76a.879.879,0,0,0-.46-.46,4.57,4.57,0,0,0-5.062.971,4.655,4.655,0,0,0-.508.605,4.649,4.649,0,0,0-.508-.606,4.57,4.57,0,0,0-5.062-.971.879.879,0,0,0-.46.46A4.584,4.584,0,0,0,21.73,82.31V84.4H8.449V82.31A4.593,4.593,0,0,0,13.6,76a.879.879,0,0,0-.46-.46,4.569,4.569,0,0,0-5.062.971,4.648,4.648,0,0,0-.508.606,4.649,4.649,0,0,0-.508-.606A4.57,4.57,0,0,0,2,75.537a.878.878,0,0,0-.46.46A4.585,4.585,0,0,0,6.692,82.31V84.4H2.051A2.053,2.053,0,0,0,0,86.455v29.038a2.053,2.053,0,0,0,2.051,2.051h3.34a.879.879,0,1,0,0-1.758H2.051a.293.293,0,0,1-.293-.293v-7.282H5.205a4.137,4.137,0,0,0,8.169,0H31.135a4.137,4.137,0,0,0,8.169,0H58.242v7.282a.293.293,0,0,1-.293.293H47.885a4.133,4.133,0,0,0-8.049,0H19.828a4.133,4.133,0,0,0-8.049,0H9.492a.879.879,0,1,0,0,1.758H57.949A2.053,2.053,0,0,0,60,115.493V86.455A2.053,2.053,0,0,0,57.949,84.4Zm-3.512-6.653a2.818,2.818,0,0,1,2.786-.72,2.834,2.834,0,0,1-3.468,3.516l-.023-.025-.025-.023A2.818,2.818,0,0,1,54.437,77.751Zm-2.781,2.786a2.834,2.834,0,0,1-3.506-3.506,2.835,2.835,0,0,1,3.506,3.506ZM39.4,77.751a2.818,2.818,0,0,1,2.786-.72,2.833,2.833,0,0,1-3.468,3.516l-.023-.025-.025-.023a2.817,2.817,0,0,1,.73-2.748Zm-2.781,2.786a2.834,2.834,0,0,1-3.506-3.506,2.835,2.835,0,0,1,3.506,3.506ZM24.36,77.751a2.818,2.818,0,0,1,2.786-.72,2.834,2.834,0,0,1-3.468,3.516l-.023-.025L23.63,80.5a2.817,2.817,0,0,1,.73-2.748Zm-2.781,2.786a2.834,2.834,0,0,1-3.506-3.506,2.834,2.834,0,0,1,3.506,3.506ZM9.321,77.751a2.818,2.818,0,0,1,2.786-.72,2.834,2.834,0,0,1-3.468,3.516l-.023-.025L8.591,80.5A2.818,2.818,0,0,1,9.321,77.751ZM6.54,80.537a2.834,2.834,0,0,1-3.506-3.506A2.835,2.835,0,0,1,6.54,80.537Zm7.083,35.249a2.374,2.374,0,0,1,4.36,0Zm28.057,0a2.374,2.374,0,0,1,4.36,0ZM9.289,109.935A2.383,2.383,0,0,1,7,108.211h4.575a2.383,2.383,0,0,1-2.287,1.724Zm25.93,0a2.383,2.383,0,0,1-2.287-1.724h4.575a2.383,2.383,0,0,1-2.287,1.724ZM58.242,99.862a5.614,5.614,0,0,1-2.93-1.834,2.128,2.128,0,0,0-1.635-.764,2.179,2.179,0,0,0-1.668.779,5.56,5.56,0,0,1-8.517,0,2.162,2.162,0,0,0-3.317,0,5.56,5.56,0,0,1-8.516,0,2.162,2.162,0,0,0-3.317,0A5.564,5.564,0,0,1,25.651,99.8a.879.879,0,1,0,.5,1.686,7.315,7.315,0,0,0,3.539-2.311.4.4,0,0,1,.629,0,7.318,7.318,0,0,0,11.2,0,.4.4,0,0,1,.629,0,7.318,7.318,0,0,0,11.2,0,.425.425,0,0,1,.324-.155.375.375,0,0,1,.288.135,7.381,7.381,0,0,0,4.278,2.505v4.791H1.758v-4.792a7.384,7.384,0,0,0,4.278-2.5.375.375,0,0,1,.288-.135.424.424,0,0,1,.324.155,7.318,7.318,0,0,0,11.2,0,.4.4,0,0,1,.629,0,7.362,7.362,0,0,0,3,2.13.879.879,0,0,0,.625-1.643,5.6,5.6,0,0,1-2.284-1.621,2.162,2.162,0,0,0-3.317,0,5.56,5.56,0,0,1-8.517,0,2.179,2.179,0,0,0-1.668-.779,2.128,2.128,0,0,0-1.635.764,5.616,5.616,0,0,1-2.93,1.832V93.1H58.242v6.767Z" transform="translate(0 -75.159)"/>
        <path id="Trazado_901281" data-name="Trazado 901281" d="M192.591,371.617a2.541,2.541,0,1,0-2.541,2.541A2.544,2.544,0,0,0,192.591,371.617Zm-3.324,0a.783.783,0,1,1,.783.783A.784.784,0,0,1,189.267,371.617Z" transform="translate(-165.535 -334.633)"/>
        <path id="Trazado_901282" data-name="Trazado 901282" d="M429.744,371.617a2.541,2.541,0,1,0-2.541,2.541A2.544,2.544,0,0,0,429.744,371.617Zm-3.324,0a.783.783,0,1,1,.783.783A.784.784,0,0,1,426.42,371.617Z" transform="translate(-374.897 -334.633)"/>
        <path id="Trazado_901283" data-name="Trazado 901283" d="M92,249.292h1.387a.879.879,0,1,0,0-1.758H92a.879.879,0,1,0,0,1.758Z" transform="translate(-80.439 -227.334)"/>
        <path id="Trazado_901284" data-name="Trazado 901284" d="M192.974,249.292h1.387a.879.879,0,1,0,0-1.758h-1.387a.879.879,0,1,0,0,1.758Z" transform="translate(-169.584 -227.334)"/>
        <path id="Trazado_901285" data-name="Trazado 901285" d="M293.951,249.292h1.387a.879.879,0,1,0,0-1.758h-1.387a.879.879,0,1,0,0,1.758Z" transform="translate(-258.728 -227.334)"/>
        <path id="Trazado_901286" data-name="Trazado 901286" d="M394.929,249.292h1.387a.879.879,0,1,0,0-1.758h-1.387a.879.879,0,1,0,0,1.758Z" transform="translate(-347.872 -227.334)"/>
        <path id="Trazado_901287" data-name="Trazado 901287" d="M41.636,313.476H39.9a.879.879,0,0,0,0,1.758h1.734a.879.879,0,0,0,0-1.758Z" transform="translate(-34.45 -285.548)"/>
        <path id="Trazado_901288" data-name="Trazado 901288" d="M142.674,313.476H140.94a.879.879,0,0,0,0,1.758h1.734a.879.879,0,0,0,0-1.758Z" transform="translate(-123.648 -285.548)"/>
        <path id="Trazado_901289" data-name="Trazado 901289" d="M241.979,315.234h1.734a.879.879,0,1,0,0-1.758h-1.734a.879.879,0,0,0,0,1.758Z" transform="translate(-212.846 -285.548)"/>
        <path id="Trazado_901290" data-name="Trazado 901290" d="M343.017,315.234h1.734a.879.879,0,0,0,0-1.758h-1.734a.879.879,0,0,0,0,1.758Z" transform="translate(-302.044 -285.548)"/>
        <path id="Trazado_901291" data-name="Trazado 901291" d="M444.055,315.234h1.734a.879.879,0,0,0,0-1.758h-1.734a.879.879,0,0,0,0,1.758Z" transform="translate(-391.241 -285.548)"/>
        <circle id="Elipse_12263" data-name="Elipse 12263" cx="0.879" cy="0.879" r="0.879" transform="translate(10.962 27.928)"/>
        <circle id="Elipse_12264" data-name="Elipse 12264" cx="0.879" cy="0.879" r="0.879" transform="translate(22.802 27.928)"/>
        <circle id="Elipse_12265" data-name="Elipse 12265" cx="0.879" cy="0.879" r="0.879" transform="translate(34.643 27.928)"/>
        <circle id="Elipse_12266" data-name="Elipse 12266" cx="0.879" cy="0.879" r="0.879" transform="translate(46.482 27.928)"/>
      </g>
    </g>
  </g>
</svg>
