<svg xmlns="http://www.w3.org/2000/svg" width="85" height="85" viewBox="0 0 85 85">
  <g id="Grupo_1114863" data-name="Grupo 1114863" transform="translate(-305.051 -3037)">
    <circle id="Elipse_12198" data-name="Elipse 12198" cx="42.5" cy="42.5" r="42.5" transform="translate(305.051 3037)" fill="#f5c87f"/>
    <g id="Grupo_1113798" data-name="Grupo 1113798" transform="translate(323.412 3053.11)">
      <path id="Trazado_901308" data-name="Trazado 901308" d="M440,8h4.672V18.9H440Zm0,0" transform="translate(-397.172 -7.221)" fill="#4472b2"/>
      <path id="Trazado_901309" data-name="Trazado 901309" d="M172.812,27.115H169.7V35.68l-2.659,2.659a1.557,1.557,0,0,1-1.1.456H165.8a1.557,1.557,0,0,1-1.557-1.557V37.1A1.558,1.558,0,0,1,164.7,36l1.88-1.88V28.672a1.557,1.557,0,0,0-1.557-1.557h-4.672a1.557,1.557,0,0,0-1.557,1.557v5.451l1.88,1.88a1.558,1.558,0,0,1,.456,1.1v.134a1.557,1.557,0,0,1-1.557,1.557h-.134a1.558,1.558,0,0,1-1.1-.456L155.68,35.68V27.115H145.557a1.557,1.557,0,0,1,0-3.115h27.254" transform="translate(-129.984 -21.664)" fill="#efbe9a"/>
      <path id="Trazado_901310" data-name="Trazado 901310" d="M15.787,250.336c0-1.29-1.743-2.336-3.893-2.336S8,249.046,8,250.336s1.743,2.336,3.893,2.336S15.787,251.626,15.787,250.336Zm0,0" transform="translate(-7.221 -223.861)" fill="#7ecb92"/>
      <path id="Trazado_901311" data-name="Trazado 901311" d="M95.787,234.336c0-1.29-1.743-2.336-3.893-2.336S88,233.046,88,234.336s1.743,2.336,3.893,2.336S95.787,235.626,95.787,234.336Zm0,0" transform="translate(-79.434 -209.418)" fill="#7ecb92"/>
      <g id="Grupo_1113797" data-name="Grupo 1113797" transform="translate(24.918 19.467)">
        <path id="Trazado_901312" data-name="Trazado 901312" d="M340.672,369.557c0-.86-1.046-1.557-2.336-1.557s-2.336.7-2.336,1.557,1.046,1.557,2.336,1.557S340.672,370.417,340.672,369.557Zm0,0" transform="translate(-328.213 -351.647)" fill="#c18e59"/>
        <path id="Trazado_901313" data-name="Trazado 901313" d="M260.672,273.557c0-.86-1.046-1.557-2.336-1.557s-2.336.7-2.336,1.557,1.046,1.557,2.336,1.557S260.672,274.417,260.672,273.557Zm0,0" transform="translate(-256 -264.992)" fill="#c18e59"/>
        <path id="Trazado_901314" data-name="Trazado 901314" d="M275.115,338.336c0-1.29-.7-2.336-1.557-2.336S272,337.046,272,338.336s.7,2.336,1.557,2.336S275.115,339.626,275.115,338.336Zm0,0" transform="translate(-270.443 -322.762)" fill="#c18e59"/>
        <path id="Trazado_901315" data-name="Trazado 901315" d="M355.115,290.336c0-1.29-.7-2.336-1.557-2.336S352,289.046,352,290.336s.7,2.336,1.557,2.336S355.115,291.626,355.115,290.336Zm0,0" transform="translate(-342.656 -279.434)" fill="#c18e59"/>
        <path id="Trazado_901316" data-name="Trazado 901316" d="M323.115,202.336c0-1.29-.7-2.336-1.557-2.336S320,201.046,320,202.336s.7,2.336,1.557,2.336S323.115,203.626,323.115,202.336Zm0,0" transform="translate(-313.77 -200)" fill="#c18e59"/>
      </g>
      <path id="Trazado_901317" data-name="Trazado 901317" d="M8,352H30.074a10.126,10.126,0,0,0,19.7,0h4.943v13.238H8Zm0,0" transform="translate(-7.221 -317.738)" fill="#857970"/>
      <path id="Trazado_901318" data-name="Trazado 901318" d="M424.573,454.559l-.456-.456a2.962,2.962,0,0,0-2.108-.873A4.506,4.506,0,0,1,418.8,451.9l-.456-.456,1.1-1.1.456.456a2.962,2.962,0,0,0,2.108.873A4.507,4.507,0,0,1,425.218,453l.456.456Zm0,0" transform="translate(-377.624 -406.509)"/>
      <path id="Trazado_901319" data-name="Trazado 901319" d="M271.472,459.893h-.59a4.736,4.736,0,0,1-3.37-1.4l-1.168-1.168,1.1-1.1,1.168,1.168a3.19,3.19,0,0,0,2.269.94h.59a3.189,3.189,0,0,0,2.269-.94,4.736,4.736,0,0,1,3.37-1.4h2.242v1.557h-2.242a3.189,3.189,0,0,0-2.269.94,4.736,4.736,0,0,1-3.37,1.4Zm0,0" transform="translate(-240.419 -411.614)"/>
      <path id="Trazado_901320" data-name="Trazado 901320" d="M187.445,440.117l-1.1-1.1,1.786-1.786-1.786-1.786,1.1-1.1,2.336,2.336a.778.778,0,0,1,0,1.1Zm0,0" transform="translate(-168.206 -392.066)"/>
      <path id="Trazado_901321" data-name="Trazado 901321" d="M216,456h3.893v1.557H216Zm0,0" transform="translate(-194.975 -411.614)"/>
      <path id="Trazado_901322" data-name="Trazado 901322" d="M78.458,387.452l-.779-.779a1.893,1.893,0,0,0-1.329-.551,3.734,3.734,0,0,1-2.659-1.1l-.59-.59a3.733,3.733,0,0,1-1.1-2.659,3.413,3.413,0,0,1,1.007-2.43,1.893,1.893,0,0,0,.551-1.329V376h1.557v2.014a3.413,3.413,0,0,1-1.007,2.43,1.893,1.893,0,0,0-.551,1.329,2.189,2.189,0,0,0,.645,1.557l.59.59a2.189,2.189,0,0,0,1.557.645,3.413,3.413,0,0,1,2.43,1.007l.779.779Zm0,0" transform="translate(-64.992 -339.401)"/>
      <path id="Trazado_901323" data-name="Trazado 901323" d="M7.787,411.115H4.994a3.413,3.413,0,0,1-2.43-1.007,1.893,1.893,0,0,0-1.329-.551H0V408H1.235a3.412,3.412,0,0,1,2.43,1.007,1.893,1.893,0,0,0,1.329.551H7.787Zm0,0" transform="translate(0 -368.287)"/>
      <path id="Trazado_901324" data-name="Trazado 901324" d="M122.34,444.672l2.336-2.336,1.1,1.1-2.336,2.336Zm0,0" transform="translate(-110.432 -399.281)"/>
      <path id="Trazado_901325" data-name="Trazado 901325" d="M90.34,403.445l1.1-1.1,2.336,2.336-1.1,1.1Zm0,0" transform="translate(-81.547 -363.181)"/>
      <path id="Trazado_901326" data-name="Trazado 901326" d="M434.34,444.676l2.336-2.336,1.1,1.1-2.336,2.336Zm0,0" transform="translate(-392.063 -399.284)"/>
      <path id="Trazado_901327" data-name="Trazado 901327" d="M158.715,32.353h-.133a2.339,2.339,0,0,1-2.336-2.336v-.133a2.322,2.322,0,0,1,.684-1.652l1.652-1.652V21.451a.78.78,0,0,0-.779-.779h-4.672a.78.78,0,0,0-.779.779v5.128L154,28.231a2.319,2.319,0,0,1,.684,1.652v.133a2.339,2.339,0,0,1-2.336,2.336h-.133a2.322,2.322,0,0,1-1.652-.684l-2.659-2.659a.777.777,0,0,1-.228-.551V20.672h-9.344a2.336,2.336,0,0,1,0-4.672H165.59v1.557H138.336a.779.779,0,1,0,0,1.557h10.123a.779.779,0,0,1,.779.779v8.243l2.43,2.43a.775.775,0,0,0,.551.228h.133a.78.78,0,0,0,.779-.779v-.133a.775.775,0,0,0-.228-.551l-1.88-1.88a.777.777,0,0,1-.228-.551V21.451a2.339,2.339,0,0,1,2.336-2.336H157.8a2.339,2.339,0,0,1,2.336,2.336V26.9a.776.776,0,0,1-.228.551l-1.88,1.88a.775.775,0,0,0-.228.551v.133a.78.78,0,0,0,.779.779h.133a.775.775,0,0,0,.551-.228l2.43-2.43V19.893a.779.779,0,0,1,.779-.779h3.115v1.557h-2.336v7.787a.777.777,0,0,1-.228.551l-2.659,2.659a2.319,2.319,0,0,1-1.652.684Zm0,0" transform="translate(-122.762 -14.443)"/>
      <path id="Trazado_901328" data-name="Trazado 901328" d="M437.451,12.459h-4.672A.779.779,0,0,1,432,11.68V.779A.779.779,0,0,1,432.779,0h4.672a.779.779,0,0,1,.779.779v10.9A.779.779,0,0,1,437.451,12.459ZM433.557,10.9h3.115V1.557h-3.115Zm0,0" transform="translate(-389.951)"/>
      <path id="Trazado_901329" data-name="Trazado 901329" d="M440,344h5.451v1.557H440Zm0,0" transform="translate(-397.172 -310.516)"/>
      <path id="Trazado_901330" data-name="Trazado 901330" d="M0,344H22.582v1.557H0Zm0,0" transform="translate(0 -310.516)"/>
      <path id="Trazado_901331" data-name="Trazado 901331" d="M234.9,338.9A10.913,10.913,0,0,1,224,328h1.557a9.344,9.344,0,0,0,18.689,0H245.8A10.913,10.913,0,0,1,234.9,338.9Zm0,0" transform="translate(-202.197 -296.074)"/>
      <path id="Trazado_901332" data-name="Trazado 901332" d="M331.115,364.672c-1.747,0-3.115-1.026-3.115-2.336S329.368,360,331.115,360s3.115,1.026,3.115,2.336S332.861,364.672,331.115,364.672Zm0-3.115c-.951,0-1.557.461-1.557.779s.606.779,1.557.779,1.557-.461,1.557-.779S332.066,361.557,331.115,361.557Zm0,0" transform="translate(-296.074 -324.959)"/>
      <path id="Trazado_901333" data-name="Trazado 901333" d="M251.115,268.672c-1.747,0-3.115-1.026-3.115-2.336S249.368,264,251.115,264s3.115,1.026,3.115,2.336S252.861,268.672,251.115,268.672Zm0-3.115c-.951,0-1.557.461-1.557.779s.606.779,1.557.779,1.557-.461,1.557-.779S252.066,265.557,251.115,265.557Zm0,0" transform="translate(-223.861 -238.303)"/>
      <path id="Trazado_901334" data-name="Trazado 901334" d="M266.336,334.229c-1.31,0-2.336-1.368-2.336-3.115S265.026,328,266.336,328s2.336,1.368,2.336,3.115S267.646,334.229,266.336,334.229Zm0-4.672c-.318,0-.779.606-.779,1.557s.461,1.557.779,1.557.779-.606.779-1.557S266.654,329.557,266.336,329.557Zm0,0" transform="translate(-238.303 -296.074)"/>
      <path id="Trazado_901335" data-name="Trazado 901335" d="M346.336,286.229c-1.31,0-2.336-1.368-2.336-3.115S345.026,280,346.336,280s2.336,1.368,2.336,3.115S347.646,286.229,346.336,286.229Zm0-4.672c-.318,0-.779.606-.779,1.557s.461,1.557.779,1.557.779-.606.779-1.557S346.654,281.557,346.336,281.557Zm0,0" transform="translate(-310.516 -252.746)"/>
      <path id="Trazado_901336" data-name="Trazado 901336" d="M314.336,198.23c-1.31,0-2.336-1.368-2.336-3.115S313.026,192,314.336,192s2.336,1.368,2.336,3.115S315.646,198.23,314.336,198.23Zm0-4.672c-.318,0-.779.606-.779,1.557s.461,1.557.779,1.557.779-.606.779-1.557S314.654,193.557,314.336,193.557Zm0,0" transform="translate(-281.631 -173.311)"/>
      <path id="Trazado_901337" data-name="Trazado 901337" d="M4.672,246.23C2.053,246.23,0,244.861,0,243.115S2.053,240,4.672,240s4.672,1.368,4.672,3.115S7.291,246.23,4.672,246.23Zm0-4.672c-1.783,0-3.115.822-3.115,1.557s1.332,1.557,3.115,1.557,3.115-.822,3.115-1.557S6.455,241.557,4.672,241.557Zm0,0" transform="translate(0 -216.639)"/>
      <path id="Trazado_901338" data-name="Trazado 901338" d="M84.672,230.23c-2.619,0-4.672-1.368-4.672-3.115S82.053,224,84.672,224s4.672,1.368,4.672,3.115S87.291,230.23,84.672,230.23Zm0-4.672c-1.783,0-3.115.822-3.115,1.557s1.332,1.557,3.115,1.557,3.115-.822,3.115-1.557S86.455,225.557,84.672,225.557Zm0,0" transform="translate(-72.213 -202.197)"/>
      <path id="Trazado_901339" data-name="Trazado 901339" d="M80,256h1.557v9.344H80Zm0,0" transform="translate(-72.213 -231.082)"/>
    </g>
  </g>
</svg>
