<svg xmlns="http://www.w3.org/2000/svg" width="85" height="85" viewBox="0 0 85 85">
  <g id="Grupo_1114864" data-name="Grupo 1114864" transform="translate(-305.051 -3150)">
    <circle id="Elipse_12199" data-name="Elipse 12199" cx="42.5" cy="42.5" r="42.5" transform="translate(305.051 3150)" fill="#f5c87f"/>
    <g id="Grupo_1113796" data-name="Grupo 1113796" transform="translate(323.412 3169.25)">
      <path id="Trazado_901292" data-name="Trazado 901292" d="M8,288H20.71a10.9,10.9,0,0,0,21.3,0h12.71v19.467H8Zm0,0" transform="translate(-7.221 -259.967)" fill="#857970"/>
      <path id="Trazado_901293" data-name="Trazado 901293" d="M271.361,8h-10.9A12.459,12.459,0,0,0,248,20.459v4.672h10.9a12.459,12.459,0,0,0,12.459-12.459Zm0,0" transform="translate(-223.861 -7.221)" fill="#7ecb92"/>
      <path id="Trazado_901294" data-name="Trazado 901294" d="M40,40h7.787A12.459,12.459,0,0,1,60.246,52.459v1.557H52.459A12.459,12.459,0,0,1,40,41.557Zm0,0" transform="translate(-36.107 -36.107)" fill="#7ecb92"/>
      <path id="Trazado_901295" data-name="Trazado 901295" d="M183.574,191.787A7.787,7.787,0,1,1,175.787,184,7.787,7.787,0,0,1,183.574,191.787Zm0,0" transform="translate(-151.648 -166.09)" fill="#976947"/>
      <path id="Trazado_901296" data-name="Trazado 901296" d="M168,191.787a7.767,7.767,0,0,0,2.99,6.126,9.109,9.109,0,0,0,1.293.1,8.952,8.952,0,0,0,8.275-12.374A7.778,7.778,0,0,0,168,191.787Zm0,0" transform="translate(-151.648 -166.09)" fill="#c18e59"/>
      <path id="Trazado_901297" data-name="Trazado 901297" d="M139.68,275.68A11.694,11.694,0,0,1,128,264h1.557a10.123,10.123,0,1,0,20.246,0h1.557A11.694,11.694,0,0,1,139.68,275.68Zm0,0" transform="translate(-115.541 -238.303)"/>
      <path id="Trazado_901298" data-name="Trazado 901298" d="M352,280h14.016v1.557H352Zm0,0" transform="translate(-317.738 -252.746)"/>
      <path id="Trazado_901299" data-name="Trazado 901299" d="M0,280H14.016v1.557H0Zm0,0" transform="translate(0 -252.746)"/>
      <path id="Trazado_901300" data-name="Trazado 901300" d="M168.566,193.131a8.566,8.566,0,1,1,8.566-8.566A8.576,8.576,0,0,1,168.566,193.131Zm0-15.574a7.008,7.008,0,1,0,7.008,7.008A7.016,7.016,0,0,0,168.566,177.557Zm0,0" transform="translate(-144.426 -158.869)"/>
      <path id="Trazado_901301" data-name="Trazado 901301" d="M218.114,191.732l-1.1-1.1,3.222-3.222-3.882-2.587a.78.78,0,0,1-.236-1.049l2.336-3.893,1.335.8-1.954,3.257,4.055,2.7a.779.779,0,0,1,.118,1.2Zm0,0" transform="translate(-194.981 -162.37)"/>
      <path id="Trazado_901302" data-name="Trazado 901302" d="M251.68,18.689h-10.9A.778.778,0,0,1,240,17.91V13.238A13.253,13.253,0,0,1,253.238,0h10.9a.778.778,0,0,1,.779.779V5.451A13.253,13.253,0,0,1,251.68,18.689Zm-10.123-1.557H251.68a11.694,11.694,0,0,0,11.68-11.68V1.557H253.238a11.694,11.694,0,0,0-11.68,11.68Zm0,0" transform="translate(-216.639)"/>
      <path id="Trazado_901303" data-name="Trazado 901303" d="M53.025,47.574H45.238A13.253,13.253,0,0,1,32,34.336V32.779A.778.778,0,0,1,32.779,32h7.787A13.253,13.253,0,0,1,53.8,45.238V46.8A.778.778,0,0,1,53.025,47.574ZM33.557,33.557v.779a11.694,11.694,0,0,0,11.68,11.68h7.008v-.779a11.694,11.694,0,0,0-11.68-11.68Zm0,0" transform="translate(-28.885 -28.885)"/>
      <path id="Trazado_901304" data-name="Trazado 901304" d="M245.836,71.625l-.523-1.466,2.969-1.061a24.808,24.808,0,0,0,12.218-9.54l1.3.864A26.374,26.374,0,0,1,248.8,70.564Zm0,0" transform="translate(-221.435 -53.761)"/>
      <path id="Trazado_901305" data-name="Trazado 901305" d="M140.117,94.037,136.306,92.3a15.584,15.584,0,0,1-7.465-7.194l1.393-.7a14.021,14.021,0,0,0,6.717,6.472l3.811,1.733Zm0,0" transform="translate(-116.3 -76.197)"/>
      <path id="Trazado_901306" data-name="Trazado 901306" d="M88,400h31.148v1.557H88Zm0,0" transform="translate(-79.434 -361.066)"/>
      <path id="Trazado_901307" data-name="Trazado 901307" d="M120,432h24.918v1.557H120Zm0,0" transform="translate(-108.32 -389.951)"/>
    </g>
  </g>
</svg>
