<svg xmlns="http://www.w3.org/2000/svg" width="85" height="85" viewBox="0 0 85 85">
  <g id="Grupo_1114865" data-name="Grupo 1114865" transform="translate(-305.051 -3263)">
    <circle id="Elipse_12200" data-name="Elipse 12200" cx="42.5" cy="42.5" r="42.5" transform="translate(305.051 3263)" fill="#f5c87f"/>
    <g id="Grupo_1113799" data-name="Grupo 1113799" transform="translate(323.412 3280.361)">
      <path id="Trazado_901340" data-name="Trazado 901340" d="M263.212,7.921,256,17.606A10.106,10.106,0,0,0,266.106,7.5,10.106,10.106,0,0,0,263.212,7.921Z" transform="translate(-231.361 -6.778)" fill="#5b9b40"/>
      <path id="Trazado_901341" data-name="Trazado 901341" d="M450.275,142.5h-2.887l-2.887,5.775,5.775-2.887Z" transform="translate(-401.718 -128.785)" fill="#70ae3e"/>
      <path id="Trazado_901342" data-name="Trazado 901342" d="M7.5,142.5v2.887l1.925,2.887H52.447V142.5Z" transform="translate(-6.778 -128.785)" fill="#9dcb3b"/>
      <path id="Trazado_901343" data-name="Trazado 901343" d="M450.275,172.5h-2.887l-2.887,9.384,5.775-4.331Z" transform="translate(-401.718 -155.897)" fill="#522b28"/>
      <path id="Trazado_901344" data-name="Trazado 901344" d="M7.5,172.5v5.053l2.887,4.331h42.06V172.5Z" transform="translate(-6.778 -155.897)" fill="#7d3826"/>
      <path id="Trazado_901345" data-name="Trazado 901345" d="M420.988,225a3.922,3.922,0,0,0-.713.061L414.5,237.1l5.775,13.836,2.887-1.925V225Z" transform="translate(-374.606 -203.344)" fill="#a94525"/>
      <path id="Trazado_901346" data-name="Trazado 901346" d="M44.463,225c-2.174,0-2.174,1.444-4.349,1.444S37.94,225,35.766,225s-2.174,1.444-4.348,1.444S29.243,225,27.069,225s-2.174,1.444-4.349,1.444S20.546,225,18.371,225s-2.174,1.444-4.349,1.444S11.848,225,9.674,225H7.5v24.014l2.887,1.925,7.628.962,6.7-.962,6.7.962,6.7-.962,6.7.962,7.628-.962V225.061c-1.494.274-1.729,1.383-3.635,1.383C46.638,226.444,46.638,225,44.463,225Z" transform="translate(-6.778 -203.344)" fill="#d45223"/>
      <path id="Trazado_901347" data-name="Trazado 901347" d="M338.137,474.5H335.25l2.887,2.887h2.887A2.887,2.887,0,0,0,338.137,474.5Z" transform="translate(-302.983 -428.831)" fill="#ffa630"/>
      <path id="Trazado_901348" data-name="Trazado 901348" d="M263.628,474.5h-4.74A2.887,2.887,0,0,0,256,477.387h10.515A2.887,2.887,0,0,0,263.628,474.5Z" transform="translate(-231.361 -428.831)" fill="#ffc938"/>
      <path id="Trazado_901349" data-name="Trazado 901349" d="M198.887,474.5H196l2.887,2.887h2.887A2.887,2.887,0,0,0,198.887,474.5Z" transform="translate(-177.136 -428.831)" fill="#ffa630"/>
      <path id="Trazado_901350" data-name="Trazado 901350" d="M124.378,474.5h-4.74a2.887,2.887,0,0,0-2.887,2.887h10.515A2.887,2.887,0,0,0,124.378,474.5Z" transform="translate(-105.513 -428.831)" fill="#ffc938"/>
      <path id="Trazado_901351" data-name="Trazado 901351" d="M459.312,474.5h-2.887l-1.925,1.444,1.925,1.444h2.887Z" transform="translate(-410.756 -428.831)" fill="#ffa630"/>
      <path id="Trazado_901352" data-name="Trazado 901352" d="M398.137,474.5a2.887,2.887,0,0,0-2.887,2.887h7.628V474.5Z" transform="translate(-357.208 -428.831)" fill="#ffc938"/>
      <path id="Trazado_901353" data-name="Trazado 901353" d="M59.637,474.5H56.75l2.887,2.887h2.887A2.887,2.887,0,0,0,59.637,474.5Z" transform="translate(-51.288 -428.831)" fill="#ffa630"/>
      <path id="Trazado_901354" data-name="Trazado 901354" d="M12.24,474.5H7.5v2.887h7.628A2.887,2.887,0,0,0,12.24,474.5Z" transform="translate(-6.778 -428.831)" fill="#ffc938"/>
      <path id="Trazado_901355" data-name="Trazado 901355" d="M263.212,11.877A10.11,10.11,0,0,0,256,21.562C259.886,21.562,263.054,17.263,263.212,11.877Z" transform="translate(-231.361 -10.734)" fill="#70ae3e"/>
      <path id="Trazado_901356" data-name="Trazado 901356" d="M151,7.5a10.106,10.106,0,0,0,10.106,10.106A10.106,10.106,0,0,0,151,7.5Z" transform="translate(-136.467 -6.778)" fill="#70ae3e"/>
      <circle id="Elipse_12267" data-name="Elipse 12267" cx="1" cy="1" r="1" transform="translate(41.639 41.639)"/>
      <ellipse id="Elipse_12268" data-name="Elipse 12268" cy="1" ry="1" transform="translate(3.639 41.639)"/>
      <ellipse id="Elipse_12269" data-name="Elipse 12269" cy="0.5" ry="0.5" transform="translate(45.639 39.639)"/>
      <path id="Trazado_901357" data-name="Trazado 901357" d="M48.556,12.993H27.527a.722.722,0,1,0,0,1.444H47.835v1.444H25.361V11.525A10.841,10.841,0,0,0,35.467.722.722.722,0,0,0,34.745,0,10.846,10.846,0,0,0,24.639,6.939,10.846,10.846,0,0,0,14.533,0a.722.722,0,0,0-.722.722,10.841,10.841,0,0,0,10.106,10.8v1.468H.722A.722.722,0,0,0,0,13.715V48.556a.722.722,0,0,0,.722.722H48.556a.722.722,0,0,0,.722-.722V13.715A.722.722,0,0,0,48.556,12.993Zm-.722,4.331v3.609H46.383a4.171,4.171,0,0,0-2.574.842,2.92,2.92,0,0,1-3.55,0,4.353,4.353,0,0,0-5.147,0,2.921,2.921,0,0,1-3.55,0,4.353,4.353,0,0,0-5.147,0,3.189,3.189,0,0,1-1.054.523V17.324ZM38.042,46.393a3.606,3.606,0,0,0-2.887-1.446H27.527a3.606,3.606,0,0,0-2.887,1.446,3.606,3.606,0,0,0-2.887-1.446H14.124a3.606,3.606,0,0,0-2.887,1.446,3.606,3.606,0,0,0-2.887-1.446H1.444V22.377H2.9a2.751,2.751,0,0,1,1.775.6,4.172,4.172,0,0,0,2.574.842,4.171,4.171,0,0,0,2.574-.842,2.921,2.921,0,0,1,3.55,0,4.353,4.353,0,0,0,5.147,0,2.92,2.92,0,0,1,3.55,0,4.3,4.3,0,0,0,1.851.789V27.5a3.619,3.619,0,0,0-2.826,2.876,3.614,3.614,0,0,0-2.949,3.548v3.08a.722.722,0,0,0,1.444,0v-3.08a2.169,2.169,0,0,1,1.444-2.041v8.009a.722.722,0,0,0,1.444,0V31.039A2.169,2.169,0,0,1,23.917,29V42.782a.722.722,0,1,0,1.444,0V29A2.169,2.169,0,0,1,26.8,31.04v8.855a.722.722,0,1,0,1.444,0V31.886a2.169,2.169,0,0,1,1.444,2.041v3.08a.722.722,0,1,0,1.444,0v-3.08a3.614,3.614,0,0,0-2.949-3.548A3.619,3.619,0,0,0,25.361,27.5V23.768a4.3,4.3,0,0,0,1.852-.789,2.92,2.92,0,0,1,3.55,0,4.353,4.353,0,0,0,5.147,0,2.921,2.921,0,0,1,3.55,0,4.353,4.353,0,0,0,5.147,0,2.752,2.752,0,0,1,1.775-.6h1.452v22.57H40.929A3.606,3.606,0,0,0,38.042,46.393ZM37.2,47.835H25.485a2.169,2.169,0,0,1,2.041-1.444h7.628A2.169,2.169,0,0,1,37.2,47.835Zm-13.4,0H12.083a2.169,2.169,0,0,1,2.041-1.444h7.628A2.169,2.169,0,0,1,23.793,47.835ZM23.917,22.3a3.189,3.189,0,0,1-1.053-.523,4.353,4.353,0,0,0-5.147,0,2.921,2.921,0,0,1-3.55,0,4.172,4.172,0,0,0-2.574-.842,4.171,4.171,0,0,0-2.574.842,2.752,2.752,0,0,1-1.775.6,2.751,2.751,0,0,1-1.775-.6A4.172,4.172,0,0,0,2.9,20.934H1.444V17.324H23.917ZM33.993,1.474a9.4,9.4,0,0,1-8.6,8.6A9.4,9.4,0,0,1,33.993,1.474Zm-18.708,0a9.4,9.4,0,0,1,8.6,8.6A9.4,9.4,0,0,1,15.285,1.474Zm8.632,12.963v1.444H1.444V14.437ZM1.444,46.391H8.349a2.169,2.169,0,0,1,2.041,1.444H1.444Zm37.444,1.444a2.169,2.169,0,0,1,2.041-1.444h6.906v1.444Z"/>
    </g>
  </g>
</svg>
