<svg xmlns="http://www.w3.org/2000/svg" width="90" height="90" viewBox="0 0 90 90">
  <g id="Grupo_1113704" data-name="Grupo 1113704" transform="translate(-546.051 -661)">
    <g id="Grupo_1098742" data-name="Grupo 1098742" transform="translate(-657.27 272.258)">
      <g id="Rectángulo_400898" data-name="Rectángulo 400898" transform="translate(1203.32 388.742)" fill="#fff" stroke="#fff" stroke-width="3" opacity="0.859">
        <rect width="90" height="90" rx="45" stroke="none"/>
        <rect x="1.5" y="1.5" width="87" height="87" rx="43.5" fill="none"/>
      </g>
      <g id="Rectángulo_400907" data-name="Rectángulo 400907" transform="translate(1203.32 388.742)" fill="none" stroke="#fff" stroke-width="3">
        <rect width="90" height="90" rx="45" stroke="none"/>
        <rect x="1.5" y="1.5" width="87" height="87" rx="43.5" fill="none"/>
      </g>
    </g>
    <g id="Grupo_1113697" data-name="Grupo 1113697" transform="translate(562.051 675.749)">
      <rect id="Rectángulo_405225" data-name="Rectángulo 405225" width="56.412" height="7.588" transform="translate(0.793 49.614)" fill="#bc8871"/>
      <path id="Trazado_900922" data-name="Trazado 900922" d="M16.464,23.123l5.318,14a44.714,44.714,0,0,1,2.872,13.961l.478,11.175H38L36.617,53.71A44.717,44.717,0,0,0,16.464,23.125Z" transform="translate(-9.004 -12.648)" fill="#77bc4d"/>
      <path id="Trazado_900923" data-name="Trazado 900923" d="M64,50.571l.826-9.945A77.461,77.461,0,0,1,79.179,1.747h0L77.556,14.084A77.471,77.471,0,0,0,77,28.2L78.16,50.571Z" transform="translate(-35.001 -0.957)" fill="#77bc4d"/>
      <path id="Trazado_900924" data-name="Trazado 900924" d="M46.653,30.565a44.706,44.706,0,0,1,5.571,15.472l1.386,8.552.826-9.945a77.463,77.463,0,0,1,3.021-15.891A49.189,49.189,0,0,0,45,9.094l.811,3.444A49.2,49.2,0,0,1,46.653,30.565Z" transform="translate(-24.61 -4.975)" fill="#479838"/>
      <path id="Trazado_900925" data-name="Trazado 900925" d="M15.143,63.289A54.846,54.846,0,0,0,4.335,47.406L1.75,44.76h0A54.848,54.848,0,0,1,7.844,72.133l-.077,1.961h9.318l-.307-7.159Z" transform="translate(-0.957 -24.481)" fill="#479838"/>
      <path id="Trazado_900926" data-name="Trazado 900926" d="M108.633,33.938a57.884,57.884,0,0,0-14.6,23.652l.55,10.586h10.45l-.181-.99a57.89,57.89,0,0,1,3.189-31.77Z" transform="translate(-51.428 -18.562)" fill="#479838"/>
      <g id="Grupo_1113696" data-name="Grupo 1113696" transform="translate(0 -0.003)">
        <path id="Trazado_900927" data-name="Trazado 900927" d="M43.861,124.5H40.293a.793.793,0,1,0,0,1.586h3.568a.793.793,0,1,0,0-1.586Z" transform="translate(-21.602 -68.086)"/>
        <path id="Trazado_900928" data-name="Trazado 900928" d="M57.205,48.821H54.27l-.061-.338a57.032,57.032,0,0,1,3.143-31.334l.589-1.479a.793.793,0,0,0-1.292-.861A58.908,58.908,0,0,0,43.2,35.059l-.408-7.854c-.1-1.99-.13-4.01-.077-6a.793.793,0,0,0-1.586-.042c-.054,2.035-.028,4.1.077,6.129l1.118,21.532H29.86l.755-9.083A76.691,76.691,0,0,1,42.962,3.953l-1.193,9.07a.793.793,0,1,0,1.572.207L44.964.893a.793.793,0,0,0-1.43-.567,78.265,78.265,0,0,0-10.746,21A50.237,50.237,0,0,0,20.94,3.548.793.793,0,0,0,19.62,4.3l.811,3.444a48.169,48.169,0,0,1,1.087,15.5A45.508,45.508,0,0,0,7.884,9.806a.793.793,0,0,0-1.167.952l5.317,14a43.833,43.833,0,0,1,2.813,13.6,55.463,55.463,0,0,0-10.9-15.983L1.359,19.725a.793.793,0,0,0-1.269.918A54.153,54.153,0,0,1,6.1,47.62l-.045,1.2H.793A.793.793,0,0,0,0,49.614V57.2A.793.793,0,0,0,.793,58H12.319a.793.793,0,1,0,0-1.586H1.586v-6H56.412v6H28.631a.793.793,0,1,0,0,1.586H57.205A.793.793,0,0,0,58,57.2v-7.59a.793.793,0,0,0-.793-.793ZM21.972,7.378l-.157-.668A48.65,48.65,0,0,1,32.01,23.793,78.259,78.259,0,0,0,29.034,39.6l-.289,3.486L28.4,40.936a45.478,45.478,0,0,0-5.534-15.5,49.779,49.779,0,0,0-.89-18.054ZM3.478,24.176a53.875,53.875,0,0,1,9.985,14.957l1.573,3.507.265,6.181H7.636l.045-1.137a55.749,55.749,0,0,0-4.2-23.508ZM16.89,48.821l-.446-10.416A45.43,45.43,0,0,0,13.521,24.2L9.09,12.534A43.965,43.965,0,0,1,26.83,41.189l1.237,7.632Zm27.024,0-.506-9.683A57.38,57.38,0,0,1,55.037,18.8a58.616,58.616,0,0,0-2.389,29.962l.01.055Z" transform="translate(0 0.003)"/>
      </g>
    </g>
  </g>
</svg>
