<svg xmlns="http://www.w3.org/2000/svg" width="90" height="90" viewBox="0 0 90 90">
  <g id="Grupo_1113705" data-name="Grupo 1113705" transform="translate(-967.051 -661)">
    <g id="Grupo_1098742" data-name="Grupo 1098742" transform="translate(-236.27 272.258)">
      <g id="Rect치ngulo_400898" data-name="Rect치ngulo 400898" transform="translate(1203.32 388.742)" fill="#fff" stroke="#fff" stroke-width="3" opacity="0.859">
        <rect width="90" height="90" rx="45" stroke="none"/>
        <rect x="1.5" y="1.5" width="87" height="87" rx="43.5" fill="none"/>
      </g>
      <g id="Rect치ngulo_400907" data-name="Rect치ngulo 400907" transform="translate(1203.32 388.742)" fill="none" stroke="#fff" stroke-width="3">
        <rect width="90" height="90" rx="45" stroke="none"/>
        <rect x="1.5" y="1.5" width="87" height="87" rx="43.5" fill="none"/>
      </g>
    </g>
    <g id="Grupo_1113699" data-name="Grupo 1113699" transform="translate(980.052 676.188)">
      <g id="Artboard_03" data-name="Artboard 03">
        <path id="Trazado_900929" data-name="Trazado 900929" d="M15,4H35c6.63,0,12,6.27,12,14S41.63,32,35,32H14Z" fill="#e29d13"/>
        <path id="Trazado_900930" data-name="Trazado 900930" d="M35,4H15l-.91,25.5h23a10.9,10.9,0,0,0,7.46-3.05A15.48,15.48,0,0,0,47,18C47,10.27,41.63,4,35,4Z" fill="#ffc239"/>
        <path id="Trazado_900931" data-name="Trazado 900931" d="M13.71,60h20c6.63,0,12-6.27,12-14s-5.37-14-12-14h-20Z" fill="#e29d13"/>
        <path id="Trazado_900932" data-name="Trazado 900932" d="M37.07,56.63a10.69,10.69,0,0,0,6-1.88A15.44,15.44,0,0,0,45.71,46c0-7.73-5.37-14-12-14h-20V56.63Z" fill="#ffc239"/>
        <path id="Trazado_900933" data-name="Trazado 900933" d="M22,56.43A11,11,0,0,1,14,60C7.37,60,2,53.73,2,46S7.37,32,14,32a11,11,0,0,1,8,3.57Z" fill="#ffe693"/>
        <path id="Trazado_900934" data-name="Trazado 900934" d="M19.42,52.62A7.49,7.49,0,0,1,14,55c-4.42,0-8-4-8-9s3.58-9,8-9a7.49,7.49,0,0,1,5.42,2.38Z" fill="#ffd55d"/>
        <circle id="Elipse_12205" data-name="Elipse 12205" cx="4" cy="4" r="4" transform="translate(10 42)" fill="#ffe078"/>
        <path id="Trazado_900935" data-name="Trazado 900935" d="M30,60H50c6.63,0,12-6.27,12-14S56.63,32,50,32H30Z" fill="#e29d13"/>
        <path id="Trazado_900936" data-name="Trazado 900936" d="M53.37,56.63a10.68,10.68,0,0,0,6-1.88A15.44,15.44,0,0,0,62,46c0-7.73-5.37-14-12-14H30V56.63Z" fill="#ffc239"/>
        <path id="Trazado_900937" data-name="Trazado 900937" d="M60.16,53.42A15.62,15.62,0,0,0,62,46c0-7.73-5.37-14-12-14H38.57A27.22,27.22,0,0,0,60.16,53.42Z" fill="#ffd55d"/>
        <ellipse id="Elipse_12206" data-name="Elipse 12206" cx="12" cy="14" rx="12" ry="14" transform="translate(3 4)" fill="#ffe693"/>
        <ellipse id="Elipse_12207" data-name="Elipse 12207" cx="8" cy="9" rx="8" ry="9" transform="translate(7 9)" fill="#ffd55d"/>
        <circle id="Elipse_12208" data-name="Elipse 12208" cx="4" cy="4" r="4" transform="translate(11 14)" fill="#ffe078"/>
        <path id="Trazado_900938" data-name="Trazado 900938" d="M35,4H24c1.1,6,5.45,17.68,21.8,20.07A15.87,15.87,0,0,0,47,18C47,10.27,41.63,4,35,4Z" fill="#ffd55d"/>
        <path id="Trazado_900939" data-name="Trazado 900939" d="M15,33V31c.94,0,1-2,1-2h2C18,30.38,17.37,33,15,33Z" fill="#ffb127"/>
        <path id="Trazado_900940" data-name="Trazado 900940" d="M5.54,26.15,4.13,24.73a2.1,2.1,0,0,0,.55-1.25l2,.22a4.14,4.14,0,0,1-1.14,2.45Z" fill="#ffb127"/>
        <path id="Trazado_900941" data-name="Trazado 900941" d="M13,8V6c.94,0,1-2,1-2h2C16,5.38,15.37,8,13,8Z" fill="#ffb127"/>
        <path id="Trazado_900942" data-name="Trazado 900942" d="M45,26s-.07-4-2-4V20c3.16,0,4,3.77,4,6Z" fill="#ffb127"/>
        <path id="Trazado_900943" data-name="Trazado 900943" d="M42,12V10c.16,0,4-.06,4-3h2a4.59,4.59,0,0,1-3.13,4.43A8.69,8.69,0,0,1,42,12Z" fill="#ffb127"/>
        <path id="Trazado_900944" data-name="Trazado 900944" d="M26,2h2V4H26Z" fill="#ffb127"/>
        <path id="Trazado_900945" data-name="Trazado 900945" d="M32,20H30v-.76A3.24,3.24,0,0,1,33.24,16H36v2H33.24A1.25,1.25,0,0,0,32,19.24Z" fill="#ffb127"/>
        <path id="Trazado_900946" data-name="Trazado 900946" d="M42,16.77A21.65,21.65,0,0,0,36.5,4.11,11.81,11.81,0,0,0,35,4l-.72.69A20,20,0,0,1,40,16.9c.44,6.89-3.38,12-5.69,14.41L35,32a11.5,11.5,0,0,0,1.45-.11A21,21,0,0,0,42,16.77Z" fill="#bf851d"/>
        <path id="Trazado_900947" data-name="Trazado 900947" d="M28.22,4.62A21.84,21.84,0,0,1,33,16.89a21.64,21.64,0,0,1-4.75,14.49L29,32h1.26A23.53,23.53,0,0,0,35,16.78,23.77,23.77,0,0,0,30.26,4H29Z" fill="#bf851d"/>
        <ellipse id="Elipse_12209" data-name="Elipse 12209" cx="12" cy="14" rx="12" ry="14" transform="translate(16 32)" fill="#e29d13" opacity="0.5"/>
        <ellipse id="Elipse_12210" data-name="Elipse 12210" cx="12" cy="14" rx="12" ry="14" transform="translate(18 32)" fill="#ffe693"/>
        <ellipse id="Elipse_12211" data-name="Elipse 12211" cx="8" cy="9" rx="8" ry="9" transform="translate(22 37)" fill="#ffd55d"/>
        <circle id="Elipse_12212" data-name="Elipse 12212" cx="4" cy="4" r="4" transform="translate(26 42)" fill="#ffe078"/>
        <path id="Trazado_900948" data-name="Trazado 900948" d="M3.72,53.33l-.78-1.84a1.83,1.83,0,0,0,.42-.26A2.08,2.08,0,0,0,4,49.89l2,.22a4,4,0,0,1-1.35,2.66,3.43,3.43,0,0,1-.93.56Z" fill="#ffb127"/>
        <path id="Trazado_900949" data-name="Trazado 900949" d="M7.07,44.21,5.52,42.94A5.54,5.54,0,0,1,10,41v2a3.61,3.61,0,0,0-2.93,1.21Z" fill="#ffb127"/>
        <path id="Trazado_900950" data-name="Trazado 900950" d="M14.43,60.83A4.56,4.56,0,0,1,12,57h2a2.66,2.66,0,0,0,1.42,2.09Z" fill="#ffb127"/>
        <path id="Trazado_900951" data-name="Trazado 900951" d="M15.1,35.83A4.58,4.58,0,0,1,12.67,32h2a2.66,2.66,0,0,0,1.42,2.09Z" fill="#ffb127"/>
        <path id="Trazado_900952" data-name="Trazado 900952" d="M42.22,32.62a21.12,21.12,0,0,1,0,26.76L43,60h1.26A23.53,23.53,0,0,0,49,44.78,23.77,23.77,0,0,0,44.26,32H43Z" fill="#bf851d"/>
        <path id="Trazado_900953" data-name="Trazado 900953" d="M49,32l-.72.69A20,20,0,0,1,54,44.9c.44,6.89-3.38,12-5.69,14.41L49,60h1.37A21.11,21.11,0,0,0,56,44.77,21.63,21.63,0,0,0,50.38,32H49Z" fill="#bf851d"/>
        <path id="Trazado_900954" data-name="Trazado 900954" d="M47,44.89a18.491,18.491,0,0,1,0,2c.59.53,1.22,1.06,1.9,1.56a22.9,22.9,0,0,0,.1-3.64A23.77,23.77,0,0,0,44.26,32H43l-.78.62A21.84,21.84,0,0,1,47,44.89Z" fill="#e29530"/>
        <path id="Trazado_900955" data-name="Trazado 900955" d="M54,44.9a17.31,17.31,0,0,1-.74,6.15c.59.29,1.2.57,1.84.82a18.93,18.93,0,0,0,.89-7.1A21.63,21.63,0,0,0,50.38,32H49l-.72.69A20,20,0,0,1,54,44.9Z" fill="#e29530"/>
        <path id="Trazado_900956" data-name="Trazado 900956" d="M40,16.9a17.2,17.2,0,0,1-.58,5.57c.61.23,1.25.44,1.91.63A18.92,18.92,0,0,0,42,16.77,21.65,21.65,0,0,0,36.5,4.11L36,4.06A5.823,5.823,0,0,0,35,4l-.72.69A20,20,0,0,1,40,16.9Z" fill="#e29530"/>
        <path id="Trazado_900957" data-name="Trazado 900957" d="M33,16.89V19a19.36,19.36,0,0,0,1.91,1.3A23.94,23.94,0,0,0,35,16.78,23.77,23.77,0,0,0,30.26,4H29l-.78.62A21.84,21.84,0,0,1,33,16.89Z" fill="#e29530"/>
        <ellipse id="Elipse_12213" data-name="Elipse 12213" cx="1.18" cy="3.05" rx="1.18" ry="3.05" transform="matrix(0.644, -0.765, 0.765, 0.644, 52.162, 34.315)" fill="#ffeebe"/>
        <ellipse id="Elipse_12214" data-name="Elipse 12214" cx="1.24" cy="3.22" rx="1.24" ry="3.22" transform="matrix(0.644, -0.765, 0.765, 0.644, 31.967, 35.131)" fill="#ffeebe"/>
        <ellipse id="Elipse_12215" data-name="Elipse 12215" cx="1.45" cy="3.77" rx="1.45" ry="3.77" transform="matrix(0.644, -0.765, 0.765, 0.644, 16.019, 6.845)" fill="#ffeebe"/>
        <ellipse id="Elipse_12216" data-name="Elipse 12216" cx="0.82" cy="2.11" rx="0.82" ry="2.11" transform="matrix(0.644, -0.765, 0.765, 0.644, 15.56, 33.489)" fill="#ffeebe"/>
        <ellipse id="Elipse_12217" data-name="Elipse 12217" cx="1.14" cy="2.96" rx="1.14" ry="2.96" transform="matrix(0.644, -0.765, 0.765, 0.644, 37.938, 6.635)" fill="#ffeebe"/>
        <g id="Grupo_1113698" data-name="Grupo 1113698">
          <path id="Trazado_900958" data-name="Trazado 900958" d="M19.36,51.23a1.83,1.83,0,0,1-.42.26l.78,1.84a3.43,3.43,0,0,0,.92-.56A4,4,0,0,0,22,50.11l-2-.22a2.08,2.08,0,0,1-.64,1.34Z" fill="#ffb127"/>
          <path id="Trazado_900959" data-name="Trazado 900959" d="M21.52,42.94l1.55,1.27A3.61,3.61,0,0,1,26,43V41A5.54,5.54,0,0,0,21.52,42.94Z" fill="#ffb127"/>
          <path id="Trazado_900960" data-name="Trazado 900960" d="M30,57H28a4.56,4.56,0,0,0,2.43,3.83l1-1.74A2.66,2.66,0,0,1,30,57Z" fill="#ffb127"/>
          <path id="Trazado_900961" data-name="Trazado 900961" d="M31,32H29s-.06,2-1,2v2C30.37,36,31,33.38,31,32Z" fill="#ffb127"/>
          <path id="Trazado_900962" data-name="Trazado 900962" d="M58,48v2c1.93,0,2,4,2,4h2C62,51.77,61.16,48,58,48Z" fill="#ffb127"/>
          <path id="Trazado_900963" data-name="Trazado 900963" d="M63,35H61c0,2.94-3.84,3-4,3v2a8.69,8.69,0,0,0,2.87-.57A4.59,4.59,0,0,0,63,35Z" fill="#ffb127"/>
          <path id="Trazado_900964" data-name="Trazado 900964" d="M48,32h2c0-.12,0-3,2-3V27C48.84,27,48,30.27,48,32Z" fill="#ffb127"/>
          <path id="Trazado_900965" data-name="Trazado 900965" d="M46,45H44c0,.16.08,4,7,4V47C47.16,47,46.05,45.67,46,45Z" fill="#ffb127"/>
        </g>
        <path id="Trazado_900966" data-name="Trazado 900966" d="M2,59H4v2H2Z" fill="#302107"/>
        <path id="Trazado_900967" data-name="Trazado 900967" d="M6,59H58v2H6Z" fill="#302107"/>
        <path id="Trazado_900968" data-name="Trazado 900968" d="M60,59h2v2H60Z" fill="#302107"/>
      </g>
      <g id="Layer_33" data-name="Layer 33">
        <path id="Trazado_900969" data-name="Trazado 900969" d="M61.3,38.61A4.45,4.45,0,0,0,63,35H61a2.51,2.51,0,0,1-.73,1.84A12.48,12.48,0,0,0,50.12,31c.18-.88.65-2,1.88-2V27c-2.62,0-3.64,2.25-3.92,4H41.46A14.19,14.19,0,0,0,46,26h1a10,10,0,0,0-.17-1.81A17,17,0,0,0,48,18a16.64,16.64,0,0,0-1.7-7.39A4.45,4.45,0,0,0,48,7H46a2.51,2.51,0,0,1-.73,1.84A12.45,12.45,0,0,0,35,3H28V2H26V3H15C7.83,3,2,9.73,2,18c0,6.17,3.25,11.49,7.88,13.78C4.73,33.78,1,39.39,1,46A15.52,15.52,0,0,0,7.54,59H6v2H58V59H56.46A14.19,14.19,0,0,0,61,54h1a10,10,0,0,0-.17-1.81A17,17,0,0,0,63,46a16.64,16.64,0,0,0-1.7-7.39ZM48.56,59H45a23.78,23.78,0,0,0,3.86-10.15A15.549,15.549,0,0,0,51,49V47a13.071,13.071,0,0,1-2-.15,20.418,20.418,0,0,0,0-2.07A23.6,23.6,0,0,0,45,33h3.6A19.85,19.85,0,0,1,54,44.9C54.39,51.51,50.89,56.47,48.56,59ZM20.63,52.78A3.93,3.93,0,0,0,22,50.43,9,9,0,0,0,30,56c5,0,9-4.49,9-10s-4-10-9-10-9,4.49-9,10a10.9,10.9,0,0,0,.79,4.08L20,49.89a2.62,2.62,0,0,1-.25.81A14.74,14.74,0,0,1,19,46c0-6.7,4.31-12.23,9.83-12.92-.14.47-.38.92-.83.92v2c1.85,0,2.64-1.59,2.89-3C36.54,33.59,41,39.19,41,46s-4.32,12.24-9.84,12.93A2.5,2.5,0,0,1,30,57H28a3.92,3.92,0,0,0,.48,1.86,11.1,11.1,0,0,1-7.85-6.08ZM7.22,44A3.76,3.76,0,0,1,10,43V41a6.71,6.71,0,0,0-1.57.18A6.71,6.71,0,0,1,14,38a6.43,6.43,0,0,1,4.24,1.64,17.19,17.19,0,0,0-.84,2.72A4.93,4.93,0,0,0,14,41a5,5,0,0,0,0,10,4.93,4.93,0,0,0,3.4-1.36,17.19,17.19,0,0,0,.84,2.72A6.43,6.43,0,0,1,14,54c-3.86,0-7-3.59-7-8a9.08,9.08,0,0,1,.22-2ZM17,46a3,3,0,1,1-3-3A3,3,0,0,1,17,46Zm9-3V41a6.71,6.71,0,0,0-1.57.18A6.71,6.71,0,0,1,30,38c3.86,0,7,3.59,7,8s-3.14,8-7,8-7-3.59-7-8a9.08,9.08,0,0,1,.22-2A3.76,3.76,0,0,1,26,43Zm9-25h1V16H34.91A23.79,23.79,0,0,0,31,5h3.6A19.85,19.85,0,0,1,40,16.9c.42,6.61-3.08,11.57-5.41,14.1H31a23.51,23.51,0,0,0,4-13ZM22,34.19A13.209,13.209,0,0,0,20.47,33h3.07A14.59,14.59,0,0,0,22,34.19ZM43,46a15.52,15.52,0,0,0-6.54-13h6A21.74,21.74,0,0,1,47,44.89V46.2A1.76,1.76,0,0,1,46,45H44c0,.12,0,2.24,2.86,3.34A22,22,0,0,1,42.51,59h-6A15.52,15.52,0,0,0,43,46Zm.51-36.22A6.43,6.43,0,0,1,42,10v2a8.77,8.77,0,0,0,2.54-.45A14.8,14.8,0,0,1,46,18a15.26,15.26,0,0,1-.37,3.28A3.24,3.24,0,0,0,43,20v2c1,0,1.48,1,1.74,2a11.5,11.5,0,0,1-7.28,6.63A20.6,20.6,0,0,0,42,16.77,21,21,0,0,0,37.5,5.34a11,11,0,0,1,6.01,4.44ZM28.51,5A21.81,21.81,0,0,1,32.9,16,3.24,3.24,0,0,0,30,19.24V20h2v-.76a1.22,1.22,0,0,1,1-1.19,21.7,21.7,0,0,1-4.49,13h-7A15.52,15.52,0,0,0,28,18,15.52,15.52,0,0,0,21.46,5ZM6,25.52a4.37,4.37,0,0,0,.63-1.82l-1.61-.18A14.87,14.87,0,0,1,4,18C4,11.3,8.31,5.77,13.83,5.08c-.14.47-.38.92-.83.92V8c1.85,0,2.64-1.59,2.89-2.95C21.54,5.59,26,11.19,26,18c0,6-3.5,11.11-8.23,12.56A5.5,5.5,0,0,0,18,29H16s-.06,2-1,2a10.61,10.61,0,0,1-9-5.48Zm6.8,7.55a4.86,4.86,0,0,0,2.26,2.76l1-1.74a3.32,3.32,0,0,1-1.1-1,10.07,10.07,0,0,1,5.64,2.59,14.23,14.23,0,0,0-1.5,2.15A8.42,8.42,0,0,0,14,36c-5,0-9,4.49-9,10a10.9,10.9,0,0,0,.79,4.08L4,49.89a2.62,2.62,0,0,1-.25.81A14.74,14.74,0,0,1,3,46c0-6.7,4.32-12.24,9.84-12.93ZM4.63,52.78A3.93,3.93,0,0,0,6,50.43,9,9,0,0,0,14,56a8.42,8.42,0,0,0,5.13-1.79,14.23,14.23,0,0,0,1.5,2.15,10.11,10.11,0,0,1-5.47,2.56A2.45,2.45,0,0,1,14,57H12a3.92,3.92,0,0,0,.48,1.86,11.1,11.1,0,0,1-7.85-6.08ZM20.47,59A13.211,13.211,0,0,0,22,57.81,14.59,14.59,0,0,0,23.54,59Zm30.8-.09A20.72,20.72,0,0,0,56,44.77a21.21,21.21,0,0,0-4.69-11.68,10.66,10.66,0,0,1,7.24,4.69A6.43,6.43,0,0,1,57,38v2a8.77,8.77,0,0,0,2.54-.45A14.8,14.8,0,0,1,61,46a15.26,15.26,0,0,1-.37,3.28A3.24,3.24,0,0,0,58,48v2c1,0,1.48,1,1.74,2a11.24,11.24,0,0,1-8.47,6.91Z"/>
        <path id="Trazado_900970" data-name="Trazado 900970" d="M30,51a5,5,0,1,0-5-5A5,5,0,0,0,30,51Zm0-8a3,3,0,1,1-3,3A3,3,0,0,1,30,43Z"/>
        <path id="Trazado_900971" data-name="Trazado 900971" d="M24,18c0-5.51-4-10-9-10S6,12.49,6,18s4,10,9,10S24,23.51,24,18ZM8,18c0-4.41,3.14-8,7-8s7,3.59,7,8-3.14,8-7,8S8,22.41,8,18Z"/>
        <path id="Trazado_900972" data-name="Trazado 900972" d="M20,18a5,5,0,1,0-5,5,5,5,0,0,0,5-5Zm-8,0a3,3,0,1,1,3,3A3,3,0,0,1,12,18Z"/>
        <path id="Trazado_900973" data-name="Trazado 900973" d="M2,59H4v2H2Z"/>
        <path id="Trazado_900974" data-name="Trazado 900974" d="M60,59h2v2H60Z"/>
      </g>
    </g>
  </g>
</svg>
